G04 start of page 3 for group 5 idx 5 *
G04 Title: (unknown), bottom *
G04 Creator: pcb 1.99z *
G04 CreationDate: Sat 25 Jun 2011 09:43:41 PM GMT UTC *
G04 For: russ *
G04 Format: Gerber/RS-274X *
G04 PCB-Dimensions: 86614 228346 *
G04 PCB-Coordinate-Origin: lower left *
%MOIN*%
%FSLAX25Y25*%
%LNBOTTOM*%
%ADD38C,0.0677*%
%ADD37C,0.1063*%
%ADD36C,0.0380*%
%ADD35C,0.1660*%
%ADD34C,0.0360*%
%ADD33C,0.0360*%
%ADD32C,0.0913*%
%ADD31C,0.1299*%
%ADD30C,0.0600*%
%ADD29C,0.0100*%
%ADD28C,0.0200*%
G54D28*G36*
X80431Y226377D02*X84646D01*
Y222821D01*
X84610Y222825D01*
X84530Y222822D01*
X84453Y222806D01*
X84378Y222778D01*
X84309Y222739D01*
X84247Y222690D01*
X84193Y222631D01*
X84150Y222565D01*
X84117Y222493D01*
X84095Y222416D01*
X84087Y222338D01*
X84090Y222258D01*
X84106Y222181D01*
X84134Y222106D01*
X84174Y222038D01*
X84392Y221690D01*
X84574Y221322D01*
X84646Y221136D01*
Y217838D01*
X84605Y217726D01*
X84430Y217355D01*
X84222Y217001D01*
X84182Y216932D01*
X84156Y216857D01*
X84142Y216780D01*
X84140Y216701D01*
X84150Y216623D01*
X84173Y216548D01*
X84207Y216476D01*
X84251Y216412D01*
X84306Y216355D01*
X84368Y216307D01*
X84437Y216269D01*
X84512Y216243D01*
X84589Y216229D01*
X84646Y216228D01*
Y165735D01*
X84610Y165739D01*
X84530Y165736D01*
X84453Y165720D01*
X84378Y165692D01*
X84309Y165653D01*
X84247Y165604D01*
X84193Y165545D01*
X84150Y165479D01*
X84117Y165407D01*
X84095Y165330D01*
X84087Y165252D01*
X84090Y165172D01*
X84106Y165095D01*
X84134Y165020D01*
X84174Y164952D01*
X84392Y164604D01*
X84574Y164236D01*
X84646Y164050D01*
Y160752D01*
X84605Y160640D01*
X84430Y160269D01*
X84222Y159915D01*
X84182Y159846D01*
X84156Y159771D01*
X84142Y159694D01*
X84140Y159615D01*
X84150Y159537D01*
X84173Y159462D01*
X84207Y159390D01*
X84251Y159326D01*
X84306Y159269D01*
X84368Y159221D01*
X84437Y159183D01*
X84512Y159157D01*
X84589Y159143D01*
X84646Y159142D01*
Y1968D01*
X80431D01*
Y156836D01*
X80692Y156838D01*
X81190Y156887D01*
X81682Y156981D01*
X82164Y157119D01*
X82631Y157299D01*
X83081Y157521D01*
X83508Y157782D01*
X83570Y157832D01*
X83624Y157891D01*
X83667Y157957D01*
X83700Y158029D01*
X83722Y158106D01*
X83730Y158184D01*
X83727Y158264D01*
X83711Y158341D01*
X83683Y158416D01*
X83644Y158485D01*
X83595Y158547D01*
X83536Y158601D01*
X83470Y158644D01*
X83398Y158677D01*
X83321Y158699D01*
X83243Y158707D01*
X83163Y158704D01*
X83086Y158688D01*
X83011Y158660D01*
X82943Y158620D01*
X82595Y158402D01*
X82227Y158220D01*
X81844Y158072D01*
X81449Y157960D01*
X81046Y157883D01*
X80638Y157842D01*
X80431Y157840D01*
Y166964D01*
X80558Y166965D01*
X80967Y166931D01*
X81372Y166861D01*
X81768Y166755D01*
X82154Y166614D01*
X82525Y166439D01*
X82879Y166231D01*
X82948Y166191D01*
X83023Y166165D01*
X83100Y166151D01*
X83179Y166149D01*
X83257Y166159D01*
X83332Y166182D01*
X83404Y166216D01*
X83468Y166260D01*
X83525Y166315D01*
X83573Y166377D01*
X83611Y166446D01*
X83637Y166521D01*
X83651Y166598D01*
X83653Y166677D01*
X83643Y166755D01*
X83620Y166830D01*
X83586Y166902D01*
X83542Y166966D01*
X83487Y167023D01*
X83424Y167070D01*
X82995Y167328D01*
X82542Y167542D01*
X82071Y167714D01*
X81587Y167843D01*
X81094Y167929D01*
X80594Y167969D01*
X80431Y167968D01*
Y213922D01*
X80692Y213924D01*
X81190Y213973D01*
X81682Y214067D01*
X82164Y214205D01*
X82631Y214385D01*
X83081Y214607D01*
X83508Y214868D01*
X83570Y214918D01*
X83624Y214977D01*
X83667Y215043D01*
X83700Y215115D01*
X83722Y215192D01*
X83730Y215270D01*
X83727Y215350D01*
X83711Y215427D01*
X83683Y215502D01*
X83644Y215571D01*
X83595Y215633D01*
X83536Y215687D01*
X83470Y215730D01*
X83398Y215763D01*
X83321Y215785D01*
X83243Y215793D01*
X83163Y215790D01*
X83086Y215774D01*
X83011Y215746D01*
X82943Y215706D01*
X82595Y215488D01*
X82227Y215306D01*
X81844Y215158D01*
X81449Y215046D01*
X81046Y214969D01*
X80638Y214928D01*
X80431Y214926D01*
Y224050D01*
X80558Y224051D01*
X80967Y224017D01*
X81372Y223947D01*
X81768Y223841D01*
X82154Y223700D01*
X82525Y223525D01*
X82879Y223317D01*
X82948Y223277D01*
X83023Y223251D01*
X83100Y223237D01*
X83179Y223235D01*
X83257Y223245D01*
X83332Y223268D01*
X83404Y223302D01*
X83468Y223346D01*
X83525Y223401D01*
X83573Y223463D01*
X83611Y223532D01*
X83637Y223607D01*
X83651Y223684D01*
X83653Y223763D01*
X83643Y223841D01*
X83620Y223916D01*
X83586Y223988D01*
X83542Y224052D01*
X83487Y224109D01*
X83424Y224156D01*
X82995Y224414D01*
X82542Y224628D01*
X82071Y224800D01*
X81587Y224929D01*
X81094Y225015D01*
X80594Y225055D01*
X80431Y225054D01*
Y226377D01*
G37*
G36*
X75425D02*X80431D01*
Y225054D01*
X80093Y225051D01*
X79595Y225002D01*
X79103Y224908D01*
X78621Y224770D01*
X78154Y224590D01*
X77704Y224368D01*
X77277Y224107D01*
X77215Y224057D01*
X77161Y223998D01*
X77118Y223932D01*
X77085Y223860D01*
X77063Y223783D01*
X77055Y223705D01*
X77058Y223625D01*
X77074Y223548D01*
X77102Y223473D01*
X77141Y223404D01*
X77190Y223342D01*
X77249Y223288D01*
X77315Y223245D01*
X77387Y223212D01*
X77464Y223190D01*
X77542Y223182D01*
X77622Y223185D01*
X77699Y223201D01*
X77774Y223229D01*
X77842Y223269D01*
X78190Y223487D01*
X78558Y223669D01*
X78941Y223817D01*
X79336Y223929D01*
X79739Y224006D01*
X80147Y224047D01*
X80431Y224050D01*
Y214926D01*
X80227Y214924D01*
X79818Y214958D01*
X79413Y215028D01*
X79017Y215134D01*
X78631Y215275D01*
X78260Y215450D01*
X77906Y215658D01*
X77837Y215698D01*
X77762Y215724D01*
X77685Y215738D01*
X77606Y215740D01*
X77528Y215730D01*
X77453Y215707D01*
X77381Y215673D01*
X77317Y215629D01*
X77260Y215574D01*
X77212Y215512D01*
X77174Y215443D01*
X77148Y215368D01*
X77134Y215291D01*
X77132Y215212D01*
X77142Y215134D01*
X77165Y215059D01*
X77199Y214987D01*
X77243Y214923D01*
X77298Y214866D01*
X77361Y214819D01*
X77790Y214561D01*
X78243Y214347D01*
X78714Y214175D01*
X79198Y214046D01*
X79691Y213960D01*
X80191Y213920D01*
X80431Y213922D01*
Y167968D01*
X80093Y167965D01*
X79595Y167916D01*
X79103Y167822D01*
X78621Y167684D01*
X78154Y167504D01*
X77704Y167282D01*
X77277Y167021D01*
X77215Y166971D01*
X77161Y166912D01*
X77118Y166846D01*
X77085Y166774D01*
X77063Y166697D01*
X77055Y166619D01*
X77058Y166539D01*
X77074Y166462D01*
X77102Y166387D01*
X77141Y166318D01*
X77190Y166256D01*
X77249Y166202D01*
X77315Y166159D01*
X77387Y166126D01*
X77464Y166104D01*
X77542Y166096D01*
X77622Y166099D01*
X77699Y166115D01*
X77774Y166143D01*
X77842Y166183D01*
X78190Y166401D01*
X78558Y166583D01*
X78941Y166731D01*
X79336Y166843D01*
X79739Y166920D01*
X80147Y166961D01*
X80431Y166964D01*
Y157840D01*
X80227Y157838D01*
X79818Y157872D01*
X79413Y157942D01*
X79017Y158048D01*
X78631Y158189D01*
X78260Y158364D01*
X77906Y158572D01*
X77837Y158612D01*
X77762Y158638D01*
X77685Y158652D01*
X77606Y158654D01*
X77528Y158644D01*
X77453Y158621D01*
X77381Y158587D01*
X77317Y158543D01*
X77260Y158488D01*
X77212Y158426D01*
X77174Y158357D01*
X77148Y158282D01*
X77134Y158205D01*
X77132Y158126D01*
X77142Y158048D01*
X77165Y157973D01*
X77199Y157901D01*
X77243Y157837D01*
X77298Y157780D01*
X77361Y157733D01*
X77790Y157475D01*
X78243Y157261D01*
X78714Y157089D01*
X79198Y156960D01*
X79691Y156874D01*
X80191Y156834D01*
X80431Y156836D01*
Y1968D01*
X75425D01*
Y2971D01*
X75463Y3016D01*
X75833Y3620D01*
X76104Y4274D01*
X76269Y4963D01*
X76311Y5669D01*
X76269Y6375D01*
X76104Y7064D01*
X75833Y7718D01*
X75463Y8322D01*
X75425Y8367D01*
Y12971D01*
X75463Y13016D01*
X75833Y13620D01*
X76104Y14274D01*
X76269Y14963D01*
X76311Y15669D01*
X76269Y16375D01*
X76104Y17064D01*
X75833Y17718D01*
X75463Y18322D01*
X75425Y18367D01*
Y22971D01*
X75463Y23016D01*
X75833Y23620D01*
X76104Y24274D01*
X76269Y24963D01*
X76311Y25669D01*
X76269Y26375D01*
X76104Y27064D01*
X75833Y27718D01*
X75463Y28322D01*
X75425Y28367D01*
Y32971D01*
X75463Y33016D01*
X75833Y33620D01*
X76104Y34274D01*
X76269Y34963D01*
X76311Y35669D01*
X76269Y36375D01*
X76104Y37064D01*
X75833Y37718D01*
X75463Y38322D01*
X75425Y38367D01*
Y42971D01*
X75463Y43016D01*
X75833Y43620D01*
X76104Y44274D01*
X76269Y44963D01*
X76311Y45669D01*
X76269Y46375D01*
X76104Y47064D01*
X75833Y47718D01*
X75463Y48322D01*
X75425Y48367D01*
Y52971D01*
X75463Y53016D01*
X75833Y53620D01*
X76104Y54274D01*
X76269Y54963D01*
X76311Y55669D01*
X76269Y56375D01*
X76104Y57064D01*
X75833Y57718D01*
X75463Y58322D01*
X75425Y58367D01*
Y62971D01*
X75463Y63016D01*
X75833Y63620D01*
X76104Y64274D01*
X76269Y64963D01*
X76311Y65669D01*
X76269Y66375D01*
X76104Y67064D01*
X75833Y67718D01*
X75463Y68322D01*
X75425Y68367D01*
Y72971D01*
X75463Y73016D01*
X75833Y73620D01*
X76104Y74274D01*
X76269Y74963D01*
X76311Y75669D01*
X76269Y76375D01*
X76104Y77064D01*
X75833Y77718D01*
X75463Y78322D01*
X75425Y78367D01*
Y82971D01*
X75463Y83016D01*
X75833Y83620D01*
X76104Y84274D01*
X76269Y84963D01*
X76311Y85669D01*
X76269Y86375D01*
X76104Y87064D01*
X75833Y87718D01*
X75463Y88322D01*
X75425Y88367D01*
Y92971D01*
X75463Y93016D01*
X75833Y93620D01*
X76104Y94274D01*
X76269Y94963D01*
X76311Y95669D01*
X76269Y96375D01*
X76104Y97064D01*
X75833Y97718D01*
X75463Y98322D01*
X75425Y98367D01*
Y102971D01*
X75463Y103016D01*
X75833Y103620D01*
X76104Y104274D01*
X76269Y104963D01*
X76311Y105669D01*
X76269Y106375D01*
X76104Y107064D01*
X75833Y107718D01*
X75463Y108322D01*
X75425Y108367D01*
Y112971D01*
X75463Y113016D01*
X75833Y113620D01*
X76104Y114274D01*
X76269Y114963D01*
X76311Y115669D01*
X76269Y116375D01*
X76104Y117064D01*
X75833Y117718D01*
X75463Y118322D01*
X75425Y118367D01*
Y122971D01*
X75463Y123016D01*
X75833Y123620D01*
X76104Y124274D01*
X76269Y124963D01*
X76311Y125669D01*
X76269Y126375D01*
X76104Y127064D01*
X75833Y127718D01*
X75463Y128322D01*
X75425Y128367D01*
Y133527D01*
X75469Y133535D01*
X75581Y133572D01*
X75686Y133627D01*
X75781Y133697D01*
X75864Y133781D01*
X75932Y133877D01*
X75983Y133984D01*
X76130Y134390D01*
X76233Y134810D01*
X76295Y135238D01*
X76316Y135669D01*
X76295Y136101D01*
X76233Y136529D01*
X76130Y136949D01*
X75988Y137357D01*
X75934Y137463D01*
X75865Y137559D01*
X75782Y137644D01*
X75687Y137714D01*
X75582Y137769D01*
X75470Y137807D01*
X75425Y137814D01*
Y141300D01*
X75494Y141328D01*
X75695Y141452D01*
X75875Y141605D01*
X76028Y141785D01*
X76152Y141986D01*
X76242Y142204D01*
X76297Y142434D01*
X76311Y142669D01*
X76297Y148904D01*
X76242Y149134D01*
X76152Y149352D01*
X76028Y149553D01*
X75875Y149733D01*
X75695Y149886D01*
X75494Y150010D01*
X75425Y150038D01*
Y159889D01*
X75512Y159713D01*
X75773Y159286D01*
X75823Y159224D01*
X75882Y159170D01*
X75948Y159127D01*
X76020Y159094D01*
X76097Y159072D01*
X76175Y159064D01*
X76255Y159067D01*
X76332Y159083D01*
X76407Y159111D01*
X76476Y159150D01*
X76538Y159199D01*
X76592Y159258D01*
X76635Y159324D01*
X76668Y159396D01*
X76690Y159473D01*
X76698Y159551D01*
X76695Y159631D01*
X76679Y159708D01*
X76651Y159783D01*
X76611Y159851D01*
X76393Y160199D01*
X76211Y160567D01*
X76063Y160950D01*
X75951Y161345D01*
X75874Y161748D01*
X75833Y162156D01*
X75829Y162567D01*
X75863Y162976D01*
X75933Y163381D01*
X76039Y163777D01*
X76180Y164163D01*
X76355Y164534D01*
X76563Y164888D01*
X76603Y164957D01*
X76629Y165032D01*
X76643Y165109D01*
X76645Y165188D01*
X76635Y165266D01*
X76612Y165341D01*
X76578Y165413D01*
X76534Y165477D01*
X76479Y165534D01*
X76417Y165582D01*
X76348Y165620D01*
X76273Y165646D01*
X76196Y165660D01*
X76117Y165662D01*
X76039Y165652D01*
X75964Y165629D01*
X75892Y165595D01*
X75828Y165551D01*
X75771Y165496D01*
X75724Y165433D01*
X75466Y165004D01*
X75425Y164917D01*
Y216975D01*
X75512Y216799D01*
X75773Y216372D01*
X75823Y216310D01*
X75882Y216256D01*
X75948Y216213D01*
X76020Y216180D01*
X76097Y216158D01*
X76175Y216150D01*
X76255Y216153D01*
X76332Y216169D01*
X76407Y216197D01*
X76476Y216236D01*
X76538Y216285D01*
X76592Y216344D01*
X76635Y216410D01*
X76668Y216482D01*
X76690Y216559D01*
X76698Y216637D01*
X76695Y216717D01*
X76679Y216794D01*
X76651Y216869D01*
X76611Y216937D01*
X76393Y217285D01*
X76211Y217653D01*
X76063Y218036D01*
X75951Y218431D01*
X75874Y218834D01*
X75833Y219242D01*
X75829Y219653D01*
X75863Y220062D01*
X75933Y220467D01*
X76039Y220863D01*
X76180Y221249D01*
X76355Y221620D01*
X76563Y221974D01*
X76603Y222043D01*
X76629Y222118D01*
X76643Y222195D01*
X76645Y222274D01*
X76635Y222352D01*
X76612Y222427D01*
X76578Y222499D01*
X76534Y222563D01*
X76479Y222620D01*
X76417Y222668D01*
X76348Y222706D01*
X76273Y222732D01*
X76196Y222746D01*
X76117Y222748D01*
X76039Y222738D01*
X75964Y222715D01*
X75892Y222681D01*
X75828Y222637D01*
X75771Y222582D01*
X75724Y222519D01*
X75466Y222090D01*
X75425Y222003D01*
Y226377D01*
G37*
G36*
Y128367D02*X75003Y128861D01*
X74464Y129321D01*
X73860Y129691D01*
X73206Y129962D01*
X72517Y130127D01*
X71811Y130183D01*
Y131164D01*
X72242Y131185D01*
X72670Y131247D01*
X73090Y131350D01*
X73498Y131492D01*
X73604Y131546D01*
X73700Y131615D01*
X73785Y131698D01*
X73855Y131793D01*
X73910Y131898D01*
X73948Y132010D01*
X73967Y132127D01*
X73968Y132246D01*
X73951Y132363D01*
X73915Y132476D01*
X73862Y132582D01*
X73793Y132678D01*
X73710Y132763D01*
X73615Y132833D01*
X73510Y132888D01*
X73398Y132926D01*
X73281Y132945D01*
X73162Y132946D01*
X73045Y132929D01*
X72933Y132891D01*
X72663Y132793D01*
X72383Y132725D01*
X72098Y132683D01*
X71811Y132669D01*
Y138669D01*
X72098Y138656D01*
X72383Y138614D01*
X72663Y138546D01*
X72934Y138451D01*
X73046Y138412D01*
X73163Y138395D01*
X73281Y138396D01*
X73397Y138416D01*
X73509Y138453D01*
X73614Y138508D01*
X73709Y138578D01*
X73792Y138662D01*
X73860Y138758D01*
X73913Y138864D01*
X73949Y138977D01*
X73966Y139094D01*
X73965Y139212D01*
X73945Y139328D01*
X73908Y139440D01*
X73853Y139545D01*
X73783Y139640D01*
X73699Y139723D01*
X73603Y139791D01*
X73496Y139842D01*
X73090Y139989D01*
X72670Y140092D01*
X72242Y140154D01*
X71811Y140175D01*
Y141176D01*
X75046Y141183D01*
X75276Y141238D01*
X75425Y141300D01*
Y137814D01*
X75353Y137826D01*
X75234Y137827D01*
X75117Y137810D01*
X75004Y137774D01*
X74898Y137721D01*
X74802Y137652D01*
X74717Y137569D01*
X74647Y137474D01*
X74592Y137369D01*
X74554Y137257D01*
X74535Y137140D01*
X74534Y137021D01*
X74551Y136904D01*
X74589Y136792D01*
X74687Y136522D01*
X74755Y136242D01*
X74797Y135957D01*
X74811Y135669D01*
X74797Y135382D01*
X74755Y135097D01*
X74687Y134817D01*
X74592Y134546D01*
X74553Y134434D01*
X74536Y134317D01*
X74537Y134199D01*
X74557Y134083D01*
X74594Y133971D01*
X74649Y133866D01*
X74719Y133771D01*
X74803Y133688D01*
X74899Y133620D01*
X75005Y133567D01*
X75118Y133531D01*
X75235Y133514D01*
X75353Y133515D01*
X75425Y133527D01*
Y128367D01*
G37*
G36*
Y118367D02*X75003Y118861D01*
X74464Y119321D01*
X73860Y119691D01*
X73206Y119962D01*
X72517Y120127D01*
X71811Y120183D01*
Y121155D01*
X72517Y121211D01*
X73206Y121376D01*
X73860Y121647D01*
X74464Y122017D01*
X75003Y122477D01*
X75425Y122971D01*
Y118367D01*
G37*
G36*
Y108367D02*X75003Y108861D01*
X74464Y109321D01*
X73860Y109691D01*
X73206Y109962D01*
X72517Y110127D01*
X71811Y110183D01*
Y111155D01*
X72517Y111211D01*
X73206Y111376D01*
X73860Y111647D01*
X74464Y112017D01*
X75003Y112477D01*
X75425Y112971D01*
Y108367D01*
G37*
G36*
Y98367D02*X75003Y98861D01*
X74464Y99321D01*
X73860Y99691D01*
X73206Y99962D01*
X72517Y100127D01*
X71811Y100183D01*
Y101155D01*
X72517Y101211D01*
X73206Y101376D01*
X73860Y101647D01*
X74464Y102017D01*
X75003Y102477D01*
X75425Y102971D01*
Y98367D01*
G37*
G36*
Y88367D02*X75003Y88861D01*
X74464Y89321D01*
X73860Y89691D01*
X73206Y89962D01*
X72517Y90127D01*
X71811Y90183D01*
Y91155D01*
X72517Y91211D01*
X73206Y91376D01*
X73860Y91647D01*
X74464Y92017D01*
X75003Y92477D01*
X75425Y92971D01*
Y88367D01*
G37*
G36*
Y78367D02*X75003Y78861D01*
X74464Y79321D01*
X73860Y79691D01*
X73206Y79962D01*
X72517Y80127D01*
X71811Y80183D01*
Y81155D01*
X72517Y81211D01*
X73206Y81376D01*
X73860Y81647D01*
X74464Y82017D01*
X75003Y82477D01*
X75425Y82971D01*
Y78367D01*
G37*
G36*
Y68367D02*X75003Y68861D01*
X74464Y69321D01*
X73860Y69691D01*
X73206Y69962D01*
X72517Y70127D01*
X71811Y70183D01*
Y71155D01*
X72517Y71211D01*
X73206Y71376D01*
X73860Y71647D01*
X74464Y72017D01*
X75003Y72477D01*
X75425Y72971D01*
Y68367D01*
G37*
G36*
Y58367D02*X75003Y58861D01*
X74464Y59321D01*
X73860Y59691D01*
X73206Y59962D01*
X72517Y60127D01*
X71811Y60183D01*
Y61155D01*
X72517Y61211D01*
X73206Y61376D01*
X73860Y61647D01*
X74464Y62017D01*
X75003Y62477D01*
X75425Y62971D01*
Y58367D01*
G37*
G36*
Y48367D02*X75003Y48861D01*
X74464Y49321D01*
X73860Y49691D01*
X73206Y49962D01*
X72517Y50127D01*
X71811Y50183D01*
Y51155D01*
X72517Y51211D01*
X73206Y51376D01*
X73860Y51647D01*
X74464Y52017D01*
X75003Y52477D01*
X75425Y52971D01*
Y48367D01*
G37*
G36*
Y38367D02*X75003Y38861D01*
X74464Y39321D01*
X73860Y39691D01*
X73206Y39962D01*
X72517Y40127D01*
X71811Y40183D01*
Y41155D01*
X72517Y41211D01*
X73206Y41376D01*
X73860Y41647D01*
X74464Y42017D01*
X75003Y42477D01*
X75425Y42971D01*
Y38367D01*
G37*
G36*
Y28367D02*X75003Y28861D01*
X74464Y29321D01*
X73860Y29691D01*
X73206Y29962D01*
X72517Y30127D01*
X71811Y30183D01*
Y31155D01*
X72517Y31211D01*
X73206Y31376D01*
X73860Y31647D01*
X74464Y32017D01*
X75003Y32477D01*
X75425Y32971D01*
Y28367D01*
G37*
G36*
Y18367D02*X75003Y18861D01*
X74464Y19321D01*
X73860Y19691D01*
X73206Y19962D01*
X72517Y20127D01*
X71811Y20183D01*
Y21155D01*
X72517Y21211D01*
X73206Y21376D01*
X73860Y21647D01*
X74464Y22017D01*
X75003Y22477D01*
X75425Y22971D01*
Y18367D01*
G37*
G36*
Y8367D02*X75003Y8861D01*
X74464Y9321D01*
X73860Y9691D01*
X73206Y9962D01*
X72517Y10127D01*
X71811Y10183D01*
Y11155D01*
X72517Y11211D01*
X73206Y11376D01*
X73860Y11647D01*
X74464Y12017D01*
X75003Y12477D01*
X75425Y12971D01*
Y8367D01*
G37*
G36*
Y1968D02*X74384D01*
X74464Y2017D01*
X75003Y2477D01*
X75425Y2971D01*
Y1968D01*
G37*
G36*
X71811Y226377D02*X75425D01*
Y222003D01*
X75252Y221637D01*
X75080Y221166D01*
X74951Y220682D01*
X74865Y220189D01*
X74825Y219689D01*
X74829Y219188D01*
X74878Y218690D01*
X74972Y218198D01*
X75110Y217716D01*
X75290Y217249D01*
X75425Y216975D01*
Y164917D01*
X75252Y164551D01*
X75080Y164080D01*
X74951Y163596D01*
X74865Y163103D01*
X74825Y162603D01*
X74829Y162102D01*
X74878Y161604D01*
X74972Y161112D01*
X75110Y160630D01*
X75290Y160163D01*
X75425Y159889D01*
Y150038D01*
X75276Y150100D01*
X75046Y150155D01*
X74811Y150169D01*
X71811Y150162D01*
Y226377D01*
G37*
G36*
X68196Y2973D02*X68619Y2477D01*
X69158Y2017D01*
X69238Y1968D01*
X68196D01*
Y2973D01*
G37*
G36*
Y12973D02*X68619Y12477D01*
X69158Y12017D01*
X69762Y11647D01*
X70416Y11376D01*
X71105Y11211D01*
X71811Y11155D01*
Y10183D01*
X71105Y10127D01*
X70416Y9962D01*
X69762Y9691D01*
X69158Y9321D01*
X68619Y8861D01*
X68196Y8365D01*
Y12973D01*
G37*
G36*
Y22973D02*X68619Y22477D01*
X69158Y22017D01*
X69762Y21647D01*
X70416Y21376D01*
X71105Y21211D01*
X71811Y21155D01*
Y20183D01*
X71105Y20127D01*
X70416Y19962D01*
X69762Y19691D01*
X69158Y19321D01*
X68619Y18861D01*
X68196Y18365D01*
Y22973D01*
G37*
G36*
Y32973D02*X68619Y32477D01*
X69158Y32017D01*
X69762Y31647D01*
X70416Y31376D01*
X71105Y31211D01*
X71811Y31155D01*
Y30183D01*
X71105Y30127D01*
X70416Y29962D01*
X69762Y29691D01*
X69158Y29321D01*
X68619Y28861D01*
X68196Y28365D01*
Y32973D01*
G37*
G36*
Y42973D02*X68619Y42477D01*
X69158Y42017D01*
X69762Y41647D01*
X70416Y41376D01*
X71105Y41211D01*
X71811Y41155D01*
Y40183D01*
X71105Y40127D01*
X70416Y39962D01*
X69762Y39691D01*
X69158Y39321D01*
X68619Y38861D01*
X68196Y38365D01*
Y42973D01*
G37*
G36*
Y52973D02*X68619Y52477D01*
X69158Y52017D01*
X69762Y51647D01*
X70416Y51376D01*
X71105Y51211D01*
X71811Y51155D01*
Y50183D01*
X71105Y50127D01*
X70416Y49962D01*
X69762Y49691D01*
X69158Y49321D01*
X68619Y48861D01*
X68196Y48365D01*
Y52973D01*
G37*
G36*
Y62973D02*X68619Y62477D01*
X69158Y62017D01*
X69762Y61647D01*
X70416Y61376D01*
X71105Y61211D01*
X71811Y61155D01*
Y60183D01*
X71105Y60127D01*
X70416Y59962D01*
X69762Y59691D01*
X69158Y59321D01*
X68619Y58861D01*
X68196Y58365D01*
Y62973D01*
G37*
G36*
Y72973D02*X68619Y72477D01*
X69158Y72017D01*
X69762Y71647D01*
X70416Y71376D01*
X71105Y71211D01*
X71811Y71155D01*
Y70183D01*
X71105Y70127D01*
X70416Y69962D01*
X69762Y69691D01*
X69158Y69321D01*
X68619Y68861D01*
X68196Y68365D01*
Y72973D01*
G37*
G36*
Y82973D02*X68619Y82477D01*
X69158Y82017D01*
X69762Y81647D01*
X70416Y81376D01*
X71105Y81211D01*
X71811Y81155D01*
Y80183D01*
X71105Y80127D01*
X70416Y79962D01*
X69762Y79691D01*
X69158Y79321D01*
X68619Y78861D01*
X68196Y78365D01*
Y82973D01*
G37*
G36*
Y92973D02*X68619Y92477D01*
X69158Y92017D01*
X69762Y91647D01*
X70416Y91376D01*
X71105Y91211D01*
X71811Y91155D01*
Y90183D01*
X71105Y90127D01*
X70416Y89962D01*
X69762Y89691D01*
X69158Y89321D01*
X68619Y88861D01*
X68196Y88365D01*
Y92973D01*
G37*
G36*
Y102973D02*X68619Y102477D01*
X69158Y102017D01*
X69762Y101647D01*
X70416Y101376D01*
X71105Y101211D01*
X71811Y101155D01*
Y100183D01*
X71105Y100127D01*
X70416Y99962D01*
X69762Y99691D01*
X69158Y99321D01*
X68619Y98861D01*
X68196Y98365D01*
Y102973D01*
G37*
G36*
Y112973D02*X68619Y112477D01*
X69158Y112017D01*
X69762Y111647D01*
X70416Y111376D01*
X71105Y111211D01*
X71811Y111155D01*
Y110183D01*
X71105Y110127D01*
X70416Y109962D01*
X69762Y109691D01*
X69158Y109321D01*
X68619Y108861D01*
X68196Y108365D01*
Y112973D01*
G37*
G36*
Y122973D02*X68619Y122477D01*
X69158Y122017D01*
X69762Y121647D01*
X70416Y121376D01*
X71105Y121211D01*
X71811Y121155D01*
Y120183D01*
X71105Y120127D01*
X70416Y119962D01*
X69762Y119691D01*
X69158Y119321D01*
X68619Y118861D01*
X68196Y118365D01*
Y122973D01*
G37*
G36*
Y141300D02*X68346Y141238D01*
X68576Y141183D01*
X68811Y141169D01*
X71811Y141176D01*
Y140175D01*
X71379Y140154D01*
X70951Y140092D01*
X70531Y139989D01*
X70123Y139847D01*
X70017Y139793D01*
X69921Y139724D01*
X69836Y139641D01*
X69766Y139546D01*
X69711Y139441D01*
X69673Y139329D01*
X69654Y139212D01*
X69653Y139093D01*
X69670Y138976D01*
X69706Y138863D01*
X69759Y138757D01*
X69828Y138661D01*
X69911Y138576D01*
X70006Y138506D01*
X70111Y138451D01*
X70223Y138413D01*
X70340Y138394D01*
X70459Y138393D01*
X70576Y138410D01*
X70688Y138448D01*
X70958Y138546D01*
X71238Y138614D01*
X71523Y138656D01*
X71811Y138669D01*
Y132669D01*
X71523Y132683D01*
X71238Y132725D01*
X70958Y132793D01*
X70687Y132888D01*
X70575Y132927D01*
X70458Y132944D01*
X70340Y132943D01*
X70224Y132923D01*
X70112Y132886D01*
X70007Y132831D01*
X69912Y132761D01*
X69829Y132677D01*
X69761Y132581D01*
X69708Y132475D01*
X69672Y132362D01*
X69655Y132245D01*
X69656Y132127D01*
X69676Y132011D01*
X69713Y131899D01*
X69768Y131794D01*
X69838Y131699D01*
X69922Y131616D01*
X70018Y131548D01*
X70125Y131497D01*
X70531Y131350D01*
X70951Y131247D01*
X71379Y131185D01*
X71811Y131164D01*
Y130183D01*
X71105Y130127D01*
X70416Y129962D01*
X69762Y129691D01*
X69158Y129321D01*
X68619Y128861D01*
X68196Y128365D01*
Y133525D01*
X68268Y133513D01*
X68387Y133512D01*
X68504Y133529D01*
X68617Y133565D01*
X68723Y133618D01*
X68819Y133687D01*
X68904Y133770D01*
X68974Y133865D01*
X69029Y133970D01*
X69067Y134082D01*
X69086Y134199D01*
X69087Y134318D01*
X69070Y134435D01*
X69032Y134547D01*
X68934Y134817D01*
X68866Y135097D01*
X68824Y135382D01*
X68811Y135669D01*
X68824Y135957D01*
X68866Y136242D01*
X68934Y136522D01*
X69029Y136793D01*
X69068Y136905D01*
X69085Y137022D01*
X69084Y137140D01*
X69064Y137256D01*
X69027Y137368D01*
X68972Y137473D01*
X68902Y137568D01*
X68818Y137651D01*
X68722Y137719D01*
X68616Y137772D01*
X68503Y137808D01*
X68386Y137825D01*
X68268Y137824D01*
X68196Y137812D01*
Y141300D01*
G37*
G36*
Y226377D02*X71811D01*
Y150162D01*
X68576Y150155D01*
X68346Y150100D01*
X68196Y150038D01*
Y226377D01*
G37*
G36*
X64040D02*X68196D01*
Y150038D01*
X68128Y150010D01*
X67927Y149886D01*
X67747Y149733D01*
X67594Y149553D01*
X67470Y149352D01*
X67380Y149134D01*
X67325Y148904D01*
X67311Y148669D01*
X67325Y142434D01*
X67380Y142204D01*
X67470Y141986D01*
X67594Y141785D01*
X67747Y141605D01*
X67927Y141452D01*
X68128Y141328D01*
X68196Y141300D01*
Y137812D01*
X68152Y137804D01*
X68040Y137767D01*
X67935Y137712D01*
X67840Y137642D01*
X67757Y137558D01*
X67689Y137462D01*
X67638Y137355D01*
X67491Y136949D01*
X67388Y136529D01*
X67326Y136101D01*
X67305Y135669D01*
X67326Y135238D01*
X67388Y134810D01*
X67491Y134390D01*
X67633Y133982D01*
X67687Y133876D01*
X67756Y133780D01*
X67839Y133695D01*
X67934Y133625D01*
X68039Y133570D01*
X68151Y133532D01*
X68196Y133525D01*
Y128365D01*
X68159Y128322D01*
X67789Y127718D01*
X67518Y127064D01*
X67353Y126375D01*
X67297Y125669D01*
X67353Y124963D01*
X67518Y124274D01*
X67789Y123620D01*
X68159Y123016D01*
X68196Y122973D01*
Y118365D01*
X68159Y118322D01*
X67789Y117718D01*
X67518Y117064D01*
X67353Y116375D01*
X67297Y115669D01*
X67353Y114963D01*
X67518Y114274D01*
X67789Y113620D01*
X68159Y113016D01*
X68196Y112973D01*
Y108365D01*
X68159Y108322D01*
X67789Y107718D01*
X67518Y107064D01*
X67353Y106375D01*
X67297Y105669D01*
X67353Y104963D01*
X67518Y104274D01*
X67789Y103620D01*
X68159Y103016D01*
X68196Y102973D01*
Y98365D01*
X68159Y98322D01*
X67789Y97718D01*
X67518Y97064D01*
X67353Y96375D01*
X67297Y95669D01*
X67353Y94963D01*
X67518Y94274D01*
X67789Y93620D01*
X68159Y93016D01*
X68196Y92973D01*
Y88365D01*
X68159Y88322D01*
X67789Y87718D01*
X67518Y87064D01*
X67353Y86375D01*
X67297Y85669D01*
X67353Y84963D01*
X67518Y84274D01*
X67789Y83620D01*
X68159Y83016D01*
X68196Y82973D01*
Y78365D01*
X68159Y78322D01*
X67789Y77718D01*
X67518Y77064D01*
X67353Y76375D01*
X67297Y75669D01*
X67353Y74963D01*
X67518Y74274D01*
X67789Y73620D01*
X68159Y73016D01*
X68196Y72973D01*
Y68365D01*
X68159Y68322D01*
X67789Y67718D01*
X67518Y67064D01*
X67353Y66375D01*
X67297Y65669D01*
X67353Y64963D01*
X67518Y64274D01*
X67789Y63620D01*
X68159Y63016D01*
X68196Y62973D01*
Y58365D01*
X68159Y58322D01*
X67789Y57718D01*
X67518Y57064D01*
X67353Y56375D01*
X67297Y55669D01*
X67353Y54963D01*
X67518Y54274D01*
X67789Y53620D01*
X68159Y53016D01*
X68196Y52973D01*
Y48365D01*
X68159Y48322D01*
X67789Y47718D01*
X67518Y47064D01*
X67353Y46375D01*
X67297Y45669D01*
X67353Y44963D01*
X67518Y44274D01*
X67789Y43620D01*
X68159Y43016D01*
X68196Y42973D01*
Y38365D01*
X68159Y38322D01*
X67789Y37718D01*
X67518Y37064D01*
X67353Y36375D01*
X67297Y35669D01*
X67353Y34963D01*
X67518Y34274D01*
X67789Y33620D01*
X68159Y33016D01*
X68196Y32973D01*
Y28365D01*
X68159Y28322D01*
X67789Y27718D01*
X67518Y27064D01*
X67353Y26375D01*
X67297Y25669D01*
X67353Y24963D01*
X67518Y24274D01*
X67789Y23620D01*
X68159Y23016D01*
X68196Y22973D01*
Y18365D01*
X68159Y18322D01*
X67789Y17718D01*
X67518Y17064D01*
X67353Y16375D01*
X67297Y15669D01*
X67353Y14963D01*
X67518Y14274D01*
X67789Y13620D01*
X68159Y13016D01*
X68196Y12973D01*
Y8365D01*
X68159Y8322D01*
X67789Y7718D01*
X67518Y7064D01*
X67353Y6375D01*
X67297Y5669D01*
X67353Y4963D01*
X67518Y4274D01*
X67789Y3620D01*
X68159Y3016D01*
X68196Y2973D01*
Y1968D01*
X64040D01*
Y23902D01*
X64353Y24658D01*
X65164Y28034D01*
X65368Y31496D01*
X65164Y34958D01*
X64353Y38334D01*
X64040Y39090D01*
Y160028D01*
X64172Y160441D01*
X64320Y161108D01*
X64407Y161785D01*
X64432Y162467D01*
X64395Y163149D01*
X64296Y163824D01*
X64136Y164488D01*
X64040Y164771D01*
Y187694D01*
X64109Y187708D01*
X64183Y187735D01*
X64252Y187774D01*
X64313Y187823D01*
X64366Y187881D01*
X64410Y187947D01*
X64441Y188019D01*
X64517Y188251D01*
X64570Y188490D01*
X64602Y188732D01*
X64612Y188976D01*
X64602Y189221D01*
X64570Y189463D01*
X64517Y189702D01*
X64443Y189935D01*
X64412Y190007D01*
X64368Y190073D01*
X64315Y190132D01*
X64253Y190181D01*
X64184Y190220D01*
X64110Y190247D01*
X64040Y190261D01*
Y193599D01*
X64109Y193613D01*
X64183Y193640D01*
X64252Y193679D01*
X64313Y193728D01*
X64366Y193786D01*
X64410Y193852D01*
X64441Y193924D01*
X64517Y194156D01*
X64570Y194395D01*
X64602Y194637D01*
X64612Y194881D01*
X64602Y195126D01*
X64570Y195368D01*
X64517Y195607D01*
X64443Y195840D01*
X64412Y195912D01*
X64368Y195978D01*
X64315Y196037D01*
X64253Y196086D01*
X64184Y196125D01*
X64110Y196152D01*
X64040Y196166D01*
Y199505D01*
X64109Y199519D01*
X64183Y199546D01*
X64252Y199585D01*
X64313Y199634D01*
X64366Y199692D01*
X64410Y199758D01*
X64441Y199830D01*
X64517Y200062D01*
X64570Y200301D01*
X64602Y200543D01*
X64612Y200787D01*
X64602Y201032D01*
X64570Y201274D01*
X64517Y201513D01*
X64443Y201746D01*
X64412Y201818D01*
X64368Y201884D01*
X64315Y201943D01*
X64253Y201992D01*
X64184Y202031D01*
X64110Y202058D01*
X64040Y202072D01*
Y205410D01*
X64109Y205424D01*
X64183Y205451D01*
X64252Y205490D01*
X64313Y205539D01*
X64366Y205597D01*
X64410Y205663D01*
X64441Y205735D01*
X64517Y205967D01*
X64570Y206206D01*
X64602Y206448D01*
X64612Y206692D01*
X64602Y206937D01*
X64570Y207179D01*
X64517Y207418D01*
X64443Y207651D01*
X64412Y207723D01*
X64368Y207789D01*
X64315Y207848D01*
X64253Y207897D01*
X64184Y207936D01*
X64110Y207963D01*
X64040Y207977D01*
Y217114D01*
X64172Y217527D01*
X64320Y218194D01*
X64407Y218871D01*
X64432Y219553D01*
X64395Y220235D01*
X64296Y220910D01*
X64136Y221574D01*
X64040Y221857D01*
Y226377D01*
G37*
G36*
Y1968D02*X61812D01*
Y19472D01*
X63024Y21450D01*
X64040Y23902D01*
Y1968D01*
G37*
G36*
X61812Y226377D02*X64040D01*
Y221857D01*
X63917Y222220D01*
X63640Y222844D01*
X63307Y223440D01*
X62921Y224003D01*
X62869Y224064D01*
X62808Y224115D01*
X62739Y224155D01*
X62665Y224184D01*
X62587Y224202D01*
X62507Y224206D01*
X62428Y224199D01*
X62351Y224179D01*
X62277Y224147D01*
X62210Y224104D01*
X62150Y224051D01*
X62099Y223990D01*
X62059Y223921D01*
X62030Y223847D01*
X62012Y223769D01*
X62008Y223689D01*
X62015Y223610D01*
X62035Y223533D01*
X62067Y223459D01*
X62111Y223393D01*
X62450Y222909D01*
X62738Y222393D01*
X62978Y221853D01*
X63168Y221294D01*
X63307Y220719D01*
X63392Y220134D01*
X63424Y219544D01*
X63403Y218954D01*
X63327Y218367D01*
X63199Y217791D01*
X63019Y217228D01*
X62788Y216684D01*
X62509Y216163D01*
X62184Y215669D01*
X62141Y215603D01*
X62111Y215530D01*
X62092Y215453D01*
X62086Y215375D01*
X62092Y215296D01*
X62111Y215220D01*
X62141Y215147D01*
X62182Y215080D01*
X62233Y215020D01*
X62293Y214969D01*
X62360Y214928D01*
X62433Y214898D01*
X62510Y214879D01*
X62588Y214873D01*
X62667Y214879D01*
X62743Y214898D01*
X62816Y214928D01*
X62883Y214969D01*
X62943Y215020D01*
X62993Y215081D01*
X63375Y215647D01*
X63697Y216249D01*
X63964Y216877D01*
X64040Y217114D01*
Y207977D01*
X64032Y207979D01*
X63953Y207983D01*
X63875Y207974D01*
X63798Y207952D01*
X63727Y207920D01*
X63661Y207876D01*
X63602Y207823D01*
X63553Y207761D01*
X63514Y207692D01*
X63487Y207618D01*
X63471Y207540D01*
X63467Y207461D01*
X63476Y207383D01*
X63499Y207307D01*
X63548Y207158D01*
X63582Y207005D01*
X63603Y206849D01*
X63610Y206692D01*
X63603Y206536D01*
X63582Y206380D01*
X63548Y206227D01*
X63501Y206077D01*
X63479Y206002D01*
X63470Y205923D01*
X63473Y205845D01*
X63489Y205768D01*
X63516Y205694D01*
X63555Y205625D01*
X63604Y205564D01*
X63662Y205511D01*
X63728Y205467D01*
X63799Y205435D01*
X63875Y205414D01*
X63954Y205405D01*
X64032Y205408D01*
X64040Y205410D01*
Y202072D01*
X64032Y202074D01*
X63953Y202078D01*
X63875Y202069D01*
X63798Y202047D01*
X63727Y202015D01*
X63661Y201971D01*
X63602Y201918D01*
X63553Y201856D01*
X63514Y201787D01*
X63487Y201713D01*
X63471Y201635D01*
X63467Y201556D01*
X63476Y201478D01*
X63499Y201402D01*
X63548Y201253D01*
X63582Y201100D01*
X63603Y200944D01*
X63610Y200787D01*
X63603Y200631D01*
X63582Y200475D01*
X63548Y200322D01*
X63501Y200172D01*
X63479Y200097D01*
X63470Y200018D01*
X63473Y199940D01*
X63489Y199863D01*
X63516Y199789D01*
X63555Y199720D01*
X63604Y199659D01*
X63662Y199606D01*
X63728Y199562D01*
X63799Y199530D01*
X63875Y199509D01*
X63954Y199500D01*
X64032Y199503D01*
X64040Y199505D01*
Y196166D01*
X64032Y196168D01*
X63953Y196172D01*
X63875Y196163D01*
X63798Y196141D01*
X63727Y196109D01*
X63661Y196065D01*
X63602Y196012D01*
X63553Y195950D01*
X63514Y195881D01*
X63487Y195807D01*
X63471Y195729D01*
X63467Y195650D01*
X63476Y195572D01*
X63499Y195496D01*
X63548Y195347D01*
X63582Y195194D01*
X63603Y195038D01*
X63610Y194881D01*
X63603Y194725D01*
X63582Y194569D01*
X63548Y194416D01*
X63501Y194266D01*
X63479Y194191D01*
X63470Y194112D01*
X63473Y194034D01*
X63489Y193957D01*
X63516Y193883D01*
X63555Y193814D01*
X63604Y193753D01*
X63662Y193700D01*
X63728Y193656D01*
X63799Y193624D01*
X63875Y193603D01*
X63954Y193594D01*
X64032Y193597D01*
X64040Y193599D01*
Y190261D01*
X64032Y190263D01*
X63953Y190267D01*
X63875Y190258D01*
X63798Y190236D01*
X63727Y190204D01*
X63661Y190160D01*
X63602Y190107D01*
X63553Y190045D01*
X63514Y189976D01*
X63487Y189902D01*
X63471Y189824D01*
X63467Y189745D01*
X63476Y189667D01*
X63499Y189591D01*
X63548Y189442D01*
X63582Y189289D01*
X63603Y189133D01*
X63610Y188976D01*
X63603Y188820D01*
X63582Y188664D01*
X63548Y188511D01*
X63501Y188361D01*
X63479Y188286D01*
X63470Y188207D01*
X63473Y188129D01*
X63489Y188052D01*
X63516Y187978D01*
X63555Y187909D01*
X63604Y187848D01*
X63662Y187795D01*
X63728Y187751D01*
X63799Y187719D01*
X63875Y187698D01*
X63954Y187689D01*
X64032Y187692D01*
X64040Y187694D01*
Y164771D01*
X63917Y165134D01*
X63640Y165758D01*
X63307Y166354D01*
X62921Y166917D01*
X62869Y166978D01*
X62808Y167029D01*
X62739Y167069D01*
X62665Y167098D01*
X62587Y167116D01*
X62507Y167120D01*
X62428Y167113D01*
X62351Y167093D01*
X62277Y167061D01*
X62210Y167018D01*
X62150Y166965D01*
X62099Y166904D01*
X62059Y166835D01*
X62030Y166761D01*
X62012Y166683D01*
X62008Y166603D01*
X62015Y166524D01*
X62035Y166447D01*
X62067Y166373D01*
X62111Y166307D01*
X62450Y165823D01*
X62738Y165307D01*
X62978Y164767D01*
X63168Y164208D01*
X63307Y163633D01*
X63392Y163048D01*
X63424Y162458D01*
X63403Y161868D01*
X63327Y161281D01*
X63199Y160705D01*
X63019Y160142D01*
X62788Y159598D01*
X62509Y159077D01*
X62184Y158583D01*
X62141Y158517D01*
X62111Y158444D01*
X62092Y158367D01*
X62086Y158289D01*
X62092Y158210D01*
X62111Y158134D01*
X62141Y158061D01*
X62182Y157994D01*
X62233Y157934D01*
X62293Y157883D01*
X62360Y157842D01*
X62433Y157812D01*
X62510Y157793D01*
X62588Y157787D01*
X62667Y157793D01*
X62743Y157812D01*
X62816Y157842D01*
X62883Y157883D01*
X62943Y157934D01*
X62993Y157995D01*
X63375Y158561D01*
X63697Y159163D01*
X63964Y159791D01*
X64040Y160028D01*
Y39090D01*
X63024Y41542D01*
X61812Y43520D01*
Y186175D01*
X62055Y186185D01*
X62297Y186217D01*
X62536Y186270D01*
X62769Y186344D01*
X62841Y186375D01*
X62907Y186419D01*
X62966Y186472D01*
X63015Y186534D01*
X63054Y186603D01*
X63081Y186677D01*
X63097Y186755D01*
X63101Y186834D01*
X63092Y186912D01*
X63070Y186989D01*
X63038Y187060D01*
X62994Y187126D01*
X62941Y187185D01*
X62879Y187234D01*
X62810Y187273D01*
X62736Y187300D01*
X62658Y187316D01*
X62579Y187320D01*
X62501Y187311D01*
X62425Y187288D01*
X62276Y187239D01*
X62123Y187205D01*
X61967Y187184D01*
X61812Y187177D01*
Y190775D01*
X61967Y190769D01*
X62123Y190748D01*
X62276Y190714D01*
X62426Y190667D01*
X62501Y190645D01*
X62580Y190636D01*
X62658Y190639D01*
X62735Y190655D01*
X62809Y190682D01*
X62878Y190721D01*
X62939Y190770D01*
X62992Y190828D01*
X63036Y190894D01*
X63068Y190965D01*
X63089Y191041D01*
X63098Y191120D01*
X63095Y191198D01*
X63079Y191275D01*
X63052Y191349D01*
X63013Y191418D01*
X62964Y191479D01*
X62906Y191532D01*
X62840Y191576D01*
X62768Y191607D01*
X62536Y191683D01*
X62297Y191736D01*
X62055Y191768D01*
X61812Y191778D01*
Y192080D01*
X62055Y192090D01*
X62297Y192122D01*
X62536Y192175D01*
X62769Y192249D01*
X62841Y192280D01*
X62907Y192324D01*
X62966Y192377D01*
X63015Y192439D01*
X63054Y192508D01*
X63081Y192582D01*
X63097Y192660D01*
X63101Y192739D01*
X63092Y192817D01*
X63070Y192894D01*
X63038Y192965D01*
X62994Y193031D01*
X62941Y193090D01*
X62879Y193139D01*
X62810Y193178D01*
X62736Y193205D01*
X62658Y193221D01*
X62579Y193225D01*
X62501Y193216D01*
X62425Y193193D01*
X62276Y193144D01*
X62123Y193110D01*
X61967Y193089D01*
X61812Y193082D01*
Y196680D01*
X61967Y196674D01*
X62123Y196653D01*
X62276Y196619D01*
X62426Y196572D01*
X62501Y196550D01*
X62580Y196541D01*
X62658Y196544D01*
X62735Y196560D01*
X62809Y196587D01*
X62878Y196626D01*
X62939Y196675D01*
X62992Y196733D01*
X63036Y196799D01*
X63068Y196870D01*
X63089Y196946D01*
X63098Y197025D01*
X63095Y197103D01*
X63079Y197180D01*
X63052Y197254D01*
X63013Y197323D01*
X62964Y197384D01*
X62906Y197437D01*
X62840Y197481D01*
X62768Y197512D01*
X62536Y197588D01*
X62297Y197641D01*
X62055Y197673D01*
X61812Y197683D01*
Y197986D01*
X62055Y197996D01*
X62297Y198028D01*
X62536Y198081D01*
X62769Y198155D01*
X62841Y198186D01*
X62907Y198230D01*
X62966Y198283D01*
X63015Y198345D01*
X63054Y198414D01*
X63081Y198488D01*
X63097Y198566D01*
X63101Y198645D01*
X63092Y198723D01*
X63070Y198800D01*
X63038Y198871D01*
X62994Y198937D01*
X62941Y198996D01*
X62879Y199045D01*
X62810Y199084D01*
X62736Y199111D01*
X62658Y199127D01*
X62579Y199131D01*
X62501Y199122D01*
X62425Y199099D01*
X62276Y199050D01*
X62123Y199016D01*
X61967Y198995D01*
X61812Y198988D01*
Y202586D01*
X61967Y202580D01*
X62123Y202559D01*
X62276Y202525D01*
X62426Y202478D01*
X62501Y202456D01*
X62580Y202447D01*
X62658Y202450D01*
X62735Y202466D01*
X62809Y202493D01*
X62878Y202532D01*
X62939Y202581D01*
X62992Y202639D01*
X63036Y202705D01*
X63068Y202776D01*
X63089Y202852D01*
X63098Y202931D01*
X63095Y203009D01*
X63079Y203086D01*
X63052Y203160D01*
X63013Y203229D01*
X62964Y203290D01*
X62906Y203343D01*
X62840Y203387D01*
X62768Y203418D01*
X62536Y203494D01*
X62297Y203547D01*
X62055Y203579D01*
X61812Y203589D01*
Y203891D01*
X62055Y203901D01*
X62297Y203933D01*
X62536Y203986D01*
X62769Y204060D01*
X62841Y204091D01*
X62907Y204135D01*
X62966Y204188D01*
X63015Y204250D01*
X63054Y204319D01*
X63081Y204393D01*
X63097Y204471D01*
X63101Y204550D01*
X63092Y204628D01*
X63070Y204705D01*
X63038Y204776D01*
X62994Y204842D01*
X62941Y204901D01*
X62879Y204950D01*
X62810Y204989D01*
X62736Y205016D01*
X62658Y205032D01*
X62579Y205036D01*
X62501Y205027D01*
X62425Y205004D01*
X62276Y204955D01*
X62123Y204921D01*
X61967Y204900D01*
X61812Y204893D01*
Y208491D01*
X61967Y208485D01*
X62123Y208464D01*
X62276Y208430D01*
X62426Y208383D01*
X62501Y208361D01*
X62580Y208352D01*
X62658Y208355D01*
X62735Y208371D01*
X62809Y208398D01*
X62878Y208437D01*
X62939Y208486D01*
X62992Y208544D01*
X63036Y208610D01*
X63068Y208681D01*
X63089Y208757D01*
X63098Y208836D01*
X63095Y208914D01*
X63079Y208991D01*
X63052Y209065D01*
X63013Y209134D01*
X62964Y209195D01*
X62906Y209248D01*
X62840Y209292D01*
X62768Y209323D01*
X62536Y209399D01*
X62297Y209452D01*
X62055Y209484D01*
X61812Y209494D01*
Y226377D01*
G37*
G36*
Y1968D02*X40615D01*
Y9579D01*
X43307Y9367D01*
X46769Y9639D01*
X50145Y10450D01*
X53353Y11779D01*
X56314Y13593D01*
X58955Y15848D01*
X61210Y18489D01*
X61812Y19472D01*
Y1968D01*
G37*
G36*
X59582Y225411D02*X59732Y225347D01*
X60253Y225068D01*
X60747Y224743D01*
X60813Y224700D01*
X60886Y224670D01*
X60963Y224651D01*
X61041Y224645D01*
X61120Y224651D01*
X61196Y224670D01*
X61269Y224700D01*
X61336Y224741D01*
X61396Y224792D01*
X61447Y224852D01*
X61488Y224919D01*
X61518Y224992D01*
X61537Y225069D01*
X61543Y225147D01*
X61537Y225226D01*
X61518Y225302D01*
X61488Y225375D01*
X61447Y225442D01*
X61396Y225502D01*
X61335Y225552D01*
X60769Y225934D01*
X60167Y226256D01*
X59882Y226377D01*
X61812D01*
Y209494D01*
X61811D01*
X61566Y209484D01*
X61324Y209452D01*
X61085Y209399D01*
X60852Y209325D01*
X60780Y209294D01*
X60714Y209250D01*
X60655Y209197D01*
X60606Y209135D01*
X60567Y209066D01*
X60540Y208992D01*
X60524Y208914D01*
X60520Y208835D01*
X60529Y208757D01*
X60551Y208680D01*
X60583Y208609D01*
X60627Y208543D01*
X60680Y208484D01*
X60742Y208435D01*
X60811Y208396D01*
X60885Y208369D01*
X60963Y208353D01*
X61042Y208349D01*
X61120Y208358D01*
X61196Y208381D01*
X61345Y208430D01*
X61498Y208464D01*
X61654Y208485D01*
X61811Y208491D01*
X61812D01*
Y204893D01*
X61811D01*
X61654Y204900D01*
X61498Y204921D01*
X61345Y204955D01*
X61195Y205002D01*
X61120Y205024D01*
X61041Y205033D01*
X60963Y205030D01*
X60886Y205014D01*
X60812Y204987D01*
X60743Y204948D01*
X60682Y204899D01*
X60629Y204841D01*
X60585Y204775D01*
X60553Y204704D01*
X60532Y204628D01*
X60523Y204549D01*
X60526Y204471D01*
X60542Y204394D01*
X60569Y204320D01*
X60608Y204251D01*
X60657Y204190D01*
X60715Y204137D01*
X60781Y204093D01*
X60853Y204062D01*
X61085Y203986D01*
X61324Y203933D01*
X61566Y203901D01*
X61811Y203891D01*
X61812D01*
Y203589D01*
X61811D01*
X61566Y203579D01*
X61324Y203547D01*
X61085Y203494D01*
X60852Y203420D01*
X60780Y203389D01*
X60714Y203345D01*
X60655Y203292D01*
X60606Y203230D01*
X60567Y203161D01*
X60540Y203087D01*
X60524Y203009D01*
X60520Y202930D01*
X60529Y202852D01*
X60551Y202775D01*
X60583Y202704D01*
X60627Y202638D01*
X60680Y202579D01*
X60742Y202530D01*
X60811Y202491D01*
X60885Y202464D01*
X60963Y202448D01*
X61042Y202444D01*
X61120Y202453D01*
X61196Y202476D01*
X61345Y202525D01*
X61498Y202559D01*
X61654Y202580D01*
X61811Y202586D01*
X61812D01*
Y198988D01*
X61811D01*
X61654Y198995D01*
X61498Y199016D01*
X61345Y199050D01*
X61195Y199097D01*
X61120Y199119D01*
X61041Y199128D01*
X60963Y199125D01*
X60886Y199109D01*
X60812Y199082D01*
X60743Y199043D01*
X60682Y198994D01*
X60629Y198936D01*
X60585Y198870D01*
X60553Y198799D01*
X60532Y198723D01*
X60523Y198644D01*
X60526Y198566D01*
X60542Y198489D01*
X60569Y198415D01*
X60608Y198346D01*
X60657Y198285D01*
X60715Y198232D01*
X60781Y198188D01*
X60853Y198157D01*
X61085Y198081D01*
X61324Y198028D01*
X61566Y197996D01*
X61811Y197986D01*
X61812D01*
Y197683D01*
X61811D01*
X61566Y197673D01*
X61324Y197641D01*
X61085Y197588D01*
X60852Y197514D01*
X60780Y197483D01*
X60714Y197439D01*
X60655Y197386D01*
X60606Y197324D01*
X60567Y197255D01*
X60540Y197181D01*
X60524Y197103D01*
X60520Y197024D01*
X60529Y196946D01*
X60551Y196869D01*
X60583Y196798D01*
X60627Y196732D01*
X60680Y196673D01*
X60742Y196624D01*
X60811Y196585D01*
X60885Y196558D01*
X60963Y196542D01*
X61042Y196538D01*
X61120Y196547D01*
X61196Y196570D01*
X61345Y196619D01*
X61498Y196653D01*
X61654Y196674D01*
X61811Y196680D01*
X61812D01*
Y193082D01*
X61811D01*
X61654Y193089D01*
X61498Y193110D01*
X61345Y193144D01*
X61195Y193191D01*
X61120Y193213D01*
X61041Y193222D01*
X60963Y193219D01*
X60886Y193203D01*
X60812Y193176D01*
X60743Y193137D01*
X60682Y193088D01*
X60629Y193030D01*
X60585Y192964D01*
X60553Y192893D01*
X60532Y192817D01*
X60523Y192738D01*
X60526Y192660D01*
X60542Y192583D01*
X60569Y192509D01*
X60608Y192440D01*
X60657Y192379D01*
X60715Y192326D01*
X60781Y192282D01*
X60853Y192251D01*
X61085Y192175D01*
X61324Y192122D01*
X61566Y192090D01*
X61811Y192080D01*
X61812D01*
Y191778D01*
X61811D01*
X61566Y191768D01*
X61324Y191736D01*
X61085Y191683D01*
X60852Y191609D01*
X60780Y191578D01*
X60714Y191534D01*
X60655Y191481D01*
X60606Y191419D01*
X60567Y191350D01*
X60540Y191276D01*
X60524Y191198D01*
X60520Y191119D01*
X60529Y191041D01*
X60551Y190964D01*
X60583Y190893D01*
X60627Y190827D01*
X60680Y190768D01*
X60742Y190719D01*
X60811Y190680D01*
X60885Y190653D01*
X60963Y190637D01*
X61042Y190633D01*
X61120Y190642D01*
X61196Y190665D01*
X61345Y190714D01*
X61498Y190748D01*
X61654Y190769D01*
X61811Y190775D01*
X61812D01*
Y187177D01*
X61811D01*
X61654Y187184D01*
X61498Y187205D01*
X61345Y187239D01*
X61195Y187286D01*
X61120Y187308D01*
X61041Y187317D01*
X60963Y187314D01*
X60886Y187298D01*
X60812Y187271D01*
X60743Y187232D01*
X60682Y187183D01*
X60629Y187125D01*
X60585Y187059D01*
X60553Y186988D01*
X60532Y186912D01*
X60523Y186833D01*
X60526Y186755D01*
X60542Y186678D01*
X60569Y186604D01*
X60608Y186535D01*
X60657Y186474D01*
X60715Y186421D01*
X60781Y186377D01*
X60853Y186346D01*
X61085Y186270D01*
X61324Y186217D01*
X61566Y186185D01*
X61811Y186175D01*
X61812D01*
Y43520D01*
X61210Y44503D01*
X59582Y46410D01*
Y155386D01*
X59661Y155413D01*
X60285Y155690D01*
X60881Y156023D01*
X61444Y156409D01*
X61505Y156461D01*
X61556Y156522D01*
X61596Y156591D01*
X61625Y156665D01*
X61643Y156743D01*
X61647Y156823D01*
X61640Y156902D01*
X61620Y156979D01*
X61588Y157053D01*
X61545Y157120D01*
X61492Y157180D01*
X61431Y157231D01*
X61362Y157271D01*
X61288Y157300D01*
X61210Y157318D01*
X61130Y157322D01*
X61051Y157315D01*
X60974Y157295D01*
X60900Y157263D01*
X60834Y157219D01*
X60350Y156880D01*
X59834Y156592D01*
X59582Y156480D01*
Y168325D01*
X59732Y168261D01*
X60253Y167982D01*
X60747Y167657D01*
X60813Y167614D01*
X60886Y167584D01*
X60963Y167565D01*
X61041Y167559D01*
X61120Y167565D01*
X61196Y167584D01*
X61269Y167614D01*
X61336Y167655D01*
X61396Y167706D01*
X61447Y167766D01*
X61488Y167833D01*
X61518Y167906D01*
X61537Y167983D01*
X61543Y168061D01*
X61537Y168140D01*
X61518Y168216D01*
X61488Y168289D01*
X61447Y168356D01*
X61396Y168416D01*
X61335Y168466D01*
X60769Y168848D01*
X60167Y169170D01*
X59582Y169419D01*
Y187691D01*
X59589Y187690D01*
X59668Y187686D01*
X59746Y187695D01*
X59823Y187717D01*
X59894Y187749D01*
X59960Y187793D01*
X60019Y187846D01*
X60068Y187908D01*
X60107Y187977D01*
X60134Y188051D01*
X60150Y188129D01*
X60154Y188208D01*
X60145Y188286D01*
X60122Y188362D01*
X60073Y188511D01*
X60039Y188664D01*
X60018Y188820D01*
X60012Y188976D01*
X60018Y189133D01*
X60039Y189289D01*
X60073Y189442D01*
X60120Y189592D01*
X60142Y189667D01*
X60151Y189746D01*
X60148Y189824D01*
X60132Y189901D01*
X60105Y189975D01*
X60066Y190044D01*
X60017Y190105D01*
X59959Y190158D01*
X59893Y190202D01*
X59822Y190234D01*
X59746Y190255D01*
X59667Y190264D01*
X59589Y190261D01*
X59582Y190260D01*
Y193596D01*
X59589Y193595D01*
X59668Y193591D01*
X59746Y193600D01*
X59823Y193622D01*
X59894Y193654D01*
X59960Y193698D01*
X60019Y193751D01*
X60068Y193813D01*
X60107Y193882D01*
X60134Y193956D01*
X60150Y194034D01*
X60154Y194113D01*
X60145Y194191D01*
X60122Y194267D01*
X60073Y194416D01*
X60039Y194569D01*
X60018Y194725D01*
X60012Y194881D01*
X60018Y195038D01*
X60039Y195194D01*
X60073Y195347D01*
X60120Y195497D01*
X60142Y195572D01*
X60151Y195651D01*
X60148Y195729D01*
X60132Y195806D01*
X60105Y195880D01*
X60066Y195949D01*
X60017Y196010D01*
X59959Y196063D01*
X59893Y196107D01*
X59822Y196139D01*
X59746Y196160D01*
X59667Y196169D01*
X59589Y196166D01*
X59582Y196165D01*
Y199502D01*
X59589Y199501D01*
X59668Y199497D01*
X59746Y199506D01*
X59823Y199528D01*
X59894Y199560D01*
X59960Y199604D01*
X60019Y199657D01*
X60068Y199719D01*
X60107Y199788D01*
X60134Y199862D01*
X60150Y199940D01*
X60154Y200019D01*
X60145Y200097D01*
X60122Y200173D01*
X60073Y200322D01*
X60039Y200475D01*
X60018Y200631D01*
X60012Y200787D01*
X60018Y200944D01*
X60039Y201100D01*
X60073Y201253D01*
X60120Y201403D01*
X60142Y201478D01*
X60151Y201557D01*
X60148Y201635D01*
X60132Y201712D01*
X60105Y201786D01*
X60066Y201855D01*
X60017Y201916D01*
X59959Y201969D01*
X59893Y202013D01*
X59822Y202045D01*
X59746Y202066D01*
X59667Y202075D01*
X59589Y202072D01*
X59582Y202071D01*
Y205407D01*
X59589Y205406D01*
X59668Y205402D01*
X59746Y205411D01*
X59823Y205433D01*
X59894Y205465D01*
X59960Y205509D01*
X60019Y205562D01*
X60068Y205624D01*
X60107Y205693D01*
X60134Y205767D01*
X60150Y205845D01*
X60154Y205924D01*
X60145Y206002D01*
X60122Y206078D01*
X60073Y206227D01*
X60039Y206380D01*
X60018Y206536D01*
X60012Y206692D01*
X60018Y206849D01*
X60039Y207005D01*
X60073Y207158D01*
X60120Y207308D01*
X60142Y207383D01*
X60151Y207462D01*
X60148Y207540D01*
X60132Y207617D01*
X60105Y207691D01*
X60066Y207760D01*
X60017Y207821D01*
X59959Y207874D01*
X59893Y207918D01*
X59822Y207950D01*
X59746Y207971D01*
X59667Y207980D01*
X59589Y207977D01*
X59582Y207976D01*
Y212472D01*
X59661Y212499D01*
X60285Y212776D01*
X60881Y213109D01*
X61444Y213495D01*
X61505Y213547D01*
X61556Y213608D01*
X61596Y213677D01*
X61625Y213751D01*
X61643Y213829D01*
X61647Y213909D01*
X61640Y213988D01*
X61620Y214065D01*
X61588Y214139D01*
X61545Y214206D01*
X61492Y214266D01*
X61431Y214317D01*
X61362Y214357D01*
X61288Y214386D01*
X61210Y214404D01*
X61130Y214408D01*
X61051Y214401D01*
X60974Y214381D01*
X60900Y214349D01*
X60834Y214305D01*
X60350Y213966D01*
X59834Y213678D01*
X59582Y213566D01*
Y225411D01*
G37*
G36*
X50637Y226377D02*X53973D01*
X53572Y226199D01*
X52976Y225866D01*
X52413Y225480D01*
X52352Y225428D01*
X52301Y225367D01*
X52261Y225298D01*
X52232Y225224D01*
X52214Y225146D01*
X52210Y225066D01*
X52217Y224987D01*
X52237Y224910D01*
X52269Y224836D01*
X52312Y224769D01*
X52365Y224709D01*
X52426Y224658D01*
X52495Y224618D01*
X52569Y224589D01*
X52647Y224571D01*
X52727Y224567D01*
X52806Y224574D01*
X52883Y224594D01*
X52957Y224626D01*
X53023Y224670D01*
X53507Y225009D01*
X54023Y225297D01*
X54563Y225537D01*
X55122Y225727D01*
X55697Y225866D01*
X56282Y225951D01*
X56872Y225983D01*
X57462Y225962D01*
X58049Y225886D01*
X58625Y225758D01*
X59188Y225578D01*
X59582Y225411D01*
Y213566D01*
X59294Y213438D01*
X58735Y213248D01*
X58160Y213109D01*
X57575Y213024D01*
X56985Y212992D01*
X56395Y213013D01*
X55808Y213089D01*
X55232Y213217D01*
X54669Y213397D01*
X54125Y213628D01*
X53604Y213907D01*
X53110Y214232D01*
X53044Y214275D01*
X52971Y214305D01*
X52894Y214324D01*
X52816Y214330D01*
X52737Y214324D01*
X52661Y214305D01*
X52588Y214275D01*
X52521Y214234D01*
X52461Y214183D01*
X52410Y214123D01*
X52369Y214056D01*
X52339Y213983D01*
X52320Y213906D01*
X52314Y213828D01*
X52320Y213749D01*
X52339Y213673D01*
X52369Y213600D01*
X52410Y213533D01*
X52461Y213473D01*
X52522Y213423D01*
X53088Y213041D01*
X53690Y212719D01*
X54318Y212452D01*
X54968Y212244D01*
X55635Y212096D01*
X56312Y212009D01*
X56994Y211984D01*
X57676Y212021D01*
X58351Y212120D01*
X59015Y212280D01*
X59582Y212472D01*
Y207976D01*
X59512Y207961D01*
X59438Y207934D01*
X59369Y207895D01*
X59308Y207846D01*
X59255Y207788D01*
X59211Y207722D01*
X59180Y207650D01*
X59104Y207418D01*
X59051Y207179D01*
X59019Y206937D01*
X59009Y206692D01*
X59019Y206448D01*
X59051Y206206D01*
X59104Y205967D01*
X59178Y205734D01*
X59209Y205662D01*
X59253Y205596D01*
X59306Y205537D01*
X59368Y205488D01*
X59437Y205449D01*
X59511Y205422D01*
X59582Y205407D01*
Y202071D01*
X59512Y202056D01*
X59438Y202029D01*
X59369Y201990D01*
X59308Y201941D01*
X59255Y201883D01*
X59211Y201817D01*
X59180Y201745D01*
X59104Y201513D01*
X59051Y201274D01*
X59019Y201032D01*
X59009Y200787D01*
X59019Y200543D01*
X59051Y200301D01*
X59104Y200062D01*
X59178Y199829D01*
X59209Y199757D01*
X59253Y199691D01*
X59306Y199632D01*
X59368Y199583D01*
X59437Y199544D01*
X59511Y199517D01*
X59582Y199502D01*
Y196165D01*
X59512Y196150D01*
X59438Y196123D01*
X59369Y196084D01*
X59308Y196035D01*
X59255Y195977D01*
X59211Y195911D01*
X59180Y195839D01*
X59104Y195607D01*
X59051Y195368D01*
X59019Y195126D01*
X59009Y194881D01*
X59019Y194637D01*
X59051Y194395D01*
X59104Y194156D01*
X59178Y193923D01*
X59209Y193851D01*
X59253Y193785D01*
X59306Y193726D01*
X59368Y193677D01*
X59437Y193638D01*
X59511Y193611D01*
X59582Y193596D01*
Y190260D01*
X59512Y190245D01*
X59438Y190218D01*
X59369Y190179D01*
X59308Y190130D01*
X59255Y190072D01*
X59211Y190006D01*
X59180Y189934D01*
X59104Y189702D01*
X59051Y189463D01*
X59019Y189221D01*
X59009Y188976D01*
X59019Y188732D01*
X59051Y188490D01*
X59104Y188251D01*
X59178Y188018D01*
X59209Y187946D01*
X59253Y187880D01*
X59306Y187821D01*
X59368Y187772D01*
X59437Y187733D01*
X59511Y187706D01*
X59582Y187691D01*
Y169419D01*
X59539Y169437D01*
X58889Y169645D01*
X58222Y169793D01*
X57545Y169880D01*
X56863Y169905D01*
X56181Y169868D01*
X55506Y169769D01*
X54842Y169609D01*
X54196Y169390D01*
X53572Y169113D01*
X52976Y168780D01*
X52413Y168394D01*
X52352Y168342D01*
X52301Y168281D01*
X52261Y168212D01*
X52232Y168138D01*
X52214Y168060D01*
X52210Y167980D01*
X52217Y167901D01*
X52237Y167824D01*
X52269Y167750D01*
X52312Y167683D01*
X52365Y167623D01*
X52426Y167572D01*
X52495Y167532D01*
X52569Y167503D01*
X52647Y167485D01*
X52727Y167481D01*
X52806Y167488D01*
X52883Y167508D01*
X52957Y167540D01*
X53023Y167584D01*
X53507Y167923D01*
X54023Y168211D01*
X54563Y168451D01*
X55122Y168641D01*
X55697Y168780D01*
X56282Y168865D01*
X56872Y168897D01*
X57462Y168876D01*
X58049Y168800D01*
X58625Y168672D01*
X59188Y168492D01*
X59582Y168325D01*
Y156480D01*
X59294Y156352D01*
X58735Y156162D01*
X58160Y156023D01*
X57575Y155938D01*
X56985Y155906D01*
X56395Y155927D01*
X55808Y156003D01*
X55232Y156131D01*
X54669Y156311D01*
X54125Y156542D01*
X53604Y156821D01*
X53110Y157146D01*
X53044Y157189D01*
X52971Y157219D01*
X52894Y157238D01*
X52816Y157244D01*
X52737Y157238D01*
X52661Y157219D01*
X52588Y157189D01*
X52521Y157148D01*
X52461Y157097D01*
X52410Y157037D01*
X52369Y156970D01*
X52339Y156897D01*
X52320Y156820D01*
X52314Y156742D01*
X52320Y156663D01*
X52339Y156587D01*
X52369Y156514D01*
X52410Y156447D01*
X52461Y156387D01*
X52522Y156337D01*
X53088Y155955D01*
X53690Y155633D01*
X54318Y155366D01*
X54968Y155158D01*
X55635Y155010D01*
X56312Y154923D01*
X56994Y154898D01*
X57676Y154935D01*
X58351Y155034D01*
X59015Y155194D01*
X59582Y155386D01*
Y46410D01*
X58955Y47144D01*
X56314Y49399D01*
X53353Y51213D01*
X50637Y52338D01*
Y158322D01*
X50936Y157886D01*
X50988Y157825D01*
X51049Y157774D01*
X51118Y157734D01*
X51192Y157705D01*
X51270Y157687D01*
X51350Y157683D01*
X51429Y157690D01*
X51506Y157710D01*
X51580Y157742D01*
X51647Y157785D01*
X51707Y157838D01*
X51758Y157899D01*
X51798Y157968D01*
X51827Y158042D01*
X51845Y158120D01*
X51849Y158200D01*
X51842Y158279D01*
X51822Y158356D01*
X51790Y158430D01*
X51746Y158496D01*
X51407Y158980D01*
X51119Y159496D01*
X50879Y160036D01*
X50689Y160595D01*
X50637Y160810D01*
Y164003D01*
X50658Y164098D01*
X50838Y164661D01*
X51069Y165205D01*
X51348Y165726D01*
X51673Y166220D01*
X51716Y166286D01*
X51746Y166359D01*
X51765Y166436D01*
X51771Y166514D01*
X51765Y166593D01*
X51746Y166669D01*
X51716Y166742D01*
X51675Y166809D01*
X51624Y166869D01*
X51564Y166920D01*
X51497Y166961D01*
X51424Y166991D01*
X51347Y167010D01*
X51269Y167016D01*
X51190Y167010D01*
X51114Y166991D01*
X51041Y166961D01*
X50974Y166920D01*
X50914Y166869D01*
X50864Y166808D01*
X50637Y166472D01*
Y215408D01*
X50936Y214972D01*
X50988Y214911D01*
X51049Y214860D01*
X51118Y214820D01*
X51192Y214791D01*
X51270Y214773D01*
X51350Y214769D01*
X51429Y214776D01*
X51506Y214796D01*
X51580Y214828D01*
X51647Y214871D01*
X51707Y214924D01*
X51758Y214985D01*
X51798Y215054D01*
X51827Y215128D01*
X51845Y215206D01*
X51849Y215286D01*
X51842Y215365D01*
X51822Y215442D01*
X51790Y215516D01*
X51746Y215582D01*
X51407Y216066D01*
X51119Y216582D01*
X50879Y217122D01*
X50689Y217681D01*
X50637Y217896D01*
Y221089D01*
X50658Y221184D01*
X50838Y221747D01*
X51069Y222291D01*
X51348Y222812D01*
X51673Y223306D01*
X51716Y223372D01*
X51746Y223445D01*
X51765Y223522D01*
X51771Y223600D01*
X51765Y223679D01*
X51746Y223755D01*
X51716Y223828D01*
X51675Y223895D01*
X51624Y223955D01*
X51564Y224006D01*
X51497Y224047D01*
X51424Y224077D01*
X51347Y224096D01*
X51269Y224102D01*
X51190Y224096D01*
X51114Y224077D01*
X51041Y224047D01*
X50974Y224006D01*
X50914Y223955D01*
X50864Y223894D01*
X50637Y223558D01*
Y226377D01*
G37*
G36*
Y217896D02*X50550Y218256D01*
X50465Y218841D01*
X50433Y219431D01*
X50454Y220021D01*
X50530Y220608D01*
X50637Y221089D01*
Y217896D01*
G37*
G36*
Y160810D02*X50550Y161170D01*
X50465Y161755D01*
X50433Y162345D01*
X50454Y162935D01*
X50530Y163522D01*
X50637Y164003D01*
Y160810D01*
G37*
G36*
X40615Y226377D02*X50637D01*
Y223558D01*
X50482Y223328D01*
X50160Y222726D01*
X49893Y222098D01*
X49685Y221448D01*
X49537Y220781D01*
X49450Y220104D01*
X49425Y219422D01*
X49462Y218740D01*
X49561Y218065D01*
X49721Y217401D01*
X49940Y216755D01*
X50217Y216131D01*
X50550Y215535D01*
X50637Y215408D01*
Y166472D01*
X50482Y166242D01*
X50160Y165640D01*
X49893Y165012D01*
X49685Y164362D01*
X49537Y163695D01*
X49450Y163018D01*
X49425Y162336D01*
X49462Y161654D01*
X49561Y160979D01*
X49721Y160315D01*
X49940Y159669D01*
X50217Y159045D01*
X50550Y158449D01*
X50637Y158322D01*
Y52338D01*
X50145Y52542D01*
X46769Y53353D01*
X43307Y53625D01*
X40615Y53413D01*
Y77458D01*
X40684Y77472D01*
X40758Y77499D01*
X40827Y77538D01*
X40888Y77587D01*
X40941Y77645D01*
X40985Y77711D01*
X41016Y77783D01*
X41092Y78015D01*
X41145Y78254D01*
X41177Y78496D01*
X41187Y78740D01*
X41177Y78985D01*
X41145Y79227D01*
X41092Y79466D01*
X41018Y79699D01*
X40987Y79771D01*
X40943Y79837D01*
X40890Y79896D01*
X40828Y79945D01*
X40759Y79984D01*
X40685Y80011D01*
X40615Y80025D01*
Y226377D01*
G37*
G36*
Y1968D02*X38387D01*
Y9989D01*
X39845Y9639D01*
X40615Y9579D01*
Y1968D01*
G37*
G36*
X38387Y226377D02*X40615D01*
Y80025D01*
X40607Y80027D01*
X40528Y80031D01*
X40450Y80022D01*
X40373Y80000D01*
X40302Y79968D01*
X40236Y79924D01*
X40177Y79871D01*
X40128Y79809D01*
X40089Y79740D01*
X40062Y79666D01*
X40046Y79588D01*
X40042Y79509D01*
X40051Y79431D01*
X40074Y79355D01*
X40123Y79206D01*
X40157Y79053D01*
X40178Y78897D01*
X40185Y78740D01*
X40178Y78584D01*
X40157Y78428D01*
X40123Y78275D01*
X40076Y78125D01*
X40054Y78050D01*
X40045Y77971D01*
X40048Y77893D01*
X40064Y77816D01*
X40091Y77742D01*
X40130Y77673D01*
X40179Y77612D01*
X40237Y77559D01*
X40303Y77515D01*
X40374Y77483D01*
X40450Y77462D01*
X40529Y77453D01*
X40607Y77456D01*
X40615Y77458D01*
Y53413D01*
X39845Y53353D01*
X38387Y53003D01*
Y75939D01*
X38630Y75949D01*
X38872Y75981D01*
X39111Y76034D01*
X39344Y76108D01*
X39416Y76139D01*
X39482Y76183D01*
X39541Y76236D01*
X39590Y76298D01*
X39629Y76367D01*
X39656Y76441D01*
X39672Y76519D01*
X39676Y76598D01*
X39667Y76676D01*
X39645Y76753D01*
X39613Y76824D01*
X39569Y76890D01*
X39516Y76949D01*
X39454Y76998D01*
X39385Y77037D01*
X39311Y77064D01*
X39233Y77080D01*
X39154Y77084D01*
X39076Y77075D01*
X39000Y77052D01*
X38851Y77003D01*
X38698Y76969D01*
X38542Y76948D01*
X38387Y76941D01*
Y80539D01*
X38542Y80533D01*
X38698Y80512D01*
X38851Y80478D01*
X39001Y80431D01*
X39076Y80409D01*
X39155Y80400D01*
X39233Y80403D01*
X39310Y80419D01*
X39384Y80446D01*
X39453Y80485D01*
X39514Y80534D01*
X39567Y80592D01*
X39611Y80658D01*
X39643Y80729D01*
X39664Y80805D01*
X39673Y80884D01*
X39670Y80962D01*
X39654Y81039D01*
X39627Y81113D01*
X39588Y81182D01*
X39539Y81243D01*
X39481Y81296D01*
X39415Y81340D01*
X39343Y81371D01*
X39111Y81447D01*
X38872Y81500D01*
X38630Y81532D01*
X38387Y81542D01*
Y226377D01*
G37*
G36*
Y1968D02*X28048D01*
Y15516D01*
X30300Y13593D01*
X33261Y11779D01*
X36469Y10450D01*
X38387Y9989D01*
Y1968D01*
G37*
G36*
X36157Y226377D02*X38387D01*
Y81542D01*
X38386D01*
X38141Y81532D01*
X37899Y81500D01*
X37660Y81447D01*
X37427Y81373D01*
X37355Y81342D01*
X37289Y81298D01*
X37230Y81245D01*
X37181Y81183D01*
X37142Y81114D01*
X37115Y81040D01*
X37099Y80962D01*
X37095Y80883D01*
X37104Y80805D01*
X37126Y80728D01*
X37158Y80657D01*
X37202Y80591D01*
X37255Y80532D01*
X37317Y80483D01*
X37386Y80444D01*
X37460Y80417D01*
X37538Y80401D01*
X37617Y80397D01*
X37695Y80406D01*
X37771Y80429D01*
X37920Y80478D01*
X38073Y80512D01*
X38229Y80533D01*
X38386Y80539D01*
X38387D01*
Y76941D01*
X38386D01*
X38229Y76948D01*
X38073Y76969D01*
X37920Y77003D01*
X37770Y77050D01*
X37695Y77072D01*
X37616Y77081D01*
X37538Y77078D01*
X37461Y77062D01*
X37387Y77035D01*
X37318Y76996D01*
X37257Y76947D01*
X37204Y76889D01*
X37160Y76823D01*
X37128Y76752D01*
X37107Y76676D01*
X37098Y76597D01*
X37101Y76519D01*
X37117Y76442D01*
X37144Y76368D01*
X37183Y76299D01*
X37232Y76238D01*
X37290Y76185D01*
X37356Y76141D01*
X37428Y76110D01*
X37660Y76034D01*
X37899Y75981D01*
X38141Y75949D01*
X38386Y75939D01*
X38387D01*
Y53003D01*
X36469Y52542D01*
X36157Y52413D01*
Y77455D01*
X36164Y77454D01*
X36243Y77450D01*
X36321Y77459D01*
X36398Y77481D01*
X36469Y77513D01*
X36535Y77557D01*
X36594Y77610D01*
X36643Y77672D01*
X36682Y77741D01*
X36709Y77815D01*
X36725Y77893D01*
X36729Y77972D01*
X36720Y78050D01*
X36697Y78126D01*
X36648Y78275D01*
X36614Y78428D01*
X36593Y78584D01*
X36587Y78740D01*
X36593Y78897D01*
X36614Y79053D01*
X36648Y79206D01*
X36695Y79356D01*
X36717Y79431D01*
X36726Y79510D01*
X36723Y79588D01*
X36707Y79665D01*
X36680Y79739D01*
X36641Y79808D01*
X36592Y79869D01*
X36534Y79922D01*
X36468Y79966D01*
X36397Y79998D01*
X36321Y80019D01*
X36242Y80028D01*
X36164Y80025D01*
X36157Y80024D01*
Y226377D01*
G37*
G36*
X30694Y101190D02*X30829Y101075D01*
X30979Y100983D01*
Y94125D01*
X30694Y93840D01*
Y101190D01*
G37*
G36*
Y226377D02*X36157D01*
Y80024D01*
X36087Y80009D01*
X36013Y79982D01*
X35944Y79943D01*
X35883Y79894D01*
X35830Y79836D01*
X35786Y79770D01*
X35755Y79698D01*
X35679Y79466D01*
X35626Y79227D01*
X35594Y78985D01*
X35584Y78740D01*
X35594Y78496D01*
X35626Y78254D01*
X35679Y78015D01*
X35753Y77782D01*
X35784Y77710D01*
X35828Y77644D01*
X35881Y77585D01*
X35943Y77536D01*
X36012Y77497D01*
X36086Y77470D01*
X36157Y77455D01*
Y52413D01*
X33261Y51213D01*
X30694Y49640D01*
Y89598D01*
X33491Y92395D01*
X33544Y92440D01*
X33666Y92584D01*
X33698Y92619D01*
X33821Y92821D01*
X33911Y93039D01*
X33967Y93269D01*
X33985Y93504D01*
X33980Y93569D01*
Y100982D01*
X34131Y101075D01*
X34466Y101361D01*
X34752Y101696D01*
X34983Y102072D01*
X35151Y102479D01*
X35254Y102908D01*
X35280Y103347D01*
X35254Y103786D01*
X35151Y104215D01*
X34983Y104622D01*
X34752Y104998D01*
X34466Y105333D01*
X34131Y105619D01*
X33755Y105850D01*
X33348Y106018D01*
X32919Y106121D01*
X32480Y106156D01*
X32041Y106121D01*
X31612Y106018D01*
X31205Y105850D01*
X30829Y105619D01*
X30694Y105504D01*
Y159320D01*
X30731Y159370D01*
X30989Y159799D01*
X31203Y160252D01*
X31375Y160723D01*
X31504Y161207D01*
X31590Y161700D01*
X31630Y162200D01*
X31626Y162701D01*
X31577Y163199D01*
X31483Y163691D01*
X31345Y164173D01*
X31165Y164640D01*
X30943Y165090D01*
X30694Y165497D01*
Y216406D01*
X30731Y216456D01*
X30989Y216885D01*
X31203Y217338D01*
X31375Y217809D01*
X31504Y218293D01*
X31590Y218786D01*
X31630Y219286D01*
X31626Y219787D01*
X31577Y220285D01*
X31483Y220777D01*
X31345Y221259D01*
X31165Y221726D01*
X30943Y222176D01*
X30694Y222583D01*
Y226377D01*
G37*
G36*
Y49640D02*X30300Y49399D01*
X28048Y47476D01*
Y86952D01*
X30694Y89598D01*
Y49640D01*
G37*
G36*
X28048Y226377D02*X30694D01*
Y222583D01*
X30682Y222603D01*
X30632Y222665D01*
X30573Y222719D01*
X30507Y222762D01*
X30435Y222795D01*
X30358Y222817D01*
X30280Y222825D01*
X30200Y222822D01*
X30123Y222806D01*
X30048Y222778D01*
X29979Y222739D01*
X29917Y222690D01*
X29863Y222631D01*
X29820Y222565D01*
X29787Y222493D01*
X29765Y222416D01*
X29757Y222338D01*
X29760Y222258D01*
X29776Y222181D01*
X29804Y222106D01*
X29844Y222038D01*
X30062Y221690D01*
X30244Y221322D01*
X30392Y220939D01*
X30504Y220544D01*
X30581Y220141D01*
X30622Y219733D01*
X30626Y219322D01*
X30592Y218913D01*
X30522Y218508D01*
X30416Y218112D01*
X30275Y217726D01*
X30100Y217355D01*
X29892Y217001D01*
X29852Y216932D01*
X29826Y216857D01*
X29812Y216780D01*
X29810Y216701D01*
X29820Y216623D01*
X29843Y216548D01*
X29877Y216476D01*
X29921Y216412D01*
X29976Y216355D01*
X30038Y216307D01*
X30107Y216269D01*
X30182Y216243D01*
X30259Y216229D01*
X30338Y216227D01*
X30416Y216237D01*
X30491Y216260D01*
X30563Y216294D01*
X30627Y216338D01*
X30684Y216393D01*
X30694Y216406D01*
Y165497D01*
X30682Y165517D01*
X30632Y165579D01*
X30573Y165633D01*
X30507Y165676D01*
X30435Y165709D01*
X30358Y165731D01*
X30280Y165739D01*
X30200Y165736D01*
X30123Y165720D01*
X30048Y165692D01*
X29979Y165653D01*
X29917Y165604D01*
X29863Y165545D01*
X29820Y165479D01*
X29787Y165407D01*
X29765Y165330D01*
X29757Y165252D01*
X29760Y165172D01*
X29776Y165095D01*
X29804Y165020D01*
X29844Y164952D01*
X30062Y164604D01*
X30244Y164236D01*
X30392Y163853D01*
X30504Y163458D01*
X30581Y163055D01*
X30622Y162647D01*
X30626Y162236D01*
X30592Y161827D01*
X30522Y161422D01*
X30416Y161026D01*
X30275Y160640D01*
X30100Y160269D01*
X29892Y159915D01*
X29852Y159846D01*
X29826Y159771D01*
X29812Y159694D01*
X29810Y159615D01*
X29820Y159537D01*
X29843Y159462D01*
X29877Y159390D01*
X29921Y159326D01*
X29976Y159269D01*
X30038Y159221D01*
X30107Y159183D01*
X30182Y159157D01*
X30259Y159143D01*
X30338Y159141D01*
X30416Y159151D01*
X30491Y159174D01*
X30563Y159208D01*
X30627Y159252D01*
X30684Y159307D01*
X30694Y159320D01*
Y105504D01*
X30494Y105333D01*
X30208Y104998D01*
X29977Y104622D01*
X29809Y104215D01*
X29706Y103786D01*
X29671Y103347D01*
X29706Y102908D01*
X29809Y102479D01*
X29977Y102072D01*
X30208Y101696D01*
X30494Y101361D01*
X30694Y101190D01*
Y93840D01*
X28048Y91194D01*
Y157201D01*
X28301Y157299D01*
X28751Y157521D01*
X29178Y157782D01*
X29240Y157832D01*
X29294Y157891D01*
X29337Y157957D01*
X29370Y158029D01*
X29392Y158106D01*
X29400Y158184D01*
X29397Y158264D01*
X29381Y158341D01*
X29353Y158416D01*
X29314Y158485D01*
X29265Y158547D01*
X29206Y158601D01*
X29140Y158644D01*
X29068Y158677D01*
X28991Y158699D01*
X28913Y158707D01*
X28833Y158704D01*
X28756Y158688D01*
X28681Y158660D01*
X28613Y158620D01*
X28265Y158402D01*
X28048Y158295D01*
Y166508D01*
X28195Y166439D01*
X28549Y166231D01*
X28618Y166191D01*
X28693Y166165D01*
X28770Y166151D01*
X28849Y166149D01*
X28927Y166159D01*
X29002Y166182D01*
X29074Y166216D01*
X29138Y166260D01*
X29195Y166315D01*
X29243Y166377D01*
X29281Y166446D01*
X29307Y166521D01*
X29321Y166598D01*
X29323Y166677D01*
X29313Y166755D01*
X29290Y166830D01*
X29256Y166902D01*
X29212Y166966D01*
X29157Y167023D01*
X29094Y167070D01*
X28665Y167328D01*
X28212Y167542D01*
X28048Y167602D01*
Y175976D01*
X28093Y176012D01*
X28146Y176070D01*
X28190Y176136D01*
X28221Y176208D01*
X28297Y176440D01*
X28350Y176679D01*
X28382Y176921D01*
X28392Y177165D01*
X28382Y177410D01*
X28350Y177652D01*
X28297Y177891D01*
X28223Y178124D01*
X28192Y178196D01*
X28148Y178262D01*
X28095Y178321D01*
X28048Y178358D01*
Y187787D01*
X28093Y187823D01*
X28146Y187881D01*
X28190Y187947D01*
X28221Y188019D01*
X28297Y188251D01*
X28350Y188490D01*
X28382Y188732D01*
X28392Y188976D01*
X28382Y189221D01*
X28350Y189463D01*
X28297Y189702D01*
X28223Y189935D01*
X28192Y190007D01*
X28148Y190073D01*
X28095Y190132D01*
X28048Y190169D01*
Y193692D01*
X28093Y193728D01*
X28146Y193786D01*
X28190Y193852D01*
X28221Y193924D01*
X28297Y194156D01*
X28350Y194395D01*
X28382Y194637D01*
X28392Y194881D01*
X28382Y195126D01*
X28350Y195368D01*
X28297Y195607D01*
X28223Y195840D01*
X28192Y195912D01*
X28148Y195978D01*
X28095Y196037D01*
X28048Y196074D01*
Y199598D01*
X28093Y199634D01*
X28146Y199692D01*
X28190Y199758D01*
X28221Y199830D01*
X28297Y200062D01*
X28350Y200301D01*
X28382Y200543D01*
X28392Y200787D01*
X28382Y201032D01*
X28350Y201274D01*
X28297Y201513D01*
X28223Y201746D01*
X28192Y201818D01*
X28148Y201884D01*
X28095Y201943D01*
X28048Y201980D01*
Y205503D01*
X28093Y205539D01*
X28146Y205597D01*
X28190Y205663D01*
X28221Y205735D01*
X28297Y205967D01*
X28350Y206206D01*
X28382Y206448D01*
X28392Y206692D01*
X28382Y206937D01*
X28350Y207179D01*
X28297Y207418D01*
X28223Y207651D01*
X28192Y207723D01*
X28148Y207789D01*
X28095Y207848D01*
X28048Y207885D01*
Y214287D01*
X28301Y214385D01*
X28751Y214607D01*
X29178Y214868D01*
X29240Y214918D01*
X29294Y214977D01*
X29337Y215043D01*
X29370Y215115D01*
X29392Y215192D01*
X29400Y215270D01*
X29397Y215350D01*
X29381Y215427D01*
X29353Y215502D01*
X29314Y215571D01*
X29265Y215633D01*
X29206Y215687D01*
X29140Y215730D01*
X29068Y215763D01*
X28991Y215785D01*
X28913Y215793D01*
X28833Y215790D01*
X28756Y215774D01*
X28681Y215746D01*
X28613Y215706D01*
X28265Y215488D01*
X28048Y215381D01*
Y223594D01*
X28195Y223525D01*
X28549Y223317D01*
X28618Y223277D01*
X28693Y223251D01*
X28770Y223237D01*
X28849Y223235D01*
X28927Y223245D01*
X29002Y223268D01*
X29074Y223302D01*
X29138Y223346D01*
X29195Y223401D01*
X29243Y223463D01*
X29281Y223532D01*
X29307Y223607D01*
X29321Y223684D01*
X29323Y223763D01*
X29313Y223841D01*
X29290Y223916D01*
X29256Y223988D01*
X29212Y224052D01*
X29157Y224109D01*
X29094Y224156D01*
X28665Y224414D01*
X28212Y224628D01*
X28048Y224688D01*
Y226377D01*
G37*
G36*
X25592Y18269D02*X27659Y15848D01*
X28048Y15516D01*
Y1968D01*
X25592D01*
Y18269D01*
G37*
G36*
Y53093D02*X25611Y53109D01*
X25897Y53444D01*
X26128Y53820D01*
X26296Y54227D01*
X26399Y54656D01*
X26425Y55095D01*
X26399Y55534D01*
X26296Y55963D01*
X26128Y56370D01*
X25897Y56746D01*
X25611Y57081D01*
X25592Y57097D01*
Y84496D01*
X28048Y86952D01*
Y47476D01*
X27659Y47144D01*
X25592Y44723D01*
Y53093D01*
G37*
G36*
Y156856D02*X25861Y156834D01*
X26362Y156838D01*
X26860Y156887D01*
X27352Y156981D01*
X27834Y157119D01*
X28048Y157201D01*
Y91194D01*
X25592Y88738D01*
Y137739D01*
X25610Y137754D01*
X25896Y138089D01*
X26127Y138465D01*
X26295Y138872D01*
X26398Y139301D01*
X26424Y139740D01*
X26398Y140179D01*
X26295Y140608D01*
X26127Y141015D01*
X25896Y141391D01*
X25610Y141726D01*
X25592Y141741D01*
Y156856D01*
G37*
G36*
Y166938D02*X25817Y166961D01*
X26228Y166965D01*
X26637Y166931D01*
X27042Y166861D01*
X27438Y166755D01*
X27824Y166614D01*
X28048Y166508D01*
Y158295D01*
X27897Y158220D01*
X27514Y158072D01*
X27119Y157960D01*
X26716Y157883D01*
X26308Y157842D01*
X25897Y157838D01*
X25592Y157863D01*
Y166938D01*
G37*
G36*
Y213942D02*X25861Y213920D01*
X26362Y213924D01*
X26860Y213973D01*
X27352Y214067D01*
X27834Y214205D01*
X28048Y214287D01*
Y207885D01*
X28033Y207897D01*
X27964Y207936D01*
X27890Y207963D01*
X27812Y207979D01*
X27733Y207983D01*
X27655Y207974D01*
X27578Y207952D01*
X27507Y207920D01*
X27441Y207876D01*
X27382Y207823D01*
X27333Y207761D01*
X27294Y207692D01*
X27267Y207618D01*
X27251Y207540D01*
X27247Y207461D01*
X27256Y207383D01*
X27279Y207307D01*
X27328Y207158D01*
X27362Y207005D01*
X27383Y206849D01*
X27390Y206692D01*
X27383Y206536D01*
X27362Y206380D01*
X27328Y206227D01*
X27281Y206077D01*
X27259Y206002D01*
X27250Y205923D01*
X27253Y205845D01*
X27269Y205768D01*
X27296Y205694D01*
X27335Y205625D01*
X27384Y205564D01*
X27442Y205511D01*
X27508Y205467D01*
X27579Y205435D01*
X27655Y205414D01*
X27734Y205405D01*
X27812Y205408D01*
X27889Y205424D01*
X27963Y205451D01*
X28032Y205490D01*
X28048Y205503D01*
Y201980D01*
X28033Y201992D01*
X27964Y202031D01*
X27890Y202058D01*
X27812Y202074D01*
X27733Y202078D01*
X27655Y202069D01*
X27578Y202047D01*
X27507Y202015D01*
X27441Y201971D01*
X27382Y201918D01*
X27333Y201856D01*
X27294Y201787D01*
X27267Y201713D01*
X27251Y201635D01*
X27247Y201556D01*
X27256Y201478D01*
X27279Y201402D01*
X27328Y201253D01*
X27362Y201100D01*
X27383Y200944D01*
X27390Y200787D01*
X27383Y200631D01*
X27362Y200475D01*
X27328Y200322D01*
X27281Y200172D01*
X27259Y200097D01*
X27250Y200018D01*
X27253Y199940D01*
X27269Y199863D01*
X27296Y199789D01*
X27335Y199720D01*
X27384Y199659D01*
X27442Y199606D01*
X27508Y199562D01*
X27579Y199530D01*
X27655Y199509D01*
X27734Y199500D01*
X27812Y199503D01*
X27889Y199519D01*
X27963Y199546D01*
X28032Y199585D01*
X28048Y199598D01*
Y196074D01*
X28033Y196086D01*
X27964Y196125D01*
X27890Y196152D01*
X27812Y196168D01*
X27733Y196172D01*
X27655Y196163D01*
X27578Y196141D01*
X27507Y196109D01*
X27441Y196065D01*
X27382Y196012D01*
X27333Y195950D01*
X27294Y195881D01*
X27267Y195807D01*
X27251Y195729D01*
X27247Y195650D01*
X27256Y195572D01*
X27279Y195496D01*
X27328Y195347D01*
X27362Y195194D01*
X27383Y195038D01*
X27390Y194881D01*
X27383Y194725D01*
X27362Y194569D01*
X27328Y194416D01*
X27281Y194266D01*
X27259Y194191D01*
X27250Y194112D01*
X27253Y194034D01*
X27269Y193957D01*
X27296Y193883D01*
X27335Y193814D01*
X27384Y193753D01*
X27442Y193700D01*
X27508Y193656D01*
X27579Y193624D01*
X27655Y193603D01*
X27734Y193594D01*
X27812Y193597D01*
X27889Y193613D01*
X27963Y193640D01*
X28032Y193679D01*
X28048Y193692D01*
Y190169D01*
X28033Y190181D01*
X27964Y190220D01*
X27890Y190247D01*
X27812Y190263D01*
X27733Y190267D01*
X27655Y190258D01*
X27578Y190236D01*
X27507Y190204D01*
X27441Y190160D01*
X27382Y190107D01*
X27333Y190045D01*
X27294Y189976D01*
X27267Y189902D01*
X27251Y189824D01*
X27247Y189745D01*
X27256Y189667D01*
X27279Y189591D01*
X27328Y189442D01*
X27362Y189289D01*
X27383Y189133D01*
X27390Y188976D01*
X27383Y188820D01*
X27362Y188664D01*
X27328Y188511D01*
X27281Y188361D01*
X27259Y188286D01*
X27250Y188207D01*
X27253Y188129D01*
X27269Y188052D01*
X27296Y187978D01*
X27335Y187909D01*
X27384Y187848D01*
X27442Y187795D01*
X27508Y187751D01*
X27579Y187719D01*
X27655Y187698D01*
X27734Y187689D01*
X27812Y187692D01*
X27889Y187708D01*
X27963Y187735D01*
X28032Y187774D01*
X28048Y187787D01*
Y178358D01*
X28033Y178370D01*
X27964Y178409D01*
X27890Y178436D01*
X27812Y178452D01*
X27733Y178456D01*
X27655Y178447D01*
X27578Y178425D01*
X27507Y178393D01*
X27441Y178349D01*
X27382Y178296D01*
X27333Y178234D01*
X27294Y178165D01*
X27267Y178091D01*
X27251Y178013D01*
X27247Y177934D01*
X27256Y177856D01*
X27279Y177780D01*
X27328Y177631D01*
X27362Y177478D01*
X27383Y177322D01*
X27390Y177165D01*
X27383Y177009D01*
X27362Y176853D01*
X27328Y176700D01*
X27281Y176550D01*
X27259Y176475D01*
X27250Y176396D01*
X27253Y176318D01*
X27269Y176241D01*
X27296Y176167D01*
X27335Y176098D01*
X27384Y176037D01*
X27442Y175984D01*
X27508Y175940D01*
X27579Y175908D01*
X27655Y175887D01*
X27734Y175878D01*
X27812Y175881D01*
X27889Y175897D01*
X27963Y175924D01*
X28032Y175963D01*
X28048Y175976D01*
Y167602D01*
X27741Y167714D01*
X27257Y167843D01*
X26764Y167929D01*
X26264Y167969D01*
X25763Y167965D01*
X25592Y167948D01*
Y174364D01*
X25835Y174374D01*
X26077Y174406D01*
X26316Y174459D01*
X26549Y174533D01*
X26621Y174564D01*
X26687Y174608D01*
X26746Y174661D01*
X26795Y174723D01*
X26834Y174792D01*
X26861Y174866D01*
X26877Y174944D01*
X26881Y175023D01*
X26872Y175101D01*
X26850Y175178D01*
X26818Y175249D01*
X26774Y175315D01*
X26721Y175374D01*
X26659Y175423D01*
X26590Y175462D01*
X26516Y175489D01*
X26438Y175505D01*
X26359Y175509D01*
X26281Y175500D01*
X26205Y175477D01*
X26056Y175428D01*
X25903Y175394D01*
X25747Y175373D01*
X25592Y175366D01*
Y178964D01*
X25747Y178958D01*
X25903Y178937D01*
X26056Y178903D01*
X26206Y178856D01*
X26281Y178834D01*
X26360Y178825D01*
X26438Y178828D01*
X26515Y178844D01*
X26589Y178871D01*
X26658Y178910D01*
X26719Y178959D01*
X26772Y179017D01*
X26816Y179083D01*
X26848Y179154D01*
X26869Y179230D01*
X26878Y179309D01*
X26875Y179387D01*
X26859Y179464D01*
X26832Y179538D01*
X26793Y179607D01*
X26744Y179668D01*
X26686Y179721D01*
X26620Y179765D01*
X26548Y179796D01*
X26316Y179872D01*
X26077Y179925D01*
X25835Y179957D01*
X25592Y179967D01*
Y186175D01*
X25835Y186185D01*
X26077Y186217D01*
X26316Y186270D01*
X26549Y186344D01*
X26621Y186375D01*
X26687Y186419D01*
X26746Y186472D01*
X26795Y186534D01*
X26834Y186603D01*
X26861Y186677D01*
X26877Y186755D01*
X26881Y186834D01*
X26872Y186912D01*
X26850Y186989D01*
X26818Y187060D01*
X26774Y187126D01*
X26721Y187185D01*
X26659Y187234D01*
X26590Y187273D01*
X26516Y187300D01*
X26438Y187316D01*
X26359Y187320D01*
X26281Y187311D01*
X26205Y187288D01*
X26056Y187239D01*
X25903Y187205D01*
X25747Y187184D01*
X25592Y187177D01*
Y190775D01*
X25747Y190769D01*
X25903Y190748D01*
X26056Y190714D01*
X26206Y190667D01*
X26281Y190645D01*
X26360Y190636D01*
X26438Y190639D01*
X26515Y190655D01*
X26589Y190682D01*
X26658Y190721D01*
X26719Y190770D01*
X26772Y190828D01*
X26816Y190894D01*
X26848Y190965D01*
X26869Y191041D01*
X26878Y191120D01*
X26875Y191198D01*
X26859Y191275D01*
X26832Y191349D01*
X26793Y191418D01*
X26744Y191479D01*
X26686Y191532D01*
X26620Y191576D01*
X26548Y191607D01*
X26316Y191683D01*
X26077Y191736D01*
X25835Y191768D01*
X25592Y191778D01*
Y192080D01*
X25835Y192090D01*
X26077Y192122D01*
X26316Y192175D01*
X26549Y192249D01*
X26621Y192280D01*
X26687Y192324D01*
X26746Y192377D01*
X26795Y192439D01*
X26834Y192508D01*
X26861Y192582D01*
X26877Y192660D01*
X26881Y192739D01*
X26872Y192817D01*
X26850Y192894D01*
X26818Y192965D01*
X26774Y193031D01*
X26721Y193090D01*
X26659Y193139D01*
X26590Y193178D01*
X26516Y193205D01*
X26438Y193221D01*
X26359Y193225D01*
X26281Y193216D01*
X26205Y193193D01*
X26056Y193144D01*
X25903Y193110D01*
X25747Y193089D01*
X25592Y193082D01*
Y196680D01*
X25747Y196674D01*
X25903Y196653D01*
X26056Y196619D01*
X26206Y196572D01*
X26281Y196550D01*
X26360Y196541D01*
X26438Y196544D01*
X26515Y196560D01*
X26589Y196587D01*
X26658Y196626D01*
X26719Y196675D01*
X26772Y196733D01*
X26816Y196799D01*
X26848Y196870D01*
X26869Y196946D01*
X26878Y197025D01*
X26875Y197103D01*
X26859Y197180D01*
X26832Y197254D01*
X26793Y197323D01*
X26744Y197384D01*
X26686Y197437D01*
X26620Y197481D01*
X26548Y197512D01*
X26316Y197588D01*
X26077Y197641D01*
X25835Y197673D01*
X25592Y197683D01*
Y197986D01*
X25835Y197996D01*
X26077Y198028D01*
X26316Y198081D01*
X26549Y198155D01*
X26621Y198186D01*
X26687Y198230D01*
X26746Y198283D01*
X26795Y198345D01*
X26834Y198414D01*
X26861Y198488D01*
X26877Y198566D01*
X26881Y198645D01*
X26872Y198723D01*
X26850Y198800D01*
X26818Y198871D01*
X26774Y198937D01*
X26721Y198996D01*
X26659Y199045D01*
X26590Y199084D01*
X26516Y199111D01*
X26438Y199127D01*
X26359Y199131D01*
X26281Y199122D01*
X26205Y199099D01*
X26056Y199050D01*
X25903Y199016D01*
X25747Y198995D01*
X25592Y198988D01*
Y202586D01*
X25747Y202580D01*
X25903Y202559D01*
X26056Y202525D01*
X26206Y202478D01*
X26281Y202456D01*
X26360Y202447D01*
X26438Y202450D01*
X26515Y202466D01*
X26589Y202493D01*
X26658Y202532D01*
X26719Y202581D01*
X26772Y202639D01*
X26816Y202705D01*
X26848Y202776D01*
X26869Y202852D01*
X26878Y202931D01*
X26875Y203009D01*
X26859Y203086D01*
X26832Y203160D01*
X26793Y203229D01*
X26744Y203290D01*
X26686Y203343D01*
X26620Y203387D01*
X26548Y203418D01*
X26316Y203494D01*
X26077Y203547D01*
X25835Y203579D01*
X25592Y203589D01*
Y203891D01*
X25835Y203901D01*
X26077Y203933D01*
X26316Y203986D01*
X26549Y204060D01*
X26621Y204091D01*
X26687Y204135D01*
X26746Y204188D01*
X26795Y204250D01*
X26834Y204319D01*
X26861Y204393D01*
X26877Y204471D01*
X26881Y204550D01*
X26872Y204628D01*
X26850Y204705D01*
X26818Y204776D01*
X26774Y204842D01*
X26721Y204901D01*
X26659Y204950D01*
X26590Y204989D01*
X26516Y205016D01*
X26438Y205032D01*
X26359Y205036D01*
X26281Y205027D01*
X26205Y205004D01*
X26056Y204955D01*
X25903Y204921D01*
X25747Y204900D01*
X25592Y204893D01*
Y208491D01*
X25747Y208485D01*
X25903Y208464D01*
X26056Y208430D01*
X26206Y208383D01*
X26281Y208361D01*
X26360Y208352D01*
X26438Y208355D01*
X26515Y208371D01*
X26589Y208398D01*
X26658Y208437D01*
X26719Y208486D01*
X26772Y208544D01*
X26816Y208610D01*
X26848Y208681D01*
X26869Y208757D01*
X26878Y208836D01*
X26875Y208914D01*
X26859Y208991D01*
X26832Y209065D01*
X26793Y209134D01*
X26744Y209195D01*
X26686Y209248D01*
X26620Y209292D01*
X26548Y209323D01*
X26316Y209399D01*
X26077Y209452D01*
X25835Y209484D01*
X25592Y209494D01*
Y213942D01*
G37*
G36*
Y224024D02*X25817Y224047D01*
X26228Y224051D01*
X26637Y224017D01*
X27042Y223947D01*
X27438Y223841D01*
X27824Y223700D01*
X28048Y223594D01*
Y215381D01*
X27897Y215306D01*
X27514Y215158D01*
X27119Y215046D01*
X26716Y214969D01*
X26308Y214928D01*
X25897Y214924D01*
X25592Y214949D01*
Y224024D01*
G37*
G36*
Y226377D02*X28048D01*
Y224688D01*
X27741Y224800D01*
X27257Y224929D01*
X26764Y225015D01*
X26264Y225055D01*
X25763Y225051D01*
X25592Y225034D01*
Y226377D01*
G37*
G36*
Y57097D02*X25276Y57367D01*
X25125Y57460D01*
Y84029D01*
X25592Y84496D01*
Y57097D01*
G37*
G36*
Y88738D02*X22561Y85707D01*
X22405Y85530D01*
X22282Y85329D01*
X22192Y85111D01*
X22137Y84881D01*
X22118Y84646D01*
X22124Y84572D01*
Y57459D01*
X21974Y57367D01*
X21639Y57081D01*
X21353Y56746D01*
X21122Y56370D01*
X20954Y55963D01*
X20851Y55534D01*
X20816Y55095D01*
X20851Y54656D01*
X20954Y54227D01*
X21122Y53820D01*
X21353Y53444D01*
X21639Y53109D01*
X21974Y52823D01*
X22350Y52592D01*
X22757Y52424D01*
X23186Y52321D01*
X23625Y52286D01*
X24064Y52321D01*
X24493Y52424D01*
X24900Y52592D01*
X25276Y52823D01*
X25592Y53093D01*
Y44723D01*
X25404Y44503D01*
X23590Y41542D01*
X22261Y38334D01*
X21450Y34958D01*
X21178Y31496D01*
X21450Y28034D01*
X22261Y24658D01*
X23590Y21450D01*
X25404Y18489D01*
X25592Y18269D01*
Y1968D01*
X16861D01*
Y108245D01*
X24633Y116017D01*
X24686Y116062D01*
X24808Y116206D01*
X24840Y116241D01*
X24963Y116443D01*
X25053Y116661D01*
X25109Y116891D01*
X25127Y117126D01*
X25122Y117191D01*
Y137374D01*
X25275Y137468D01*
X25592Y137739D01*
Y88738D01*
G37*
G36*
X23362Y157534D02*X23460Y157475D01*
X23913Y157261D01*
X24384Y157089D01*
X24868Y156960D01*
X25361Y156874D01*
X25592Y156856D01*
Y141741D01*
X25275Y142012D01*
X24899Y142243D01*
X24492Y142411D01*
X24063Y142514D01*
X23624Y142549D01*
X23362Y142528D01*
Y157534D01*
G37*
G36*
Y166114D02*X23369Y166115D01*
X23444Y166143D01*
X23512Y166183D01*
X23860Y166401D01*
X24228Y166583D01*
X24611Y166731D01*
X25006Y166843D01*
X25409Y166920D01*
X25592Y166938D01*
Y157863D01*
X25488Y157872D01*
X25083Y157942D01*
X24687Y158048D01*
X24301Y158189D01*
X23930Y158364D01*
X23576Y158572D01*
X23507Y158612D01*
X23432Y158638D01*
X23362Y158651D01*
Y166114D01*
G37*
G36*
Y214620D02*X23460Y214561D01*
X23913Y214347D01*
X24384Y214175D01*
X24868Y214046D01*
X25361Y213960D01*
X25592Y213942D01*
Y209494D01*
X25591D01*
X25346Y209484D01*
X25104Y209452D01*
X24865Y209399D01*
X24632Y209325D01*
X24560Y209294D01*
X24494Y209250D01*
X24435Y209197D01*
X24386Y209135D01*
X24347Y209066D01*
X24320Y208992D01*
X24304Y208914D01*
X24300Y208835D01*
X24309Y208757D01*
X24331Y208680D01*
X24363Y208609D01*
X24407Y208543D01*
X24460Y208484D01*
X24522Y208435D01*
X24591Y208396D01*
X24665Y208369D01*
X24743Y208353D01*
X24822Y208349D01*
X24900Y208358D01*
X24976Y208381D01*
X25125Y208430D01*
X25278Y208464D01*
X25434Y208485D01*
X25591Y208491D01*
X25592D01*
Y204893D01*
X25591D01*
X25434Y204900D01*
X25278Y204921D01*
X25125Y204955D01*
X24975Y205002D01*
X24900Y205024D01*
X24821Y205033D01*
X24743Y205030D01*
X24666Y205014D01*
X24592Y204987D01*
X24523Y204948D01*
X24462Y204899D01*
X24409Y204841D01*
X24365Y204775D01*
X24333Y204704D01*
X24312Y204628D01*
X24303Y204549D01*
X24306Y204471D01*
X24322Y204394D01*
X24349Y204320D01*
X24388Y204251D01*
X24437Y204190D01*
X24495Y204137D01*
X24561Y204093D01*
X24633Y204062D01*
X24865Y203986D01*
X25104Y203933D01*
X25346Y203901D01*
X25591Y203891D01*
X25592D01*
Y203589D01*
X25591D01*
X25346Y203579D01*
X25104Y203547D01*
X24865Y203494D01*
X24632Y203420D01*
X24560Y203389D01*
X24494Y203345D01*
X24435Y203292D01*
X24386Y203230D01*
X24347Y203161D01*
X24320Y203087D01*
X24304Y203009D01*
X24300Y202930D01*
X24309Y202852D01*
X24331Y202775D01*
X24363Y202704D01*
X24407Y202638D01*
X24460Y202579D01*
X24522Y202530D01*
X24591Y202491D01*
X24665Y202464D01*
X24743Y202448D01*
X24822Y202444D01*
X24900Y202453D01*
X24976Y202476D01*
X25125Y202525D01*
X25278Y202559D01*
X25434Y202580D01*
X25591Y202586D01*
X25592D01*
Y198988D01*
X25591D01*
X25434Y198995D01*
X25278Y199016D01*
X25125Y199050D01*
X24975Y199097D01*
X24900Y199119D01*
X24821Y199128D01*
X24743Y199125D01*
X24666Y199109D01*
X24592Y199082D01*
X24523Y199043D01*
X24462Y198994D01*
X24409Y198936D01*
X24365Y198870D01*
X24333Y198799D01*
X24312Y198723D01*
X24303Y198644D01*
X24306Y198566D01*
X24322Y198489D01*
X24349Y198415D01*
X24388Y198346D01*
X24437Y198285D01*
X24495Y198232D01*
X24561Y198188D01*
X24633Y198157D01*
X24865Y198081D01*
X25104Y198028D01*
X25346Y197996D01*
X25591Y197986D01*
X25592D01*
Y197683D01*
X25591D01*
X25346Y197673D01*
X25104Y197641D01*
X24865Y197588D01*
X24632Y197514D01*
X24560Y197483D01*
X24494Y197439D01*
X24435Y197386D01*
X24386Y197324D01*
X24347Y197255D01*
X24320Y197181D01*
X24304Y197103D01*
X24300Y197024D01*
X24309Y196946D01*
X24331Y196869D01*
X24363Y196798D01*
X24407Y196732D01*
X24460Y196673D01*
X24522Y196624D01*
X24591Y196585D01*
X24665Y196558D01*
X24743Y196542D01*
X24822Y196538D01*
X24900Y196547D01*
X24976Y196570D01*
X25125Y196619D01*
X25278Y196653D01*
X25434Y196674D01*
X25591Y196680D01*
X25592D01*
Y193082D01*
X25591D01*
X25434Y193089D01*
X25278Y193110D01*
X25125Y193144D01*
X24975Y193191D01*
X24900Y193213D01*
X24821Y193222D01*
X24743Y193219D01*
X24666Y193203D01*
X24592Y193176D01*
X24523Y193137D01*
X24462Y193088D01*
X24409Y193030D01*
X24365Y192964D01*
X24333Y192893D01*
X24312Y192817D01*
X24303Y192738D01*
X24306Y192660D01*
X24322Y192583D01*
X24349Y192509D01*
X24388Y192440D01*
X24437Y192379D01*
X24495Y192326D01*
X24561Y192282D01*
X24633Y192251D01*
X24865Y192175D01*
X25104Y192122D01*
X25346Y192090D01*
X25591Y192080D01*
X25592D01*
Y191778D01*
X25591D01*
X25346Y191768D01*
X25104Y191736D01*
X24865Y191683D01*
X24632Y191609D01*
X24560Y191578D01*
X24494Y191534D01*
X24435Y191481D01*
X24386Y191419D01*
X24347Y191350D01*
X24320Y191276D01*
X24304Y191198D01*
X24300Y191119D01*
X24309Y191041D01*
X24331Y190964D01*
X24363Y190893D01*
X24407Y190827D01*
X24460Y190768D01*
X24522Y190719D01*
X24591Y190680D01*
X24665Y190653D01*
X24743Y190637D01*
X24822Y190633D01*
X24900Y190642D01*
X24976Y190665D01*
X25125Y190714D01*
X25278Y190748D01*
X25434Y190769D01*
X25591Y190775D01*
X25592D01*
Y187177D01*
X25591D01*
X25434Y187184D01*
X25278Y187205D01*
X25125Y187239D01*
X24975Y187286D01*
X24900Y187308D01*
X24821Y187317D01*
X24743Y187314D01*
X24666Y187298D01*
X24592Y187271D01*
X24523Y187232D01*
X24462Y187183D01*
X24409Y187125D01*
X24365Y187059D01*
X24333Y186988D01*
X24312Y186912D01*
X24303Y186833D01*
X24306Y186755D01*
X24322Y186678D01*
X24349Y186604D01*
X24388Y186535D01*
X24437Y186474D01*
X24495Y186421D01*
X24561Y186377D01*
X24633Y186346D01*
X24865Y186270D01*
X25104Y186217D01*
X25346Y186185D01*
X25591Y186175D01*
X25592D01*
Y179967D01*
X25591D01*
X25346Y179957D01*
X25104Y179925D01*
X24865Y179872D01*
X24632Y179798D01*
X24560Y179767D01*
X24494Y179723D01*
X24435Y179670D01*
X24386Y179608D01*
X24347Y179539D01*
X24320Y179465D01*
X24304Y179387D01*
X24300Y179308D01*
X24309Y179230D01*
X24331Y179153D01*
X24363Y179082D01*
X24407Y179016D01*
X24460Y178957D01*
X24522Y178908D01*
X24591Y178869D01*
X24665Y178842D01*
X24743Y178826D01*
X24822Y178822D01*
X24900Y178831D01*
X24976Y178854D01*
X25125Y178903D01*
X25278Y178937D01*
X25434Y178958D01*
X25591Y178964D01*
X25592D01*
Y175366D01*
X25591D01*
X25434Y175373D01*
X25278Y175394D01*
X25125Y175428D01*
X24975Y175475D01*
X24900Y175497D01*
X24821Y175506D01*
X24743Y175503D01*
X24666Y175487D01*
X24592Y175460D01*
X24523Y175421D01*
X24462Y175372D01*
X24409Y175314D01*
X24365Y175248D01*
X24333Y175177D01*
X24312Y175101D01*
X24303Y175022D01*
X24306Y174944D01*
X24322Y174867D01*
X24349Y174793D01*
X24388Y174724D01*
X24437Y174663D01*
X24495Y174610D01*
X24561Y174566D01*
X24633Y174535D01*
X24865Y174459D01*
X25104Y174406D01*
X25346Y174374D01*
X25591Y174364D01*
X25592D01*
Y167948D01*
X25265Y167916D01*
X24773Y167822D01*
X24291Y167684D01*
X23824Y167504D01*
X23374Y167282D01*
X23362Y167275D01*
Y175880D01*
X23369Y175879D01*
X23448Y175875D01*
X23526Y175884D01*
X23603Y175906D01*
X23674Y175938D01*
X23740Y175982D01*
X23799Y176035D01*
X23848Y176097D01*
X23887Y176166D01*
X23914Y176240D01*
X23930Y176318D01*
X23934Y176397D01*
X23925Y176475D01*
X23902Y176551D01*
X23853Y176700D01*
X23819Y176853D01*
X23798Y177009D01*
X23792Y177165D01*
X23798Y177322D01*
X23819Y177478D01*
X23853Y177631D01*
X23900Y177781D01*
X23922Y177856D01*
X23931Y177935D01*
X23928Y178013D01*
X23912Y178090D01*
X23885Y178164D01*
X23846Y178233D01*
X23797Y178294D01*
X23739Y178347D01*
X23673Y178391D01*
X23602Y178423D01*
X23526Y178444D01*
X23447Y178453D01*
X23369Y178450D01*
X23362Y178449D01*
Y187691D01*
X23369Y187690D01*
X23448Y187686D01*
X23526Y187695D01*
X23603Y187717D01*
X23674Y187749D01*
X23740Y187793D01*
X23799Y187846D01*
X23848Y187908D01*
X23887Y187977D01*
X23914Y188051D01*
X23930Y188129D01*
X23934Y188208D01*
X23925Y188286D01*
X23902Y188362D01*
X23853Y188511D01*
X23819Y188664D01*
X23798Y188820D01*
X23792Y188976D01*
X23798Y189133D01*
X23819Y189289D01*
X23853Y189442D01*
X23900Y189592D01*
X23922Y189667D01*
X23931Y189746D01*
X23928Y189824D01*
X23912Y189901D01*
X23885Y189975D01*
X23846Y190044D01*
X23797Y190105D01*
X23739Y190158D01*
X23673Y190202D01*
X23602Y190234D01*
X23526Y190255D01*
X23447Y190264D01*
X23369Y190261D01*
X23362Y190260D01*
Y193596D01*
X23369Y193595D01*
X23448Y193591D01*
X23526Y193600D01*
X23603Y193622D01*
X23674Y193654D01*
X23740Y193698D01*
X23799Y193751D01*
X23848Y193813D01*
X23887Y193882D01*
X23914Y193956D01*
X23930Y194034D01*
X23934Y194113D01*
X23925Y194191D01*
X23902Y194267D01*
X23853Y194416D01*
X23819Y194569D01*
X23798Y194725D01*
X23792Y194881D01*
X23798Y195038D01*
X23819Y195194D01*
X23853Y195347D01*
X23900Y195497D01*
X23922Y195572D01*
X23931Y195651D01*
X23928Y195729D01*
X23912Y195806D01*
X23885Y195880D01*
X23846Y195949D01*
X23797Y196010D01*
X23739Y196063D01*
X23673Y196107D01*
X23602Y196139D01*
X23526Y196160D01*
X23447Y196169D01*
X23369Y196166D01*
X23362Y196165D01*
Y199502D01*
X23369Y199501D01*
X23448Y199497D01*
X23526Y199506D01*
X23603Y199528D01*
X23674Y199560D01*
X23740Y199604D01*
X23799Y199657D01*
X23848Y199719D01*
X23887Y199788D01*
X23914Y199862D01*
X23930Y199940D01*
X23934Y200019D01*
X23925Y200097D01*
X23902Y200173D01*
X23853Y200322D01*
X23819Y200475D01*
X23798Y200631D01*
X23792Y200787D01*
X23798Y200944D01*
X23819Y201100D01*
X23853Y201253D01*
X23900Y201403D01*
X23922Y201478D01*
X23931Y201557D01*
X23928Y201635D01*
X23912Y201712D01*
X23885Y201786D01*
X23846Y201855D01*
X23797Y201916D01*
X23739Y201969D01*
X23673Y202013D01*
X23602Y202045D01*
X23526Y202066D01*
X23447Y202075D01*
X23369Y202072D01*
X23362Y202071D01*
Y205407D01*
X23369Y205406D01*
X23448Y205402D01*
X23526Y205411D01*
X23603Y205433D01*
X23674Y205465D01*
X23740Y205509D01*
X23799Y205562D01*
X23848Y205624D01*
X23887Y205693D01*
X23914Y205767D01*
X23930Y205845D01*
X23934Y205924D01*
X23925Y206002D01*
X23902Y206078D01*
X23853Y206227D01*
X23819Y206380D01*
X23798Y206536D01*
X23792Y206692D01*
X23798Y206849D01*
X23819Y207005D01*
X23853Y207158D01*
X23900Y207308D01*
X23922Y207383D01*
X23931Y207462D01*
X23928Y207540D01*
X23912Y207617D01*
X23885Y207691D01*
X23846Y207760D01*
X23797Y207821D01*
X23739Y207874D01*
X23673Y207918D01*
X23602Y207950D01*
X23526Y207971D01*
X23447Y207980D01*
X23369Y207977D01*
X23362Y207976D01*
Y214620D01*
G37*
G36*
Y223200D02*X23369Y223201D01*
X23444Y223229D01*
X23512Y223269D01*
X23860Y223487D01*
X24228Y223669D01*
X24611Y223817D01*
X25006Y223929D01*
X25409Y224006D01*
X25592Y224024D01*
Y214949D01*
X25488Y214958D01*
X25083Y215028D01*
X24687Y215134D01*
X24301Y215275D01*
X23930Y215450D01*
X23576Y215658D01*
X23507Y215698D01*
X23432Y215724D01*
X23362Y215737D01*
Y223200D01*
G37*
G36*
Y226377D02*X25592D01*
Y225034D01*
X25265Y225002D01*
X24773Y224908D01*
X24291Y224770D01*
X23824Y224590D01*
X23374Y224368D01*
X23362Y224361D01*
Y226377D01*
G37*
G36*
X21432Y137995D02*X21638Y137754D01*
X21973Y137468D01*
X22121Y137377D01*
Y117747D01*
X21432Y117058D01*
Y137995D01*
G37*
G36*
Y226377D02*X23362D01*
Y224361D01*
X22947Y224107D01*
X22885Y224057D01*
X22831Y223998D01*
X22788Y223932D01*
X22755Y223860D01*
X22733Y223783D01*
X22725Y223705D01*
X22728Y223625D01*
X22744Y223548D01*
X22772Y223473D01*
X22811Y223404D01*
X22860Y223342D01*
X22919Y223288D01*
X22985Y223245D01*
X23057Y223212D01*
X23134Y223190D01*
X23212Y223182D01*
X23292Y223185D01*
X23362Y223200D01*
Y215737D01*
X23355Y215738D01*
X23276Y215740D01*
X23198Y215730D01*
X23123Y215707D01*
X23051Y215673D01*
X22987Y215629D01*
X22930Y215574D01*
X22882Y215512D01*
X22844Y215443D01*
X22818Y215368D01*
X22804Y215291D01*
X22802Y215212D01*
X22812Y215134D01*
X22835Y215059D01*
X22869Y214987D01*
X22913Y214923D01*
X22968Y214866D01*
X23031Y214819D01*
X23362Y214620D01*
Y207976D01*
X23292Y207961D01*
X23218Y207934D01*
X23149Y207895D01*
X23088Y207846D01*
X23035Y207788D01*
X22991Y207722D01*
X22960Y207650D01*
X22884Y207418D01*
X22831Y207179D01*
X22799Y206937D01*
X22789Y206692D01*
X22799Y206448D01*
X22831Y206206D01*
X22884Y205967D01*
X22958Y205734D01*
X22989Y205662D01*
X23033Y205596D01*
X23086Y205537D01*
X23148Y205488D01*
X23217Y205449D01*
X23291Y205422D01*
X23362Y205407D01*
Y202071D01*
X23292Y202056D01*
X23218Y202029D01*
X23149Y201990D01*
X23088Y201941D01*
X23035Y201883D01*
X22991Y201817D01*
X22960Y201745D01*
X22884Y201513D01*
X22831Y201274D01*
X22799Y201032D01*
X22789Y200787D01*
X22799Y200543D01*
X22831Y200301D01*
X22884Y200062D01*
X22958Y199829D01*
X22989Y199757D01*
X23033Y199691D01*
X23086Y199632D01*
X23148Y199583D01*
X23217Y199544D01*
X23291Y199517D01*
X23362Y199502D01*
Y196165D01*
X23292Y196150D01*
X23218Y196123D01*
X23149Y196084D01*
X23088Y196035D01*
X23035Y195977D01*
X22991Y195911D01*
X22960Y195839D01*
X22884Y195607D01*
X22831Y195368D01*
X22799Y195126D01*
X22789Y194881D01*
X22799Y194637D01*
X22831Y194395D01*
X22884Y194156D01*
X22958Y193923D01*
X22989Y193851D01*
X23033Y193785D01*
X23086Y193726D01*
X23148Y193677D01*
X23217Y193638D01*
X23291Y193611D01*
X23362Y193596D01*
Y190260D01*
X23292Y190245D01*
X23218Y190218D01*
X23149Y190179D01*
X23088Y190130D01*
X23035Y190072D01*
X22991Y190006D01*
X22960Y189934D01*
X22884Y189702D01*
X22831Y189463D01*
X22799Y189221D01*
X22789Y188976D01*
X22799Y188732D01*
X22831Y188490D01*
X22884Y188251D01*
X22958Y188018D01*
X22989Y187946D01*
X23033Y187880D01*
X23086Y187821D01*
X23148Y187772D01*
X23217Y187733D01*
X23291Y187706D01*
X23362Y187691D01*
Y178449D01*
X23292Y178434D01*
X23218Y178407D01*
X23149Y178368D01*
X23088Y178319D01*
X23035Y178261D01*
X22991Y178195D01*
X22960Y178123D01*
X22884Y177891D01*
X22831Y177652D01*
X22799Y177410D01*
X22789Y177165D01*
X22799Y176921D01*
X22831Y176679D01*
X22884Y176440D01*
X22958Y176207D01*
X22989Y176135D01*
X23033Y176069D01*
X23086Y176010D01*
X23148Y175961D01*
X23217Y175922D01*
X23291Y175895D01*
X23362Y175880D01*
Y167275D01*
X22947Y167021D01*
X22885Y166971D01*
X22831Y166912D01*
X22788Y166846D01*
X22755Y166774D01*
X22733Y166697D01*
X22725Y166619D01*
X22728Y166539D01*
X22744Y166462D01*
X22772Y166387D01*
X22811Y166318D01*
X22860Y166256D01*
X22919Y166202D01*
X22985Y166159D01*
X23057Y166126D01*
X23134Y166104D01*
X23212Y166096D01*
X23292Y166099D01*
X23362Y166114D01*
Y158651D01*
X23355Y158652D01*
X23276Y158654D01*
X23198Y158644D01*
X23123Y158621D01*
X23051Y158587D01*
X22987Y158543D01*
X22930Y158488D01*
X22882Y158426D01*
X22844Y158357D01*
X22818Y158282D01*
X22804Y158205D01*
X22802Y158126D01*
X22812Y158048D01*
X22835Y157973D01*
X22869Y157901D01*
X22913Y157837D01*
X22968Y157780D01*
X23031Y157733D01*
X23362Y157534D01*
Y142528D01*
X23185Y142514D01*
X22756Y142411D01*
X22349Y142243D01*
X21973Y142012D01*
X21638Y141726D01*
X21432Y141485D01*
Y159304D01*
X21443Y159286D01*
X21493Y159224D01*
X21552Y159170D01*
X21618Y159127D01*
X21690Y159094D01*
X21767Y159072D01*
X21845Y159064D01*
X21925Y159067D01*
X22002Y159083D01*
X22077Y159111D01*
X22146Y159150D01*
X22208Y159199D01*
X22262Y159258D01*
X22305Y159324D01*
X22338Y159396D01*
X22360Y159473D01*
X22368Y159551D01*
X22365Y159631D01*
X22349Y159708D01*
X22321Y159783D01*
X22281Y159851D01*
X22063Y160199D01*
X21881Y160567D01*
X21733Y160950D01*
X21621Y161345D01*
X21544Y161748D01*
X21503Y162156D01*
X21499Y162567D01*
X21533Y162976D01*
X21603Y163381D01*
X21709Y163777D01*
X21850Y164163D01*
X22025Y164534D01*
X22233Y164888D01*
X22273Y164957D01*
X22299Y165032D01*
X22313Y165109D01*
X22315Y165188D01*
X22305Y165266D01*
X22282Y165341D01*
X22248Y165413D01*
X22204Y165477D01*
X22149Y165534D01*
X22087Y165582D01*
X22018Y165620D01*
X21943Y165646D01*
X21866Y165660D01*
X21787Y165662D01*
X21709Y165652D01*
X21634Y165629D01*
X21562Y165595D01*
X21498Y165551D01*
X21441Y165496D01*
X21432Y165484D01*
Y216390D01*
X21443Y216372D01*
X21493Y216310D01*
X21552Y216256D01*
X21618Y216213D01*
X21690Y216180D01*
X21767Y216158D01*
X21845Y216150D01*
X21925Y216153D01*
X22002Y216169D01*
X22077Y216197D01*
X22146Y216236D01*
X22208Y216285D01*
X22262Y216344D01*
X22305Y216410D01*
X22338Y216482D01*
X22360Y216559D01*
X22368Y216637D01*
X22365Y216717D01*
X22349Y216794D01*
X22321Y216869D01*
X22281Y216937D01*
X22063Y217285D01*
X21881Y217653D01*
X21733Y218036D01*
X21621Y218431D01*
X21544Y218834D01*
X21503Y219242D01*
X21499Y219653D01*
X21533Y220062D01*
X21603Y220467D01*
X21709Y220863D01*
X21850Y221249D01*
X22025Y221620D01*
X22233Y221974D01*
X22273Y222043D01*
X22299Y222118D01*
X22313Y222195D01*
X22315Y222274D01*
X22305Y222352D01*
X22282Y222427D01*
X22248Y222499D01*
X22204Y222563D01*
X22149Y222620D01*
X22087Y222668D01*
X22018Y222706D01*
X21943Y222732D01*
X21866Y222746D01*
X21787Y222748D01*
X21709Y222738D01*
X21634Y222715D01*
X21562Y222681D01*
X21498Y222637D01*
X21441Y222582D01*
X21432Y222570D01*
Y226377D01*
G37*
G36*
X16861D02*X21432D01*
Y222570D01*
X21394Y222519D01*
X21136Y222090D01*
X20922Y221637D01*
X20750Y221166D01*
X20621Y220682D01*
X20535Y220189D01*
X20495Y219689D01*
X20499Y219188D01*
X20548Y218690D01*
X20642Y218198D01*
X20780Y217716D01*
X20960Y217249D01*
X21182Y216799D01*
X21432Y216390D01*
Y165484D01*
X21394Y165433D01*
X21136Y165004D01*
X20922Y164551D01*
X20750Y164080D01*
X20621Y163596D01*
X20535Y163103D01*
X20495Y162603D01*
X20499Y162102D01*
X20548Y161604D01*
X20642Y161112D01*
X20780Y160630D01*
X20960Y160163D01*
X21182Y159713D01*
X21432Y159304D01*
Y141485D01*
X21352Y141391D01*
X21121Y141015D01*
X20953Y140608D01*
X20850Y140179D01*
X20815Y139740D01*
X20850Y139301D01*
X20953Y138872D01*
X21121Y138465D01*
X21352Y138089D01*
X21432Y137995D01*
Y117058D01*
X16861Y112487D01*
Y226377D01*
G37*
G36*
X11804Y101156D02*X11811Y101155D01*
X12517Y101211D01*
X13206Y101376D01*
X13860Y101647D01*
X14464Y102017D01*
X15003Y102477D01*
X15463Y103016D01*
X15833Y103620D01*
X16104Y104274D01*
X16269Y104963D01*
X16311Y105669D01*
X16269Y106375D01*
X16104Y107064D01*
X15980Y107364D01*
X16861Y108245D01*
Y1968D01*
X14384D01*
X14464Y2017D01*
X15003Y2477D01*
X15463Y3016D01*
X15833Y3620D01*
X16104Y4274D01*
X16269Y4963D01*
X16311Y5669D01*
X16269Y6375D01*
X16104Y7064D01*
X15833Y7718D01*
X15463Y8322D01*
X15003Y8861D01*
X14464Y9321D01*
X13860Y9691D01*
X13206Y9962D01*
X12517Y10127D01*
X11811Y10183D01*
X11804Y10182D01*
Y11156D01*
X11811Y11155D01*
X12517Y11211D01*
X13206Y11376D01*
X13860Y11647D01*
X14464Y12017D01*
X15003Y12477D01*
X15463Y13016D01*
X15833Y13620D01*
X16104Y14274D01*
X16269Y14963D01*
X16311Y15669D01*
X16269Y16375D01*
X16104Y17064D01*
X15833Y17718D01*
X15463Y18322D01*
X15003Y18861D01*
X14464Y19321D01*
X13860Y19691D01*
X13206Y19962D01*
X12517Y20127D01*
X11811Y20183D01*
X11804Y20182D01*
Y21156D01*
X11811Y21155D01*
X12517Y21211D01*
X13206Y21376D01*
X13860Y21647D01*
X14464Y22017D01*
X15003Y22477D01*
X15463Y23016D01*
X15833Y23620D01*
X16104Y24274D01*
X16269Y24963D01*
X16311Y25669D01*
X16269Y26375D01*
X16104Y27064D01*
X15833Y27718D01*
X15463Y28322D01*
X15003Y28861D01*
X14464Y29321D01*
X13860Y29691D01*
X13206Y29962D01*
X12517Y30127D01*
X11811Y30183D01*
X11804Y30182D01*
Y31156D01*
X11811Y31155D01*
X12517Y31211D01*
X13206Y31376D01*
X13860Y31647D01*
X14464Y32017D01*
X15003Y32477D01*
X15463Y33016D01*
X15833Y33620D01*
X16104Y34274D01*
X16269Y34963D01*
X16311Y35669D01*
X16269Y36375D01*
X16104Y37064D01*
X15833Y37718D01*
X15463Y38322D01*
X15003Y38861D01*
X14464Y39321D01*
X13860Y39691D01*
X13206Y39962D01*
X12517Y40127D01*
X11811Y40183D01*
X11804Y40182D01*
Y41156D01*
X11811Y41155D01*
X12517Y41211D01*
X13206Y41376D01*
X13860Y41647D01*
X14464Y42017D01*
X15003Y42477D01*
X15463Y43016D01*
X15833Y43620D01*
X16104Y44274D01*
X16269Y44963D01*
X16311Y45669D01*
X16269Y46375D01*
X16104Y47064D01*
X15833Y47718D01*
X15463Y48322D01*
X15003Y48861D01*
X14464Y49321D01*
X13860Y49691D01*
X13206Y49962D01*
X12517Y50127D01*
X11811Y50183D01*
X11804Y50182D01*
Y51156D01*
X11811Y51155D01*
X12517Y51211D01*
X13206Y51376D01*
X13860Y51647D01*
X14464Y52017D01*
X15003Y52477D01*
X15463Y53016D01*
X15833Y53620D01*
X16104Y54274D01*
X16269Y54963D01*
X16311Y55669D01*
X16269Y56375D01*
X16104Y57064D01*
X15833Y57718D01*
X15463Y58322D01*
X15003Y58861D01*
X14464Y59321D01*
X13860Y59691D01*
X13206Y59962D01*
X12517Y60127D01*
X11811Y60183D01*
X11804Y60182D01*
Y61156D01*
X11811Y61155D01*
X12517Y61211D01*
X13206Y61376D01*
X13860Y61647D01*
X14464Y62017D01*
X15003Y62477D01*
X15463Y63016D01*
X15833Y63620D01*
X16104Y64274D01*
X16269Y64963D01*
X16311Y65669D01*
X16269Y66375D01*
X16104Y67064D01*
X15833Y67718D01*
X15463Y68322D01*
X15003Y68861D01*
X14464Y69321D01*
X13860Y69691D01*
X13206Y69962D01*
X12517Y70127D01*
X11811Y70183D01*
X11804Y70182D01*
Y71156D01*
X11811Y71155D01*
X12517Y71211D01*
X13206Y71376D01*
X13860Y71647D01*
X14464Y72017D01*
X15003Y72477D01*
X15463Y73016D01*
X15833Y73620D01*
X16104Y74274D01*
X16269Y74963D01*
X16311Y75669D01*
X16269Y76375D01*
X16104Y77064D01*
X15833Y77718D01*
X15463Y78322D01*
X15003Y78861D01*
X14464Y79321D01*
X13860Y79691D01*
X13206Y79962D01*
X12517Y80127D01*
X11811Y80183D01*
X11804Y80182D01*
Y81156D01*
X11811Y81155D01*
X12517Y81211D01*
X13206Y81376D01*
X13860Y81647D01*
X14464Y82017D01*
X15003Y82477D01*
X15463Y83016D01*
X15833Y83620D01*
X16104Y84274D01*
X16269Y84963D01*
X16311Y85669D01*
X16269Y86375D01*
X16104Y87064D01*
X15833Y87718D01*
X15463Y88322D01*
X15003Y88861D01*
X14464Y89321D01*
X13860Y89691D01*
X13206Y89962D01*
X12517Y90127D01*
X11811Y90183D01*
X11804Y90182D01*
Y91156D01*
X11811Y91155D01*
X12517Y91211D01*
X13206Y91376D01*
X13860Y91647D01*
X14464Y92017D01*
X15003Y92477D01*
X15463Y93016D01*
X15833Y93620D01*
X16104Y94274D01*
X16269Y94963D01*
X16311Y95669D01*
X16269Y96375D01*
X16104Y97064D01*
X15833Y97718D01*
X15463Y98322D01*
X15003Y98861D01*
X14464Y99321D01*
X13860Y99691D01*
X13206Y99962D01*
X12517Y100127D01*
X11811Y100183D01*
X11804Y100182D01*
Y101156D01*
G37*
G36*
X15425Y226377D02*X16861D01*
Y112487D01*
X15425Y111051D01*
Y113527D01*
X15469Y113535D01*
X15581Y113572D01*
X15686Y113627D01*
X15781Y113697D01*
X15864Y113781D01*
X15932Y113877D01*
X15983Y113984D01*
X16130Y114390D01*
X16233Y114810D01*
X16295Y115238D01*
X16316Y115669D01*
X16295Y116101D01*
X16233Y116529D01*
X16130Y116949D01*
X15988Y117357D01*
X15934Y117463D01*
X15865Y117559D01*
X15782Y117644D01*
X15687Y117714D01*
X15582Y117769D01*
X15470Y117807D01*
X15425Y117814D01*
Y122971D01*
X15463Y123016D01*
X15833Y123620D01*
X16104Y124274D01*
X16269Y124963D01*
X16311Y125669D01*
X16269Y126375D01*
X16104Y127064D01*
X15833Y127718D01*
X15463Y128322D01*
X15425Y128367D01*
Y132971D01*
X15463Y133016D01*
X15833Y133620D01*
X16104Y134274D01*
X16269Y134963D01*
X16311Y135669D01*
X16269Y136375D01*
X16104Y137064D01*
X15833Y137718D01*
X15463Y138322D01*
X15425Y138367D01*
Y141300D01*
X15494Y141328D01*
X15695Y141452D01*
X15875Y141605D01*
X16028Y141785D01*
X16152Y141986D01*
X16242Y142204D01*
X16297Y142434D01*
X16311Y142669D01*
X16297Y148904D01*
X16242Y149134D01*
X16152Y149352D01*
X16028Y149553D01*
X15875Y149733D01*
X15695Y149886D01*
X15494Y150010D01*
X15425Y150038D01*
Y226377D01*
G37*
G36*
Y138367D02*X15003Y138861D01*
X14464Y139321D01*
X13860Y139691D01*
X13206Y139962D01*
X12517Y140127D01*
X11811Y140183D01*
X11804Y140182D01*
Y141176D01*
X15046Y141183D01*
X15276Y141238D01*
X15425Y141300D01*
Y138367D01*
G37*
G36*
Y128367D02*X15003Y128861D01*
X14464Y129321D01*
X13860Y129691D01*
X13206Y129962D01*
X12517Y130127D01*
X11811Y130183D01*
X11804Y130182D01*
Y131156D01*
X11811Y131155D01*
X12517Y131211D01*
X13206Y131376D01*
X13860Y131647D01*
X14464Y132017D01*
X15003Y132477D01*
X15425Y132971D01*
Y128367D01*
G37*
G36*
Y111051D02*X13987Y109613D01*
X13860Y109691D01*
X13206Y109962D01*
X12517Y110127D01*
X11811Y110183D01*
X11804Y110182D01*
Y111164D01*
X11811D01*
X12242Y111185D01*
X12670Y111247D01*
X13090Y111350D01*
X13498Y111492D01*
X13604Y111546D01*
X13700Y111615D01*
X13785Y111698D01*
X13855Y111793D01*
X13910Y111898D01*
X13948Y112010D01*
X13967Y112127D01*
X13968Y112246D01*
X13951Y112363D01*
X13915Y112476D01*
X13862Y112582D01*
X13793Y112678D01*
X13710Y112763D01*
X13615Y112833D01*
X13510Y112888D01*
X13398Y112926D01*
X13281Y112945D01*
X13162Y112946D01*
X13045Y112929D01*
X12933Y112891D01*
X12663Y112793D01*
X12383Y112725D01*
X12098Y112683D01*
X11811Y112669D01*
X11804D01*
Y118669D01*
X11811D01*
X12098Y118656D01*
X12383Y118614D01*
X12663Y118546D01*
X12934Y118451D01*
X13046Y118412D01*
X13163Y118395D01*
X13281Y118396D01*
X13397Y118416D01*
X13509Y118453D01*
X13614Y118508D01*
X13709Y118578D01*
X13792Y118662D01*
X13860Y118758D01*
X13913Y118864D01*
X13949Y118977D01*
X13966Y119094D01*
X13965Y119212D01*
X13945Y119328D01*
X13908Y119440D01*
X13853Y119545D01*
X13783Y119640D01*
X13699Y119723D01*
X13603Y119791D01*
X13496Y119842D01*
X13090Y119989D01*
X12670Y120092D01*
X12242Y120154D01*
X11811Y120175D01*
X11804D01*
Y121156D01*
X11811Y121155D01*
X12517Y121211D01*
X13206Y121376D01*
X13860Y121647D01*
X14464Y122017D01*
X15003Y122477D01*
X15425Y122971D01*
Y117814D01*
X15353Y117826D01*
X15234Y117827D01*
X15117Y117810D01*
X15004Y117774D01*
X14898Y117721D01*
X14802Y117652D01*
X14717Y117569D01*
X14647Y117474D01*
X14592Y117369D01*
X14554Y117257D01*
X14535Y117140D01*
X14534Y117021D01*
X14551Y116904D01*
X14589Y116792D01*
X14687Y116522D01*
X14755Y116242D01*
X14797Y115957D01*
X14811Y115669D01*
X14797Y115382D01*
X14755Y115097D01*
X14687Y114817D01*
X14592Y114546D01*
X14553Y114434D01*
X14536Y114317D01*
X14537Y114199D01*
X14557Y114083D01*
X14594Y113971D01*
X14649Y113866D01*
X14719Y113771D01*
X14803Y113688D01*
X14899Y113620D01*
X15005Y113567D01*
X15118Y113531D01*
X15235Y113514D01*
X15353Y113515D01*
X15425Y113527D01*
Y111051D01*
G37*
G36*
X11804Y226377D02*X15425D01*
Y150038D01*
X15276Y150100D01*
X15046Y150155D01*
X14811Y150169D01*
X11804Y150162D01*
Y161151D01*
X11819Y161207D01*
X11905Y161700D01*
X11945Y162200D01*
X11941Y162701D01*
X11892Y163199D01*
X11804Y163660D01*
Y218237D01*
X11819Y218293D01*
X11905Y218786D01*
X11945Y219286D01*
X11941Y219787D01*
X11892Y220285D01*
X11804Y220746D01*
Y226377D01*
G37*
G36*
X8196Y2973D02*X8619Y2477D01*
X9158Y2017D01*
X9238Y1968D01*
X8196D01*
Y2973D01*
G37*
G36*
Y12973D02*X8619Y12477D01*
X9158Y12017D01*
X9762Y11647D01*
X10416Y11376D01*
X11105Y11211D01*
X11804Y11156D01*
Y10182D01*
X11105Y10127D01*
X10416Y9962D01*
X9762Y9691D01*
X9158Y9321D01*
X8619Y8861D01*
X8196Y8365D01*
Y12973D01*
G37*
G36*
Y22973D02*X8619Y22477D01*
X9158Y22017D01*
X9762Y21647D01*
X10416Y21376D01*
X11105Y21211D01*
X11804Y21156D01*
Y20182D01*
X11105Y20127D01*
X10416Y19962D01*
X9762Y19691D01*
X9158Y19321D01*
X8619Y18861D01*
X8196Y18365D01*
Y22973D01*
G37*
G36*
Y32973D02*X8619Y32477D01*
X9158Y32017D01*
X9762Y31647D01*
X10416Y31376D01*
X11105Y31211D01*
X11804Y31156D01*
Y30182D01*
X11105Y30127D01*
X10416Y29962D01*
X9762Y29691D01*
X9158Y29321D01*
X8619Y28861D01*
X8196Y28365D01*
Y32973D01*
G37*
G36*
Y42973D02*X8619Y42477D01*
X9158Y42017D01*
X9762Y41647D01*
X10416Y41376D01*
X11105Y41211D01*
X11804Y41156D01*
Y40182D01*
X11105Y40127D01*
X10416Y39962D01*
X9762Y39691D01*
X9158Y39321D01*
X8619Y38861D01*
X8196Y38365D01*
Y42973D01*
G37*
G36*
Y52973D02*X8619Y52477D01*
X9158Y52017D01*
X9762Y51647D01*
X10416Y51376D01*
X11105Y51211D01*
X11804Y51156D01*
Y50182D01*
X11105Y50127D01*
X10416Y49962D01*
X9762Y49691D01*
X9158Y49321D01*
X8619Y48861D01*
X8196Y48365D01*
Y52973D01*
G37*
G36*
Y62973D02*X8619Y62477D01*
X9158Y62017D01*
X9762Y61647D01*
X10416Y61376D01*
X11105Y61211D01*
X11804Y61156D01*
Y60182D01*
X11105Y60127D01*
X10416Y59962D01*
X9762Y59691D01*
X9158Y59321D01*
X8619Y58861D01*
X8196Y58365D01*
Y62973D01*
G37*
G36*
Y72973D02*X8619Y72477D01*
X9158Y72017D01*
X9762Y71647D01*
X10416Y71376D01*
X11105Y71211D01*
X11804Y71156D01*
Y70182D01*
X11105Y70127D01*
X10416Y69962D01*
X9762Y69691D01*
X9158Y69321D01*
X8619Y68861D01*
X8196Y68365D01*
Y72973D01*
G37*
G36*
Y82973D02*X8619Y82477D01*
X9158Y82017D01*
X9762Y81647D01*
X10416Y81376D01*
X11105Y81211D01*
X11804Y81156D01*
Y80182D01*
X11105Y80127D01*
X10416Y79962D01*
X9762Y79691D01*
X9158Y79321D01*
X8619Y78861D01*
X8196Y78365D01*
Y82973D01*
G37*
G36*
Y92973D02*X8619Y92477D01*
X9158Y92017D01*
X9762Y91647D01*
X10416Y91376D01*
X11105Y91211D01*
X11804Y91156D01*
Y90182D01*
X11105Y90127D01*
X10416Y89962D01*
X9762Y89691D01*
X9158Y89321D01*
X8619Y88861D01*
X8196Y88365D01*
Y92973D01*
G37*
G36*
Y102973D02*X8619Y102477D01*
X9158Y102017D01*
X9762Y101647D01*
X10416Y101376D01*
X11105Y101211D01*
X11804Y101156D01*
Y100182D01*
X11105Y100127D01*
X10416Y99962D01*
X9762Y99691D01*
X9158Y99321D01*
X8619Y98861D01*
X8196Y98365D01*
Y102973D01*
G37*
G36*
Y122973D02*X8619Y122477D01*
X9158Y122017D01*
X9762Y121647D01*
X10416Y121376D01*
X11105Y121211D01*
X11804Y121156D01*
Y120175D01*
X11379Y120154D01*
X10951Y120092D01*
X10531Y119989D01*
X10123Y119847D01*
X10017Y119793D01*
X9921Y119724D01*
X9836Y119641D01*
X9766Y119546D01*
X9711Y119441D01*
X9673Y119329D01*
X9654Y119212D01*
X9653Y119093D01*
X9670Y118976D01*
X9706Y118863D01*
X9759Y118757D01*
X9828Y118661D01*
X9911Y118576D01*
X10006Y118506D01*
X10111Y118451D01*
X10223Y118413D01*
X10340Y118394D01*
X10459Y118393D01*
X10576Y118410D01*
X10688Y118448D01*
X10958Y118546D01*
X11238Y118614D01*
X11523Y118656D01*
X11804Y118669D01*
Y112669D01*
X11523Y112683D01*
X11238Y112725D01*
X10958Y112793D01*
X10687Y112888D01*
X10575Y112927D01*
X10458Y112944D01*
X10340Y112943D01*
X10224Y112923D01*
X10112Y112886D01*
X10007Y112831D01*
X9912Y112761D01*
X9829Y112677D01*
X9761Y112581D01*
X9708Y112475D01*
X9672Y112362D01*
X9655Y112245D01*
X9656Y112127D01*
X9676Y112011D01*
X9713Y111899D01*
X9768Y111794D01*
X9838Y111699D01*
X9922Y111616D01*
X10018Y111548D01*
X10125Y111497D01*
X10531Y111350D01*
X10951Y111247D01*
X11379Y111185D01*
X11804Y111164D01*
Y110182D01*
X11105Y110127D01*
X10416Y109962D01*
X9762Y109691D01*
X9158Y109321D01*
X8619Y108861D01*
X8196Y108365D01*
Y113525D01*
X8268Y113513D01*
X8387Y113512D01*
X8504Y113529D01*
X8617Y113565D01*
X8723Y113618D01*
X8819Y113687D01*
X8904Y113770D01*
X8974Y113865D01*
X9029Y113970D01*
X9067Y114082D01*
X9086Y114199D01*
X9087Y114318D01*
X9070Y114435D01*
X9032Y114547D01*
X8934Y114817D01*
X8866Y115097D01*
X8824Y115382D01*
X8811Y115669D01*
X8824Y115957D01*
X8866Y116242D01*
X8934Y116522D01*
X9029Y116793D01*
X9068Y116905D01*
X9085Y117022D01*
X9084Y117140D01*
X9064Y117256D01*
X9027Y117368D01*
X8972Y117473D01*
X8902Y117568D01*
X8818Y117651D01*
X8722Y117719D01*
X8616Y117772D01*
X8503Y117808D01*
X8386Y117825D01*
X8268Y117824D01*
X8196Y117812D01*
Y122973D01*
G37*
G36*
Y132973D02*X8619Y132477D01*
X9158Y132017D01*
X9762Y131647D01*
X10416Y131376D01*
X11105Y131211D01*
X11804Y131156D01*
Y130182D01*
X11105Y130127D01*
X10416Y129962D01*
X9762Y129691D01*
X9158Y129321D01*
X8619Y128861D01*
X8196Y128365D01*
Y132973D01*
G37*
G36*
Y141300D02*X8346Y141238D01*
X8576Y141183D01*
X8811Y141169D01*
X11804Y141176D01*
Y140182D01*
X11105Y140127D01*
X10416Y139962D01*
X9762Y139691D01*
X9158Y139321D01*
X8619Y138861D01*
X8196Y138365D01*
Y141300D01*
G37*
G36*
Y226377D02*X11804D01*
Y220746D01*
X11798Y220777D01*
X11660Y221259D01*
X11480Y221726D01*
X11258Y222176D01*
X10997Y222603D01*
X10947Y222665D01*
X10888Y222719D01*
X10822Y222762D01*
X10750Y222795D01*
X10673Y222817D01*
X10595Y222825D01*
X10515Y222822D01*
X10438Y222806D01*
X10363Y222778D01*
X10294Y222739D01*
X10232Y222690D01*
X10178Y222631D01*
X10135Y222565D01*
X10102Y222493D01*
X10080Y222416D01*
X10072Y222338D01*
X10075Y222258D01*
X10091Y222181D01*
X10119Y222106D01*
X10159Y222038D01*
X10377Y221690D01*
X10559Y221322D01*
X10707Y220939D01*
X10819Y220544D01*
X10896Y220141D01*
X10937Y219733D01*
X10941Y219322D01*
X10907Y218913D01*
X10837Y218508D01*
X10731Y218112D01*
X10590Y217726D01*
X10415Y217355D01*
X10207Y217001D01*
X10167Y216932D01*
X10141Y216857D01*
X10127Y216780D01*
X10125Y216701D01*
X10135Y216623D01*
X10158Y216548D01*
X10192Y216476D01*
X10236Y216412D01*
X10291Y216355D01*
X10353Y216307D01*
X10422Y216269D01*
X10497Y216243D01*
X10574Y216229D01*
X10653Y216227D01*
X10731Y216237D01*
X10806Y216260D01*
X10878Y216294D01*
X10942Y216338D01*
X10999Y216393D01*
X11046Y216456D01*
X11304Y216885D01*
X11518Y217338D01*
X11690Y217809D01*
X11804Y218237D01*
Y163660D01*
X11798Y163691D01*
X11660Y164173D01*
X11480Y164640D01*
X11258Y165090D01*
X10997Y165517D01*
X10947Y165579D01*
X10888Y165633D01*
X10822Y165676D01*
X10750Y165709D01*
X10673Y165731D01*
X10595Y165739D01*
X10515Y165736D01*
X10438Y165720D01*
X10363Y165692D01*
X10294Y165653D01*
X10232Y165604D01*
X10178Y165545D01*
X10135Y165479D01*
X10102Y165407D01*
X10080Y165330D01*
X10072Y165252D01*
X10075Y165172D01*
X10091Y165095D01*
X10119Y165020D01*
X10159Y164952D01*
X10377Y164604D01*
X10559Y164236D01*
X10707Y163853D01*
X10819Y163458D01*
X10896Y163055D01*
X10937Y162647D01*
X10941Y162236D01*
X10907Y161827D01*
X10837Y161422D01*
X10731Y161026D01*
X10590Y160640D01*
X10415Y160269D01*
X10207Y159915D01*
X10167Y159846D01*
X10141Y159771D01*
X10127Y159694D01*
X10125Y159615D01*
X10135Y159537D01*
X10158Y159462D01*
X10192Y159390D01*
X10236Y159326D01*
X10291Y159269D01*
X10353Y159221D01*
X10422Y159183D01*
X10497Y159157D01*
X10574Y159143D01*
X10653Y159141D01*
X10731Y159151D01*
X10806Y159174D01*
X10878Y159208D01*
X10942Y159252D01*
X10999Y159307D01*
X11046Y159370D01*
X11304Y159799D01*
X11518Y160252D01*
X11690Y160723D01*
X11804Y161151D01*
Y150162D01*
X8576Y150155D01*
X8346Y150100D01*
X8196Y150038D01*
Y157137D01*
X8616Y157299D01*
X9066Y157521D01*
X9493Y157782D01*
X9555Y157832D01*
X9609Y157891D01*
X9652Y157957D01*
X9685Y158029D01*
X9707Y158106D01*
X9715Y158184D01*
X9712Y158264D01*
X9696Y158341D01*
X9668Y158416D01*
X9629Y158485D01*
X9580Y158547D01*
X9521Y158601D01*
X9455Y158644D01*
X9383Y158677D01*
X9306Y158699D01*
X9228Y158707D01*
X9148Y158704D01*
X9071Y158688D01*
X8996Y158660D01*
X8928Y158620D01*
X8580Y158402D01*
X8212Y158220D01*
X8196Y158214D01*
Y166587D01*
X8510Y166439D01*
X8864Y166231D01*
X8933Y166191D01*
X9008Y166165D01*
X9085Y166151D01*
X9164Y166149D01*
X9242Y166159D01*
X9317Y166182D01*
X9389Y166216D01*
X9453Y166260D01*
X9510Y166315D01*
X9558Y166377D01*
X9596Y166446D01*
X9622Y166521D01*
X9636Y166598D01*
X9638Y166677D01*
X9628Y166755D01*
X9605Y166830D01*
X9571Y166902D01*
X9527Y166966D01*
X9472Y167023D01*
X9409Y167070D01*
X8980Y167328D01*
X8527Y167542D01*
X8196Y167663D01*
Y214223D01*
X8616Y214385D01*
X9066Y214607D01*
X9493Y214868D01*
X9555Y214918D01*
X9609Y214977D01*
X9652Y215043D01*
X9685Y215115D01*
X9707Y215192D01*
X9715Y215270D01*
X9712Y215350D01*
X9696Y215427D01*
X9668Y215502D01*
X9629Y215571D01*
X9580Y215633D01*
X9521Y215687D01*
X9455Y215730D01*
X9383Y215763D01*
X9306Y215785D01*
X9228Y215793D01*
X9148Y215790D01*
X9071Y215774D01*
X8996Y215746D01*
X8928Y215706D01*
X8580Y215488D01*
X8212Y215306D01*
X8196Y215300D01*
Y223673D01*
X8510Y223525D01*
X8864Y223317D01*
X8933Y223277D01*
X9008Y223251D01*
X9085Y223237D01*
X9164Y223235D01*
X9242Y223245D01*
X9317Y223268D01*
X9389Y223302D01*
X9453Y223346D01*
X9510Y223401D01*
X9558Y223463D01*
X9596Y223532D01*
X9622Y223607D01*
X9636Y223684D01*
X9638Y223763D01*
X9628Y223841D01*
X9605Y223916D01*
X9571Y223988D01*
X9527Y224052D01*
X9472Y224109D01*
X9409Y224156D01*
X8980Y224414D01*
X8527Y224628D01*
X8196Y224749D01*
Y226377D01*
G37*
G36*
X1969D02*X8196D01*
Y224749D01*
X8056Y224800D01*
X7572Y224929D01*
X7079Y225015D01*
X6579Y225055D01*
X6078Y225051D01*
X5580Y225002D01*
X5088Y224908D01*
X4606Y224770D01*
X4139Y224590D01*
X3689Y224368D01*
X3262Y224107D01*
X3200Y224057D01*
X3146Y223998D01*
X3103Y223932D01*
X3070Y223860D01*
X3048Y223783D01*
X3040Y223705D01*
X3043Y223625D01*
X3059Y223548D01*
X3087Y223473D01*
X3126Y223404D01*
X3175Y223342D01*
X3234Y223288D01*
X3300Y223245D01*
X3372Y223212D01*
X3449Y223190D01*
X3527Y223182D01*
X3607Y223185D01*
X3684Y223201D01*
X3759Y223229D01*
X3827Y223269D01*
X4175Y223487D01*
X4543Y223669D01*
X4926Y223817D01*
X5321Y223929D01*
X5724Y224006D01*
X6132Y224047D01*
X6543Y224051D01*
X6952Y224017D01*
X7357Y223947D01*
X7753Y223841D01*
X8139Y223700D01*
X8196Y223673D01*
Y215300D01*
X7829Y215158D01*
X7434Y215046D01*
X7031Y214969D01*
X6623Y214928D01*
X6212Y214924D01*
X5803Y214958D01*
X5398Y215028D01*
X5002Y215134D01*
X4616Y215275D01*
X4245Y215450D01*
X3891Y215658D01*
X3822Y215698D01*
X3747Y215724D01*
X3670Y215738D01*
X3591Y215740D01*
X3513Y215730D01*
X3438Y215707D01*
X3366Y215673D01*
X3302Y215629D01*
X3245Y215574D01*
X3197Y215512D01*
X3159Y215443D01*
X3133Y215368D01*
X3119Y215291D01*
X3117Y215212D01*
X3127Y215134D01*
X3150Y215059D01*
X3184Y214987D01*
X3228Y214923D01*
X3283Y214866D01*
X3346Y214819D01*
X3775Y214561D01*
X4228Y214347D01*
X4699Y214175D01*
X5183Y214046D01*
X5676Y213960D01*
X6176Y213920D01*
X6677Y213924D01*
X7175Y213973D01*
X7667Y214067D01*
X8149Y214205D01*
X8196Y214223D01*
Y167663D01*
X8056Y167714D01*
X7572Y167843D01*
X7079Y167929D01*
X6579Y167969D01*
X6078Y167965D01*
X5580Y167916D01*
X5088Y167822D01*
X4606Y167684D01*
X4139Y167504D01*
X3689Y167282D01*
X3262Y167021D01*
X3200Y166971D01*
X3146Y166912D01*
X3103Y166846D01*
X3070Y166774D01*
X3048Y166697D01*
X3040Y166619D01*
X3043Y166539D01*
X3059Y166462D01*
X3087Y166387D01*
X3126Y166318D01*
X3175Y166256D01*
X3234Y166202D01*
X3300Y166159D01*
X3372Y166126D01*
X3449Y166104D01*
X3527Y166096D01*
X3607Y166099D01*
X3684Y166115D01*
X3759Y166143D01*
X3827Y166183D01*
X4175Y166401D01*
X4543Y166583D01*
X4926Y166731D01*
X5321Y166843D01*
X5724Y166920D01*
X6132Y166961D01*
X6543Y166965D01*
X6952Y166931D01*
X7357Y166861D01*
X7753Y166755D01*
X8139Y166614D01*
X8196Y166587D01*
Y158214D01*
X7829Y158072D01*
X7434Y157960D01*
X7031Y157883D01*
X6623Y157842D01*
X6212Y157838D01*
X5803Y157872D01*
X5398Y157942D01*
X5002Y158048D01*
X4616Y158189D01*
X4245Y158364D01*
X3891Y158572D01*
X3822Y158612D01*
X3747Y158638D01*
X3670Y158652D01*
X3591Y158654D01*
X3513Y158644D01*
X3438Y158621D01*
X3366Y158587D01*
X3302Y158543D01*
X3245Y158488D01*
X3197Y158426D01*
X3159Y158357D01*
X3133Y158282D01*
X3119Y158205D01*
X3117Y158126D01*
X3127Y158048D01*
X3150Y157973D01*
X3184Y157901D01*
X3228Y157837D01*
X3283Y157780D01*
X3346Y157733D01*
X3775Y157475D01*
X4228Y157261D01*
X4699Y157089D01*
X5183Y156960D01*
X5676Y156874D01*
X6176Y156834D01*
X6677Y156838D01*
X7175Y156887D01*
X7667Y156981D01*
X8149Y157119D01*
X8196Y157137D01*
Y150038D01*
X8128Y150010D01*
X7927Y149886D01*
X7747Y149733D01*
X7594Y149553D01*
X7470Y149352D01*
X7380Y149134D01*
X7325Y148904D01*
X7311Y148669D01*
X7325Y142434D01*
X7380Y142204D01*
X7470Y141986D01*
X7594Y141785D01*
X7747Y141605D01*
X7927Y141452D01*
X8128Y141328D01*
X8196Y141300D01*
Y138365D01*
X8159Y138322D01*
X7789Y137718D01*
X7518Y137064D01*
X7353Y136375D01*
X7297Y135669D01*
X7353Y134963D01*
X7518Y134274D01*
X7789Y133620D01*
X8159Y133016D01*
X8196Y132973D01*
Y128365D01*
X8159Y128322D01*
X7789Y127718D01*
X7518Y127064D01*
X7353Y126375D01*
X7297Y125669D01*
X7353Y124963D01*
X7518Y124274D01*
X7789Y123620D01*
X8159Y123016D01*
X8196Y122973D01*
Y117812D01*
X8152Y117804D01*
X8040Y117767D01*
X7935Y117712D01*
X7840Y117642D01*
X7757Y117558D01*
X7689Y117462D01*
X7638Y117355D01*
X7491Y116949D01*
X7388Y116529D01*
X7326Y116101D01*
X7305Y115669D01*
X7326Y115238D01*
X7388Y114810D01*
X7491Y114390D01*
X7633Y113982D01*
X7687Y113876D01*
X7756Y113780D01*
X7839Y113695D01*
X7934Y113625D01*
X8039Y113570D01*
X8151Y113532D01*
X8196Y113525D01*
Y108365D01*
X8159Y108322D01*
X7789Y107718D01*
X7518Y107064D01*
X7353Y106375D01*
X7297Y105669D01*
X7353Y104963D01*
X7518Y104274D01*
X7789Y103620D01*
X8159Y103016D01*
X8196Y102973D01*
Y98365D01*
X8159Y98322D01*
X7789Y97718D01*
X7518Y97064D01*
X7353Y96375D01*
X7297Y95669D01*
X7353Y94963D01*
X7518Y94274D01*
X7789Y93620D01*
X8159Y93016D01*
X8196Y92973D01*
Y88365D01*
X8159Y88322D01*
X7789Y87718D01*
X7518Y87064D01*
X7353Y86375D01*
X7297Y85669D01*
X7353Y84963D01*
X7518Y84274D01*
X7789Y83620D01*
X8159Y83016D01*
X8196Y82973D01*
Y78365D01*
X8159Y78322D01*
X7789Y77718D01*
X7518Y77064D01*
X7353Y76375D01*
X7297Y75669D01*
X7353Y74963D01*
X7518Y74274D01*
X7789Y73620D01*
X8159Y73016D01*
X8196Y72973D01*
Y68365D01*
X8159Y68322D01*
X7789Y67718D01*
X7518Y67064D01*
X7353Y66375D01*
X7297Y65669D01*
X7353Y64963D01*
X7518Y64274D01*
X7789Y63620D01*
X8159Y63016D01*
X8196Y62973D01*
Y58365D01*
X8159Y58322D01*
X7789Y57718D01*
X7518Y57064D01*
X7353Y56375D01*
X7297Y55669D01*
X7353Y54963D01*
X7518Y54274D01*
X7789Y53620D01*
X8159Y53016D01*
X8196Y52973D01*
Y48365D01*
X8159Y48322D01*
X7789Y47718D01*
X7518Y47064D01*
X7353Y46375D01*
X7297Y45669D01*
X7353Y44963D01*
X7518Y44274D01*
X7789Y43620D01*
X8159Y43016D01*
X8196Y42973D01*
Y38365D01*
X8159Y38322D01*
X7789Y37718D01*
X7518Y37064D01*
X7353Y36375D01*
X7297Y35669D01*
X7353Y34963D01*
X7518Y34274D01*
X7789Y33620D01*
X8159Y33016D01*
X8196Y32973D01*
Y28365D01*
X8159Y28322D01*
X7789Y27718D01*
X7518Y27064D01*
X7353Y26375D01*
X7297Y25669D01*
X7353Y24963D01*
X7518Y24274D01*
X7789Y23620D01*
X8159Y23016D01*
X8196Y22973D01*
Y18365D01*
X8159Y18322D01*
X7789Y17718D01*
X7518Y17064D01*
X7353Y16375D01*
X7297Y15669D01*
X7353Y14963D01*
X7518Y14274D01*
X7789Y13620D01*
X8159Y13016D01*
X8196Y12973D01*
Y8365D01*
X8159Y8322D01*
X7789Y7718D01*
X7518Y7064D01*
X7353Y6375D01*
X7297Y5669D01*
X7353Y4963D01*
X7518Y4274D01*
X7789Y3620D01*
X8159Y3016D01*
X8196Y2973D01*
Y1968D01*
X1969D01*
Y159111D01*
X2005Y159094D01*
X2082Y159072D01*
X2160Y159064D01*
X2240Y159067D01*
X2317Y159083D01*
X2392Y159111D01*
X2461Y159150D01*
X2523Y159199D01*
X2577Y159258D01*
X2620Y159324D01*
X2653Y159396D01*
X2675Y159473D01*
X2683Y159551D01*
X2680Y159631D01*
X2664Y159708D01*
X2636Y159783D01*
X2596Y159851D01*
X2378Y160199D01*
X2196Y160567D01*
X2048Y160950D01*
X1969Y161229D01*
Y163572D01*
X2024Y163777D01*
X2165Y164163D01*
X2340Y164534D01*
X2548Y164888D01*
X2588Y164957D01*
X2614Y165032D01*
X2628Y165109D01*
X2630Y165188D01*
X2620Y165266D01*
X2597Y165341D01*
X2563Y165413D01*
X2519Y165477D01*
X2464Y165534D01*
X2402Y165582D01*
X2333Y165620D01*
X2258Y165646D01*
X2181Y165660D01*
X2102Y165662D01*
X2024Y165652D01*
X1969Y165635D01*
Y216197D01*
X2005Y216180D01*
X2082Y216158D01*
X2160Y216150D01*
X2240Y216153D01*
X2317Y216169D01*
X2392Y216197D01*
X2461Y216236D01*
X2523Y216285D01*
X2577Y216344D01*
X2620Y216410D01*
X2653Y216482D01*
X2675Y216559D01*
X2683Y216637D01*
X2680Y216717D01*
X2664Y216794D01*
X2636Y216869D01*
X2596Y216937D01*
X2378Y217285D01*
X2196Y217653D01*
X2048Y218036D01*
X1969Y218315D01*
Y220658D01*
X2024Y220863D01*
X2165Y221249D01*
X2340Y221620D01*
X2548Y221974D01*
X2588Y222043D01*
X2614Y222118D01*
X2628Y222195D01*
X2630Y222274D01*
X2620Y222352D01*
X2597Y222427D01*
X2563Y222499D01*
X2519Y222563D01*
X2464Y222620D01*
X2402Y222668D01*
X2333Y222706D01*
X2258Y222732D01*
X2181Y222746D01*
X2102Y222748D01*
X2024Y222738D01*
X1969Y222721D01*
Y226377D01*
G37*
G54D29*X23625Y55095D02*Y84622D01*
X32480Y103347D02*Y93504D01*
X23622Y84646D01*
X11811Y105315D02*X23622Y117126D01*
Y139764D01*
G54D30*X11811Y75669D03*
Y65669D03*
Y55669D03*
Y45669D03*
Y35669D03*
Y25669D03*
Y15669D03*
Y5669D03*
Y115669D03*
Y105669D03*
Y95669D03*
Y85669D03*
G54D28*G36*
X8811Y148669D02*Y142669D01*
X14811D01*
Y148669D01*
X8811D01*
G37*
G54D30*X11811Y135669D03*
Y125669D03*
G54D28*G36*
X68811Y148669D02*Y142669D01*
X74811D01*
Y148669D01*
X68811D01*
G37*
G54D30*X71811Y135669D03*
Y125669D03*
Y115669D03*
G54D31*X56929Y162401D03*
G54D32*X26063D03*
X6378D03*
G54D31*X56929Y219487D03*
G54D32*X80393D03*
X26063D03*
X6378D03*
X80393Y162401D03*
G54D30*X71811Y105669D03*
Y95669D03*
Y85669D03*
Y75669D03*
Y65669D03*
Y55669D03*
Y45669D03*
Y35669D03*
Y25669D03*
Y15669D03*
Y5669D03*
G54D33*X23624Y139740D03*
G54D34*X25591Y206692D03*
Y200787D03*
Y194881D03*
Y188976D03*
Y177165D03*
G54D33*X23625Y55095D03*
G54D34*X38386Y78740D03*
X32480Y103347D03*
X61811Y188976D03*
Y194881D03*
Y200787D03*
Y206692D03*
G54D28*G54D35*G54D28*G54D36*G54D37*G54D38*G54D37*G54D38*G54D36*M02*
