G04 start of page 10 for group -3984 idx -3984 *
G04 Title: (unknown), fab *
G04 Creator: pcb 1.99z *
G04 CreationDate: Sat 25 Jun 2011 09:43:41 PM GMT UTC *
G04 For: russ *
G04 Format: Gerber/RS-274X *
G04 PCB-Dimensions: 86614 228346 *
G04 PCB-Coordinate-Origin: lower left *
%MOIN*%
%FSLAX25Y25*%
%LNFAB*%
%ADD70C,0.0100*%
%ADD69C,0.0060*%
%ADD68C,0.0080*%
G54D68*X41707Y33096D02*X44907D01*
X41707D02*Y29896D01*
X44907D01*
Y33096D02*Y29896D01*
X13400Y241196D02*X16600D01*
X13400D02*Y237996D01*
X16600D01*
Y241196D02*Y237996D01*
G54D69*X140000Y241846D02*Y235846D01*
Y241846D02*Y241096D01*
X143750Y237346D01*
Y241846D02*Y235846D01*
X145551Y241096D02*Y236596D01*
Y241096D02*X146301Y241846D01*
X147801D01*
X148551Y241096D01*
Y236596D01*
X147801Y235846D02*X148551Y236596D01*
X146301Y235846D02*X147801D01*
X145551Y236596D02*X146301Y235846D01*
X140000Y232595D02*X150353D01*
X98750Y235846D02*X100250D01*
X99500Y241846D02*Y235846D01*
X98000Y240346D02*X99500Y241846D01*
X98000Y232595D02*X102051D01*
X45000Y236596D02*X45750Y235846D01*
X45000Y241096D02*Y236596D01*
Y241096D02*X45750Y241846D01*
X47250D01*
X48000Y241096D01*
Y236596D01*
X47250Y235846D02*X48000Y236596D01*
X45750Y235846D02*X47250D01*
X45000Y237346D02*X48000Y240346D01*
X49801Y235846D02*X50551D01*
X53103D02*X54603D01*
X53853Y241846D02*Y235846D01*
X52353Y240346D02*X53853Y241846D01*
X58654D02*X59404Y241096D01*
X57154Y241846D02*X58654D01*
X56404Y241096D02*X57154Y241846D01*
X56404Y241096D02*Y236596D01*
X57154Y235846D01*
X58654Y238846D02*X59404Y238096D01*
X56404Y238846D02*X58654D01*
X57154Y235846D02*X58654D01*
X59404Y236596D01*
Y238096D02*Y236596D01*
X63456Y241846D02*X64206Y241096D01*
X61956Y241846D02*X63456D01*
X61206Y241096D02*X61956Y241846D01*
X61206Y241096D02*Y236596D01*
X61956Y235846D01*
X63456Y238846D02*X64206Y238096D01*
X61206Y238846D02*X63456D01*
X61956Y235846D02*X63456D01*
X64206Y236596D01*
Y238096D02*Y236596D01*
X45000Y232595D02*X66007D01*
X56129Y162401D02*G75*G03X57729Y162401I800J0D01*G01*
G75*G03X56129Y162401I-800J0D01*G01*
Y219487D02*G75*G03X57729Y219487I800J0D01*G01*
G75*G03X56129Y219487I-800J0D01*G01*
X14200Y254596D02*G75*G03X15800Y254596I800J0D01*G01*
G75*G03X14200Y254596I-800J0D01*G01*
X135000Y256846D02*Y256096D01*
X136500Y254596D01*
X138000Y256096D01*
Y256846D02*Y256096D01*
X136500Y254596D02*Y250846D01*
X139801Y253846D02*X142051D01*
X139801Y250846D02*X142801D01*
X139801Y256846D02*Y250846D01*
Y256846D02*X142801D01*
X147603D02*X148353Y256096D01*
X145353Y256846D02*X147603D01*
X144603Y256096D02*X145353Y256846D01*
X144603Y256096D02*Y254596D01*
X145353Y253846D01*
X147603D01*
X148353Y253096D01*
Y251596D01*
X147603Y250846D02*X148353Y251596D01*
X145353Y250846D02*X147603D01*
X144603Y251596D02*X145353Y250846D01*
X135000Y247595D02*X150154D01*
X98000Y256096D02*X98750Y256846D01*
X101000D01*
X101750Y256096D01*
Y254596D01*
X98000Y250846D02*X101750Y254596D01*
X98000Y250846D02*X101750D01*
X98000Y247595D02*X103551D01*
X45000Y251596D02*X45750Y250846D01*
X45000Y256096D02*Y251596D01*
Y256096D02*X45750Y256846D01*
X47250D01*
X48000Y256096D01*
Y251596D01*
X47250Y250846D02*X48000Y251596D01*
X45750Y250846D02*X47250D01*
X45000Y252346D02*X48000Y255346D01*
X49801Y250846D02*X50551D01*
X53103D02*X54603D01*
X53853Y256846D02*Y250846D01*
X52353Y255346D02*X53853Y256846D01*
X56404Y251596D02*X57154Y250846D01*
X56404Y256096D02*Y251596D01*
Y256096D02*X57154Y256846D01*
X58654D01*
X59404Y256096D01*
Y251596D01*
X58654Y250846D02*X59404Y251596D01*
X57154Y250846D02*X58654D01*
X56404Y252346D02*X59404Y255346D01*
X63456Y256846D02*X64206Y256096D01*
X61956Y256846D02*X63456D01*
X61206Y256096D02*X61956Y256846D01*
X61206Y256096D02*Y251596D01*
X61956Y250846D01*
X63456Y253846D02*X64206Y253096D01*
X61206Y253846D02*X63456D01*
X61956Y250846D02*X63456D01*
X64206Y251596D01*
Y253096D02*Y251596D01*
X45000Y247595D02*X66007D01*
X79193Y163601D02*X81593Y161201D01*
X79193D02*X81593Y163601D01*
X79193Y220687D02*X81593Y218287D01*
X79193D02*X81593Y220687D01*
X24863D02*X27263Y218287D01*
X24863D02*X27263Y220687D01*
X5178D02*X7578Y218287D01*
X5178D02*X7578Y220687D01*
X24863Y163601D02*X27263Y161201D01*
X24863D02*X27263Y163601D01*
X5178D02*X7578Y161201D01*
X5178D02*X7578Y163601D01*
X13800Y270796D02*X16200Y268396D01*
X13800D02*X16200Y270796D01*
X135000Y271846D02*Y271096D01*
X136500Y269596D01*
X138000Y271096D01*
Y271846D02*Y271096D01*
X136500Y269596D02*Y265846D01*
X139801Y268846D02*X142051D01*
X139801Y265846D02*X142801D01*
X139801Y271846D02*Y265846D01*
Y271846D02*X142801D01*
X147603D02*X148353Y271096D01*
X145353Y271846D02*X147603D01*
X144603Y271096D02*X145353Y271846D01*
X144603Y271096D02*Y269596D01*
X145353Y268846D01*
X147603D01*
X148353Y268096D01*
Y266596D01*
X147603Y265846D02*X148353Y266596D01*
X145353Y265846D02*X147603D01*
X144603Y266596D02*X145353Y265846D01*
X135000Y262595D02*X150154D01*
X100250Y271846D02*X101000Y271096D01*
X98750Y271846D02*X100250D01*
X98000Y271096D02*X98750Y271846D01*
X98000Y271096D02*Y266596D01*
X98750Y265846D01*
X100250Y268846D02*X101000Y268096D01*
X98000Y268846D02*X100250D01*
X98750Y265846D02*X100250D01*
X101000Y266596D01*
Y268096D02*Y266596D01*
X98000Y262595D02*X102801D01*
X45000Y266596D02*X45750Y265846D01*
X45000Y271096D02*Y266596D01*
Y271096D02*X45750Y271846D01*
X47250D01*
X48000Y271096D01*
Y266596D01*
X47250Y265846D02*X48000Y266596D01*
X45750Y265846D02*X47250D01*
X45000Y267346D02*X48000Y270346D01*
X49801Y265846D02*X50551D01*
X52353Y266596D02*X53103Y265846D01*
X52353Y271096D02*Y266596D01*
Y271096D02*X53103Y271846D01*
X54603D01*
X55353Y271096D01*
Y266596D01*
X54603Y265846D02*X55353Y266596D01*
X53103Y265846D02*X54603D01*
X52353Y267346D02*X55353Y270346D01*
X59404Y271846D02*X60154Y271096D01*
X57904Y271846D02*X59404D01*
X57154Y271096D02*X57904Y271846D01*
X57154Y271096D02*Y266596D01*
X57904Y265846D01*
X59404Y268846D02*X60154Y268096D01*
X57154Y268846D02*X59404D01*
X57904Y265846D02*X59404D01*
X60154Y266596D01*
Y268096D02*Y266596D01*
X61956D02*X62706Y265846D01*
X61956Y268096D02*Y266596D01*
Y268096D02*X62706Y268846D01*
X64206D01*
X64956Y268096D01*
Y266596D01*
X64206Y265846D02*X64956Y266596D01*
X62706Y265846D02*X64206D01*
X61956Y269596D02*X62706Y268846D01*
X61956Y271096D02*Y269596D01*
Y271096D02*X62706Y271846D01*
X64206D01*
X64956Y271096D01*
Y269596D01*
X64206Y268846D02*X64956Y269596D01*
X45000Y262595D02*X66757D01*
X11811Y147269D02*Y144069D01*
X10211Y145669D02*X13411D01*
X11811Y137269D02*Y134069D01*
X10211Y135669D02*X13411D01*
X11811Y127269D02*Y124069D01*
X10211Y125669D02*X13411D01*
X11811Y117269D02*Y114069D01*
X10211Y115669D02*X13411D01*
X11811Y107269D02*Y104069D01*
X10211Y105669D02*X13411D01*
X11811Y97269D02*Y94069D01*
X10211Y95669D02*X13411D01*
X11811Y87269D02*Y84069D01*
X10211Y85669D02*X13411D01*
X11811Y77269D02*Y74069D01*
X10211Y75669D02*X13411D01*
X11811Y67269D02*Y64069D01*
X10211Y65669D02*X13411D01*
X11811Y57269D02*Y54069D01*
X10211Y55669D02*X13411D01*
X11811Y47269D02*Y44069D01*
X10211Y45669D02*X13411D01*
X11811Y37269D02*Y34069D01*
X10211Y35669D02*X13411D01*
X11811Y27269D02*Y24069D01*
X10211Y25669D02*X13411D01*
X11811Y17269D02*Y14069D01*
X10211Y15669D02*X13411D01*
X11811Y7269D02*Y4069D01*
X10211Y5669D02*X13411D01*
X71811Y147269D02*Y144069D01*
X70211Y145669D02*X73411D01*
X71811Y137269D02*Y134069D01*
X70211Y135669D02*X73411D01*
X71811Y127269D02*Y124069D01*
X70211Y125669D02*X73411D01*
X71811Y117269D02*Y114069D01*
X70211Y115669D02*X73411D01*
X71811Y107269D02*Y104069D01*
X70211Y105669D02*X73411D01*
X71811Y97269D02*Y94069D01*
X70211Y95669D02*X73411D01*
X71811Y87269D02*Y84069D01*
X70211Y85669D02*X73411D01*
X71811Y77269D02*Y74069D01*
X70211Y75669D02*X73411D01*
X71811Y67269D02*Y64069D01*
X70211Y65669D02*X73411D01*
X71811Y57269D02*Y54069D01*
X70211Y55669D02*X73411D01*
X71811Y47269D02*Y44069D01*
X70211Y45669D02*X73411D01*
X71811Y37269D02*Y34069D01*
X70211Y35669D02*X73411D01*
X71811Y27269D02*Y24069D01*
X70211Y25669D02*X73411D01*
X71811Y17269D02*Y14069D01*
X70211Y15669D02*X73411D01*
X71811Y7269D02*Y4069D01*
X70211Y5669D02*X73411D01*
X15000Y286196D02*Y282996D01*
X13400Y284596D02*X16600D01*
X135000Y286846D02*Y286096D01*
X136500Y284596D01*
X138000Y286096D01*
Y286846D02*Y286096D01*
X136500Y284596D02*Y280846D01*
X139801Y283846D02*X142051D01*
X139801Y280846D02*X142801D01*
X139801Y286846D02*Y280846D01*
Y286846D02*X142801D01*
X147603D02*X148353Y286096D01*
X145353Y286846D02*X147603D01*
X144603Y286096D02*X145353Y286846D01*
X144603Y286096D02*Y284596D01*
X145353Y283846D01*
X147603D01*
X148353Y283096D01*
Y281596D01*
X147603Y280846D02*X148353Y281596D01*
X145353Y280846D02*X147603D01*
X144603Y281596D02*X145353Y280846D01*
X135000Y277595D02*X150154D01*
X98000Y286096D02*X98750Y286846D01*
X100250D01*
X101000Y286096D01*
Y281596D01*
X100250Y280846D02*X101000Y281596D01*
X98750Y280846D02*X100250D01*
X98000Y281596D02*X98750Y280846D01*
Y283846D02*X101000D01*
X102801Y281596D02*X103551Y280846D01*
X102801Y286096D02*Y281596D01*
Y286096D02*X103551Y286846D01*
X105051D01*
X105801Y286096D01*
Y281596D01*
X105051Y280846D02*X105801Y281596D01*
X103551Y280846D02*X105051D01*
X102801Y282346D02*X105801Y285346D01*
X98000Y277595D02*X107603D01*
X45000Y281596D02*X45750Y280846D01*
X45000Y286096D02*Y281596D01*
Y286096D02*X45750Y286846D01*
X47250D01*
X48000Y286096D01*
Y281596D01*
X47250Y280846D02*X48000Y281596D01*
X45750Y280846D02*X47250D01*
X45000Y282346D02*X48000Y285346D01*
X49801Y280846D02*X50551D01*
X52353Y281596D02*X53103Y280846D01*
X52353Y286096D02*Y281596D01*
Y286096D02*X53103Y286846D01*
X54603D01*
X55353Y286096D01*
Y281596D01*
X54603Y280846D02*X55353Y281596D01*
X53103Y280846D02*X54603D01*
X52353Y282346D02*X55353Y285346D01*
X57154Y286096D02*X57904Y286846D01*
X59404D01*
X60154Y286096D01*
Y281596D01*
X59404Y280846D02*X60154Y281596D01*
X57904Y280846D02*X59404D01*
X57154Y281596D02*X57904Y280846D01*
Y283846D02*X60154D01*
X61956Y281596D02*X62706Y280846D01*
X61956Y283096D02*Y281596D01*
Y283096D02*X62706Y283846D01*
X64206D01*
X64956Y283096D01*
Y281596D01*
X64206Y280846D02*X64956Y281596D01*
X62706Y280846D02*X64206D01*
X61956Y284596D02*X62706Y283846D01*
X61956Y286096D02*Y284596D01*
Y286096D02*X62706Y286846D01*
X64206D01*
X64956Y286096D01*
Y284596D01*
X64206Y283846D02*X64956Y284596D01*
X45000Y277595D02*X66757D01*
X23625Y55095D02*Y53495D01*
Y55095D02*X25011Y55895D01*
X23625Y55095D02*X22239Y55895D01*
X23624Y139740D02*Y138140D01*
Y139740D02*X25010Y140540D01*
X23624Y139740D02*X22238Y140540D01*
X38386Y78740D02*Y77140D01*
Y78740D02*X39772Y79540D01*
X38386Y78740D02*X37000Y79540D01*
X32480Y103347D02*Y101747D01*
Y103347D02*X33866Y104147D01*
X32480Y103347D02*X31094Y104147D01*
X25591Y206692D02*Y205092D01*
Y206692D02*X26977Y207492D01*
X25591Y206692D02*X24205Y207492D01*
X25591Y200787D02*Y199187D01*
Y200787D02*X26977Y201587D01*
X25591Y200787D02*X24205Y201587D01*
X25591Y194881D02*Y193281D01*
Y194881D02*X26977Y195681D01*
X25591Y194881D02*X24205Y195681D01*
X25591Y188976D02*Y187376D01*
Y188976D02*X26977Y189776D01*
X25591Y188976D02*X24205Y189776D01*
X61811Y188976D02*Y187376D01*
Y188976D02*X63197Y189776D01*
X61811Y188976D02*X60425Y189776D01*
X61811Y194881D02*Y193281D01*
Y194881D02*X63197Y195681D01*
X61811Y194881D02*X60425Y195681D01*
X61811Y200787D02*Y199187D01*
Y200787D02*X63197Y201587D01*
X61811Y200787D02*X60425Y201587D01*
X61811Y206692D02*Y205092D01*
Y206692D02*X63197Y207492D01*
X61811Y206692D02*X60425Y207492D01*
X25591Y177165D02*Y175565D01*
Y177165D02*X26977Y177965D01*
X25591Y177165D02*X24205Y177965D01*
X15000Y299596D02*Y297996D01*
Y299596D02*X16386Y300396D01*
X15000Y299596D02*X13614Y300396D01*
X135000Y301846D02*Y301096D01*
X136500Y299596D01*
X138000Y301096D01*
Y301846D02*Y301096D01*
X136500Y299596D02*Y295846D01*
X139801Y298846D02*X142051D01*
X139801Y295846D02*X142801D01*
X139801Y301846D02*Y295846D01*
Y301846D02*X142801D01*
X147603D02*X148353Y301096D01*
X145353Y301846D02*X147603D01*
X144603Y301096D02*X145353Y301846D01*
X144603Y301096D02*Y299596D01*
X145353Y298846D01*
X147603D01*
X148353Y298096D01*
Y296596D01*
X147603Y295846D02*X148353Y296596D01*
X145353Y295846D02*X147603D01*
X144603Y296596D02*X145353Y295846D01*
X135000Y292595D02*X150154D01*
X98750Y295846D02*X100250D01*
X99500Y301846D02*Y295846D01*
X98000Y300346D02*X99500Y301846D01*
X102051Y301096D02*X102801Y301846D01*
X104301D01*
X105051Y301096D01*
Y296596D01*
X104301Y295846D02*X105051Y296596D01*
X102801Y295846D02*X104301D01*
X102051Y296596D02*X102801Y295846D01*
Y298846D02*X105051D01*
X98000Y292595D02*X106853D01*
X45000Y296596D02*X45750Y295846D01*
X45000Y301096D02*Y296596D01*
Y301096D02*X45750Y301846D01*
X47250D01*
X48000Y301096D01*
Y296596D01*
X47250Y295846D02*X48000Y296596D01*
X45750Y295846D02*X47250D01*
X45000Y297346D02*X48000Y300346D01*
X49801Y295846D02*X50551D01*
X52353Y296596D02*X53103Y295846D01*
X52353Y301096D02*Y296596D01*
Y301096D02*X53103Y301846D01*
X54603D01*
X55353Y301096D01*
Y296596D01*
X54603Y295846D02*X55353Y296596D01*
X53103Y295846D02*X54603D01*
X52353Y297346D02*X55353Y300346D01*
X57154Y301096D02*X57904Y301846D01*
X60154D01*
X60904Y301096D01*
Y299596D01*
X57154Y295846D02*X60904Y299596D01*
X57154Y295846D02*X60904D01*
X62706Y296596D02*X63456Y295846D01*
X62706Y301096D02*Y296596D01*
Y301096D02*X63456Y301846D01*
X64956D01*
X65706Y301096D01*
Y296596D01*
X64956Y295846D02*X65706Y296596D01*
X63456Y295846D02*X64956D01*
X62706Y297346D02*X65706Y300346D01*
X45000Y292595D02*X67507D01*
X3000Y316846D02*X3750Y316096D01*
X750Y316846D02*X3000D01*
X0Y316096D02*X750Y316846D01*
X0Y316096D02*Y314596D01*
X750Y313846D01*
X3000D01*
X3750Y313096D01*
Y311596D01*
X3000Y310846D02*X3750Y311596D01*
X750Y310846D02*X3000D01*
X0Y311596D02*X750Y310846D01*
X5551Y313846D02*Y311596D01*
X6301Y310846D01*
X8551Y313846D02*Y309346D01*
X7801Y308596D02*X8551Y309346D01*
X6301Y308596D02*X7801D01*
X5551Y309346D02*X6301Y308596D01*
Y310846D02*X7801D01*
X8551Y311596D01*
X11103Y313096D02*Y310846D01*
Y313096D02*X11853Y313846D01*
X12603D01*
X13353Y313096D01*
Y310846D01*
Y313096D02*X14103Y313846D01*
X14853D01*
X15603Y313096D01*
Y310846D01*
X10353Y313846D02*X11103Y313096D01*
X17404Y316846D02*Y310846D01*
Y311596D02*X18154Y310846D01*
X19654D01*
X20404Y311596D01*
Y313096D02*Y311596D01*
X19654Y313846D02*X20404Y313096D01*
X18154Y313846D02*X19654D01*
X17404Y313096D02*X18154Y313846D01*
X22206Y313096D02*Y311596D01*
Y313096D02*X22956Y313846D01*
X24456D01*
X25206Y313096D01*
Y311596D01*
X24456Y310846D02*X25206Y311596D01*
X22956Y310846D02*X24456D01*
X22206Y311596D02*X22956Y310846D01*
X27007Y316846D02*Y311596D01*
X27757Y310846D01*
X41750Y316846D02*Y310846D01*
X44000Y316846D02*X44750Y316096D01*
Y311596D01*
X44000Y310846D02*X44750Y311596D01*
X41000Y310846D02*X44000D01*
X41000Y316846D02*X44000D01*
X46551Y315346D02*Y314596D01*
Y313096D02*Y310846D01*
X50303Y313846D02*X51053Y313096D01*
X48803Y313846D02*X50303D01*
X48053Y313096D02*X48803Y313846D01*
X48053Y313096D02*Y311596D01*
X48803Y310846D01*
X51053Y313846D02*Y311596D01*
X51803Y310846D01*
X48803D02*X50303D01*
X51053Y311596D01*
X54354Y313096D02*Y310846D01*
Y313096D02*X55104Y313846D01*
X55854D01*
X56604Y313096D01*
Y310846D01*
Y313096D02*X57354Y313846D01*
X58104D01*
X58854Y313096D01*
Y310846D01*
X53604Y313846D02*X54354Y313096D01*
X60656Y310846D02*X61406D01*
X65907Y311596D02*X66657Y310846D01*
X65907Y316096D02*X66657Y316846D01*
X65907Y316096D02*Y311596D01*
X68459Y316846D02*X69959D01*
X69209D02*Y310846D01*
X68459D02*X69959D01*
X72510Y313096D02*Y310846D01*
Y313096D02*X73260Y313846D01*
X74010D01*
X74760Y313096D01*
Y310846D01*
X71760Y313846D02*X72510Y313096D01*
X77312Y313846D02*X79562D01*
X76562Y313096D02*X77312Y313846D01*
X76562Y313096D02*Y311596D01*
X77312Y310846D01*
X79562D01*
X81363Y316846D02*Y310846D01*
Y313096D02*X82113Y313846D01*
X83613D01*
X84363Y313096D01*
Y310846D01*
X86165Y316846D02*X86915Y316096D01*
Y311596D01*
X86165Y310846D02*X86915Y311596D01*
X95750Y310846D02*X98000D01*
X95000Y311596D02*X95750Y310846D01*
X95000Y316096D02*Y311596D01*
Y316096D02*X95750Y316846D01*
X98000D01*
X99801Y313096D02*Y311596D01*
Y313096D02*X100551Y313846D01*
X102051D01*
X102801Y313096D01*
Y311596D01*
X102051Y310846D02*X102801Y311596D01*
X100551Y310846D02*X102051D01*
X99801Y311596D02*X100551Y310846D01*
X104603Y313846D02*Y311596D01*
X105353Y310846D01*
X106853D01*
X107603Y311596D01*
Y313846D02*Y311596D01*
X110154Y313096D02*Y310846D01*
Y313096D02*X110904Y313846D01*
X111654D01*
X112404Y313096D01*
Y310846D01*
X109404Y313846D02*X110154Y313096D01*
X114956Y316846D02*Y311596D01*
X115706Y310846D01*
X114206Y314596D02*X115706D01*
X130750Y316846D02*Y310846D01*
X130000Y316846D02*X133000D01*
X133750Y316096D01*
Y314596D01*
X133000Y313846D02*X133750Y314596D01*
X130750Y313846D02*X133000D01*
X135551Y316846D02*Y311596D01*
X136301Y310846D01*
X140053Y313846D02*X140803Y313096D01*
X138553Y313846D02*X140053D01*
X137803Y313096D02*X138553Y313846D01*
X137803Y313096D02*Y311596D01*
X138553Y310846D01*
X140803Y313846D02*Y311596D01*
X141553Y310846D01*
X138553D02*X140053D01*
X140803Y311596D01*
X144104Y316846D02*Y311596D01*
X144854Y310846D01*
X143354Y314596D02*X144854D01*
X147106Y310846D02*X149356D01*
X146356Y311596D02*X147106Y310846D01*
X146356Y313096D02*Y311596D01*
Y313096D02*X147106Y313846D01*
X148606D01*
X149356Y313096D01*
X146356Y312346D02*X149356D01*
Y313096D02*Y312346D01*
X154157Y316846D02*Y310846D01*
X153407D02*X154157Y311596D01*
X151907Y310846D02*X153407D01*
X151157Y311596D02*X151907Y310846D01*
X151157Y313096D02*Y311596D01*
Y313096D02*X151907Y313846D01*
X153407D01*
X154157Y313096D01*
X157459Y313846D02*Y313096D01*
Y311596D02*Y310846D01*
X155959Y316096D02*Y315346D01*
Y316096D02*X156709Y316846D01*
X158209D01*
X158959Y316096D01*
Y315346D01*
X157459Y313846D02*X158959Y315346D01*
X0Y331846D02*X3000D01*
X1500D02*Y325846D01*
X4801Y331846D02*Y325846D01*
Y328096D02*X5551Y328846D01*
X7051D01*
X7801Y328096D01*
Y325846D01*
X10353D02*X12603D01*
X9603Y326596D02*X10353Y325846D01*
X9603Y328096D02*Y326596D01*
Y328096D02*X10353Y328846D01*
X11853D01*
X12603Y328096D01*
X9603Y327346D02*X12603D01*
Y328096D02*Y327346D01*
X15154Y328096D02*Y325846D01*
Y328096D02*X15904Y328846D01*
X17404D01*
X14404D02*X15154Y328096D01*
X19956Y325846D02*X22206D01*
X19206Y326596D02*X19956Y325846D01*
X19206Y328096D02*Y326596D01*
Y328096D02*X19956Y328846D01*
X21456D01*
X22206Y328096D01*
X19206Y327346D02*X22206D01*
Y328096D02*Y327346D01*
X28957Y328846D02*X29707Y328096D01*
X27457Y328846D02*X28957D01*
X26707Y328096D02*X27457Y328846D01*
X26707Y328096D02*Y326596D01*
X27457Y325846D01*
X29707Y328846D02*Y326596D01*
X30457Y325846D01*
X27457D02*X28957D01*
X29707Y326596D01*
X33009Y328096D02*Y325846D01*
Y328096D02*X33759Y328846D01*
X35259D01*
X32259D02*X33009Y328096D01*
X37810Y325846D02*X40060D01*
X37060Y326596D02*X37810Y325846D01*
X37060Y328096D02*Y326596D01*
Y328096D02*X37810Y328846D01*
X39310D01*
X40060Y328096D01*
X37060Y327346D02*X40060D01*
Y328096D02*Y327346D01*
X44562Y331846D02*X47562D01*
X44562D02*Y328846D01*
X45312Y329596D01*
X46812D01*
X47562Y328846D01*
Y326596D01*
X46812Y325846D02*X47562Y326596D01*
X45312Y325846D02*X46812D01*
X44562Y326596D02*X45312Y325846D01*
X55063Y331846D02*Y325846D01*
X54313D02*X55063Y326596D01*
X52813Y325846D02*X54313D01*
X52063Y326596D02*X52813Y325846D01*
X52063Y328096D02*Y326596D01*
Y328096D02*X52813Y328846D01*
X54313D01*
X55063Y328096D01*
X56865Y330346D02*Y329596D01*
Y328096D02*Y325846D01*
X59116Y331096D02*Y325846D01*
Y331096D02*X59866Y331846D01*
X60616D01*
X58366Y328846D02*X59866D01*
X62868Y331096D02*Y325846D01*
Y331096D02*X63618Y331846D01*
X64368D01*
X62118Y328846D02*X63618D01*
X66619Y325846D02*X68869D01*
X65869Y326596D02*X66619Y325846D01*
X65869Y328096D02*Y326596D01*
Y328096D02*X66619Y328846D01*
X68119D01*
X68869Y328096D01*
X65869Y327346D02*X68869D01*
Y328096D02*Y327346D01*
X71421Y328096D02*Y325846D01*
Y328096D02*X72171Y328846D01*
X73671D01*
X70671D02*X71421Y328096D01*
X76222Y325846D02*X78472D01*
X75472Y326596D02*X76222Y325846D01*
X75472Y328096D02*Y326596D01*
Y328096D02*X76222Y328846D01*
X77722D01*
X78472Y328096D01*
X75472Y327346D02*X78472D01*
Y328096D02*Y327346D01*
X81024Y328096D02*Y325846D01*
Y328096D02*X81774Y328846D01*
X82524D01*
X83274Y328096D01*
Y325846D01*
X80274Y328846D02*X81024Y328096D01*
X85825Y331846D02*Y326596D01*
X86575Y325846D01*
X85075Y329596D02*X86575D01*
X93777Y331846D02*Y325846D01*
X93027D02*X93777Y326596D01*
X91527Y325846D02*X93027D01*
X90777Y326596D02*X91527Y325846D01*
X90777Y328096D02*Y326596D01*
Y328096D02*X91527Y328846D01*
X93027D01*
X93777Y328096D01*
X96328D02*Y325846D01*
Y328096D02*X97078Y328846D01*
X98578D01*
X95578D02*X96328Y328096D01*
X100380Y330346D02*Y329596D01*
Y328096D02*Y325846D01*
X101881Y331846D02*Y326596D01*
X102631Y325846D01*
X104133Y331846D02*Y326596D01*
X104883Y325846D01*
X109834D02*X112084D01*
X112834Y326596D01*
X112084Y327346D02*X112834Y326596D01*
X109834Y327346D02*X112084D01*
X109084Y328096D02*X109834Y327346D01*
X109084Y328096D02*X109834Y328846D01*
X112084D01*
X112834Y328096D01*
X109084Y326596D02*X109834Y325846D01*
X114636Y330346D02*Y329596D01*
Y328096D02*Y325846D01*
X116137Y328846D02*X119137D01*
X116137Y325846D02*X119137Y328846D01*
X116137Y325846D02*X119137D01*
X121689D02*X123939D01*
X120939Y326596D02*X121689Y325846D01*
X120939Y328096D02*Y326596D01*
Y328096D02*X121689Y328846D01*
X123189D01*
X123939Y328096D01*
X120939Y327346D02*X123939D01*
Y328096D02*Y327346D01*
X126490Y325846D02*X128740D01*
X129490Y326596D01*
X128740Y327346D02*X129490Y326596D01*
X126490Y327346D02*X128740D01*
X125740Y328096D02*X126490Y327346D01*
X125740Y328096D02*X126490Y328846D01*
X128740D01*
X129490Y328096D01*
X125740Y326596D02*X126490Y325846D01*
X133992Y328846D02*Y326596D01*
X134742Y325846D01*
X136242D01*
X136992Y326596D01*
Y328846D02*Y326596D01*
X139543Y325846D02*X141793D01*
X142543Y326596D01*
X141793Y327346D02*X142543Y326596D01*
X139543Y327346D02*X141793D01*
X138793Y328096D02*X139543Y327346D01*
X138793Y328096D02*X139543Y328846D01*
X141793D01*
X142543Y328096D01*
X138793Y326596D02*X139543Y325846D01*
X145095D02*X147345D01*
X144345Y326596D02*X145095Y325846D01*
X144345Y328096D02*Y326596D01*
Y328096D02*X145095Y328846D01*
X146595D01*
X147345Y328096D01*
X144345Y327346D02*X147345D01*
Y328096D02*Y327346D01*
X152146Y331846D02*Y325846D01*
X151396D02*X152146Y326596D01*
X149896Y325846D02*X151396D01*
X149146Y326596D02*X149896Y325846D01*
X149146Y328096D02*Y326596D01*
Y328096D02*X149896Y328846D01*
X151396D01*
X152146Y328096D01*
X156648Y330346D02*Y329596D01*
Y328096D02*Y325846D01*
X158899Y328096D02*Y325846D01*
Y328096D02*X159649Y328846D01*
X160399D01*
X161149Y328096D01*
Y325846D01*
X158149Y328846D02*X158899Y328096D01*
X166401Y331846D02*Y326596D01*
X167151Y325846D01*
X165651Y329596D02*X167151D01*
X168652Y331846D02*Y325846D01*
Y328096D02*X169402Y328846D01*
X170902D01*
X171652Y328096D01*
Y325846D01*
X173454Y330346D02*Y329596D01*
Y328096D02*Y325846D01*
X175705D02*X177955D01*
X178705Y326596D01*
X177955Y327346D02*X178705Y326596D01*
X175705Y327346D02*X177955D01*
X174955Y328096D02*X175705Y327346D01*
X174955Y328096D02*X175705Y328846D01*
X177955D01*
X178705Y328096D01*
X174955Y326596D02*X175705Y325846D01*
X183207Y331846D02*Y326596D01*
X183957Y325846D01*
X187708Y328846D02*X188458Y328096D01*
X186208Y328846D02*X187708D01*
X185458Y328096D02*X186208Y328846D01*
X185458Y328096D02*Y326596D01*
X186208Y325846D01*
X188458Y328846D02*Y326596D01*
X189208Y325846D01*
X186208D02*X187708D01*
X188458Y326596D01*
X191010Y328846D02*Y326596D01*
X191760Y325846D01*
X194010Y328846D02*Y324346D01*
X193260Y323596D02*X194010Y324346D01*
X191760Y323596D02*X193260D01*
X191010Y324346D02*X191760Y323596D01*
Y325846D02*X193260D01*
X194010Y326596D01*
X195811Y328096D02*Y326596D01*
Y328096D02*X196561Y328846D01*
X198061D01*
X198811Y328096D01*
Y326596D01*
X198061Y325846D02*X198811Y326596D01*
X196561Y325846D02*X198061D01*
X195811Y326596D02*X196561Y325846D01*
X200613Y328846D02*Y326596D01*
X201363Y325846D01*
X202863D01*
X203613Y326596D01*
Y328846D02*Y326596D01*
X206164Y331846D02*Y326596D01*
X206914Y325846D01*
X205414Y329596D02*X206914D01*
X208416Y324346D02*X209916Y325846D01*
X214417Y331846D02*X217417D01*
X214417D02*Y328846D01*
X215167Y329596D01*
X216667D01*
X217417Y328846D01*
Y326596D01*
X216667Y325846D02*X217417Y326596D01*
X215167Y325846D02*X216667D01*
X214417Y326596D02*X215167Y325846D01*
X219219Y331096D02*X219969Y331846D01*
X222219D01*
X222969Y331096D01*
Y329596D01*
X219219Y325846D02*X222969Y329596D01*
X219219Y325846D02*X222969D01*
X227470Y331846D02*Y325846D01*
Y328096D02*X228220Y328846D01*
X229720D01*
X230470Y328096D01*
Y325846D01*
X232272Y328096D02*Y326596D01*
Y328096D02*X233022Y328846D01*
X234522D01*
X235272Y328096D01*
Y326596D01*
X234522Y325846D02*X235272Y326596D01*
X233022Y325846D02*X234522D01*
X232272Y326596D02*X233022Y325846D01*
X237073Y331846D02*Y326596D01*
X237823Y325846D01*
X240075D02*X242325D01*
X239325Y326596D02*X240075Y325846D01*
X239325Y328096D02*Y326596D01*
Y328096D02*X240075Y328846D01*
X241575D01*
X242325Y328096D01*
X239325Y327346D02*X242325D01*
Y328096D02*Y327346D01*
X244876Y325846D02*X247126D01*
X247876Y326596D01*
X247126Y327346D02*X247876Y326596D01*
X244876Y327346D02*X247126D01*
X244126Y328096D02*X244876Y327346D01*
X244126Y328096D02*X244876Y328846D01*
X247126D01*
X247876Y328096D01*
X244126Y326596D02*X244876Y325846D01*
X253128Y331846D02*Y326596D01*
X253878Y325846D01*
X252378Y329596D02*X253878D01*
X255379Y328096D02*Y326596D01*
Y328096D02*X256129Y328846D01*
X257629D01*
X258379Y328096D01*
Y326596D01*
X257629Y325846D02*X258379Y326596D01*
X256129Y325846D02*X257629D01*
X255379Y326596D02*X256129Y325846D01*
X260931Y331846D02*Y326596D01*
X261681Y325846D01*
X260181Y329596D02*X261681D01*
X265432Y328846D02*X266182Y328096D01*
X263932Y328846D02*X265432D01*
X263182Y328096D02*X263932Y328846D01*
X263182Y328096D02*Y326596D01*
X263932Y325846D01*
X266182Y328846D02*Y326596D01*
X266932Y325846D01*
X263932D02*X265432D01*
X266182Y326596D01*
X268734Y331846D02*Y326596D01*
X269484Y325846D01*
G54D70*X0Y228346D02*X86614D01*
X0D02*Y0D01*
X86614Y228346D02*Y0D01*
X0D02*X86614D01*
G54D69*X200000Y241846D02*Y235846D01*
Y241846D02*X202250Y239596D01*
X204500Y241846D01*
Y235846D01*
X208551Y238846D02*X209301Y238096D01*
X207051Y238846D02*X208551D01*
X206301Y238096D02*X207051Y238846D01*
X206301Y238096D02*Y236596D01*
X207051Y235846D01*
X209301Y238846D02*Y236596D01*
X210051Y235846D01*
X207051D02*X208551D01*
X209301Y236596D01*
X211853Y238846D02*X214853Y235846D01*
X211853D02*X214853Y238846D01*
X216654Y240346D02*Y239596D01*
Y238096D02*Y235846D01*
X218906Y238096D02*Y235846D01*
Y238096D02*X219656Y238846D01*
X220406D01*
X221156Y238096D01*
Y235846D01*
Y238096D02*X221906Y238846D01*
X222656D01*
X223406Y238096D01*
Y235846D01*
X218156Y238846D02*X218906Y238096D01*
X225207Y238846D02*Y236596D01*
X225957Y235846D01*
X227457D01*
X228207Y236596D01*
Y238846D02*Y236596D01*
X230759Y238096D02*Y235846D01*
Y238096D02*X231509Y238846D01*
X232259D01*
X233009Y238096D01*
Y235846D01*
Y238096D02*X233759Y238846D01*
X234509D01*
X235259Y238096D01*
Y235846D01*
X230009Y238846D02*X230759Y238096D01*
X240510Y241846D02*Y235846D01*
X242760Y241846D02*X243510Y241096D01*
Y236596D01*
X242760Y235846D02*X243510Y236596D01*
X239760Y235846D02*X242760D01*
X239760Y241846D02*X242760D01*
X245312Y240346D02*Y239596D01*
Y238096D02*Y235846D01*
X247563Y238096D02*Y235846D01*
Y238096D02*X248313Y238846D01*
X249063D01*
X249813Y238096D01*
Y235846D01*
Y238096D02*X250563Y238846D01*
X251313D01*
X252063Y238096D01*
Y235846D01*
X246813Y238846D02*X247563Y238096D01*
X254615Y235846D02*X256865D01*
X253865Y236596D02*X254615Y235846D01*
X253865Y238096D02*Y236596D01*
Y238096D02*X254615Y238846D01*
X256115D01*
X256865Y238096D01*
X253865Y237346D02*X256865D01*
Y238096D02*Y237346D01*
X259416Y238096D02*Y235846D01*
Y238096D02*X260166Y238846D01*
X260916D01*
X261666Y238096D01*
Y235846D01*
X258666Y238846D02*X259416Y238096D01*
X264218Y235846D02*X266468D01*
X267218Y236596D01*
X266468Y237346D02*X267218Y236596D01*
X264218Y237346D02*X266468D01*
X263468Y238096D02*X264218Y237346D01*
X263468Y238096D02*X264218Y238846D01*
X266468D01*
X267218Y238096D01*
X263468Y236596D02*X264218Y235846D01*
X269019Y240346D02*Y239596D01*
Y238096D02*Y235846D01*
X270521Y238096D02*Y236596D01*
Y238096D02*X271271Y238846D01*
X272771D01*
X273521Y238096D01*
Y236596D01*
X272771Y235846D02*X273521Y236596D01*
X271271Y235846D02*X272771D01*
X270521Y236596D02*X271271Y235846D01*
X276072Y238096D02*Y235846D01*
Y238096D02*X276822Y238846D01*
X277572D01*
X278322Y238096D01*
Y235846D01*
X275322Y238846D02*X276072Y238096D01*
X280874Y235846D02*X283124D01*
X283874Y236596D01*
X283124Y237346D02*X283874Y236596D01*
X280874Y237346D02*X283124D01*
X280124Y238096D02*X280874Y237346D01*
X280124Y238096D02*X280874Y238846D01*
X283124D01*
X283874Y238096D01*
X280124Y236596D02*X280874Y235846D01*
X285675Y239596D02*X286425D01*
X285675Y238096D02*X286425D01*
X290927Y236596D02*X291677Y235846D01*
X290927Y238096D02*Y236596D01*
Y238096D02*X291677Y238846D01*
X293177D01*
X293927Y238096D01*
Y236596D01*
X293177Y235846D02*X293927Y236596D01*
X291677Y235846D02*X293177D01*
X290927Y239596D02*X291677Y238846D01*
X290927Y241096D02*Y239596D01*
Y241096D02*X291677Y241846D01*
X293177D01*
X293927Y241096D01*
Y239596D01*
X293177Y238846D02*X293927Y239596D01*
X297978Y241846D02*X298728Y241096D01*
X296478Y241846D02*X297978D01*
X295728Y241096D02*X296478Y241846D01*
X295728Y241096D02*Y236596D01*
X296478Y235846D01*
X297978Y238846D02*X298728Y238096D01*
X295728Y238846D02*X297978D01*
X296478Y235846D02*X297978D01*
X298728Y236596D01*
Y238096D02*Y236596D01*
X302780Y241846D02*X303530Y241096D01*
X301280Y241846D02*X302780D01*
X300530Y241096D02*X301280Y241846D01*
X300530Y241096D02*Y236596D01*
X301280Y235846D01*
X302780Y238846D02*X303530Y238096D01*
X300530Y238846D02*X302780D01*
X301280Y235846D02*X302780D01*
X303530Y236596D01*
Y238096D02*Y236596D01*
X305331Y235846D02*X306081D01*
X308633D02*X310133D01*
X309383Y241846D02*Y235846D01*
X307883Y240346D02*X309383Y241846D01*
X311934Y238846D02*X314934Y241846D01*
X311934Y238846D02*X315684D01*
X314934Y241846D02*Y235846D01*
X317486Y236596D02*X318236Y235846D01*
X317486Y241096D02*Y236596D01*
Y241096D02*X318236Y241846D01*
X319736D01*
X320486Y241096D01*
Y236596D01*
X319736Y235846D02*X320486Y236596D01*
X318236Y235846D02*X319736D01*
X317486Y237346D02*X320486Y240346D01*
X322287Y236596D02*X323037Y235846D01*
X322287Y241096D02*Y236596D01*
Y241096D02*X323037Y241846D01*
X324537D01*
X325287Y241096D01*
Y236596D01*
X324537Y235846D02*X325287Y236596D01*
X323037Y235846D02*X324537D01*
X322287Y237346D02*X325287Y240346D01*
X327089Y236596D02*X327839Y235846D01*
X327089Y241096D02*Y236596D01*
Y241096D02*X327839Y241846D01*
X329339D01*
X330089Y241096D01*
Y236596D01*
X329339Y235846D02*X330089Y236596D01*
X327839Y235846D02*X329339D01*
X327089Y237346D02*X330089Y240346D01*
X331890Y236596D02*X332640Y235846D01*
X331890Y241096D02*Y236596D01*
Y241096D02*X332640Y241846D01*
X334140D01*
X334890Y241096D01*
Y236596D01*
X334140Y235846D02*X334890Y236596D01*
X332640Y235846D02*X334140D01*
X331890Y237346D02*X334890Y240346D01*
X340142Y238096D02*Y235846D01*
Y238096D02*X340892Y238846D01*
X341642D01*
X342392Y238096D01*
Y235846D01*
Y238096D02*X343142Y238846D01*
X343892D01*
X344642Y238096D01*
Y235846D01*
X339392Y238846D02*X340142Y238096D01*
X346443Y240346D02*Y239596D01*
Y238096D02*Y235846D01*
X347945Y241846D02*Y236596D01*
X348695Y235846D01*
X350946D02*X353196D01*
X353946Y236596D01*
X353196Y237346D02*X353946Y236596D01*
X350946Y237346D02*X353196D01*
X350196Y238096D02*X350946Y237346D01*
X350196Y238096D02*X350946Y238846D01*
X353196D01*
X353946Y238096D01*
X350196Y236596D02*X350946Y235846D01*
X358448Y238846D02*Y236596D01*
X359198Y235846D01*
X359948D01*
X360698Y236596D01*
Y238846D02*Y236596D01*
X361448Y235846D01*
X362198D01*
X362948Y236596D01*
Y238846D02*Y236596D01*
X364749Y240346D02*Y239596D01*
Y238096D02*Y235846D01*
X369251Y241846D02*Y235846D01*
X368501D02*X369251Y236596D01*
X367001Y235846D02*X368501D01*
X366251Y236596D02*X367001Y235846D01*
X366251Y238096D02*Y236596D01*
Y238096D02*X367001Y238846D01*
X368501D01*
X369251Y238096D01*
X371802Y235846D02*X374052D01*
X371052Y236596D02*X371802Y235846D01*
X371052Y238096D02*Y236596D01*
Y238096D02*X371802Y238846D01*
X373302D01*
X374052Y238096D01*
X371052Y237346D02*X374052D01*
Y238096D02*Y237346D01*
X375854Y234346D02*X377354Y235846D01*
X381855Y241096D02*X382605Y241846D01*
X384855D01*
X385605Y241096D01*
Y239596D01*
X381855Y235846D02*X385605Y239596D01*
X381855Y235846D02*X385605D01*
X387407Y241096D02*X388157Y241846D01*
X390407D01*
X391157Y241096D01*
Y239596D01*
X387407Y235846D02*X391157Y239596D01*
X387407Y235846D02*X391157D01*
X392958Y236596D02*X393708Y235846D01*
X392958Y238096D02*Y236596D01*
Y238096D02*X393708Y238846D01*
X395208D01*
X395958Y238096D01*
Y236596D01*
X395208Y235846D02*X395958Y236596D01*
X393708Y235846D02*X395208D01*
X392958Y239596D02*X393708Y238846D01*
X392958Y241096D02*Y239596D01*
Y241096D02*X393708Y241846D01*
X395208D01*
X395958Y241096D01*
Y239596D01*
X395208Y238846D02*X395958Y239596D01*
X397760Y241096D02*X398510Y241846D01*
X400010D01*
X400760Y241096D01*
Y236596D01*
X400010Y235846D02*X400760Y236596D01*
X398510Y235846D02*X400010D01*
X397760Y236596D02*X398510Y235846D01*
Y238846D02*X400760D01*
X402561Y235846D02*X403311D01*
X405113Y238846D02*X408113Y241846D01*
X405113Y238846D02*X408863D01*
X408113Y241846D02*Y235846D01*
X412914Y241846D02*X413664Y241096D01*
X411414Y241846D02*X412914D01*
X410664Y241096D02*X411414Y241846D01*
X410664Y241096D02*Y236596D01*
X411414Y235846D01*
X412914Y238846D02*X413664Y238096D01*
X410664Y238846D02*X412914D01*
X411414Y235846D02*X412914D01*
X413664Y236596D01*
Y238096D02*Y236596D01*
X415466D02*X416216Y235846D01*
X415466Y241096D02*Y236596D01*
Y241096D02*X416216Y241846D01*
X417716D01*
X418466Y241096D01*
Y236596D01*
X417716Y235846D02*X418466Y236596D01*
X416216Y235846D02*X417716D01*
X415466Y237346D02*X418466Y240346D01*
X420267Y236596D02*X421017Y235846D01*
X420267Y241096D02*Y236596D01*
Y241096D02*X421017Y241846D01*
X422517D01*
X423267Y241096D01*
Y236596D01*
X422517Y235846D02*X423267Y236596D01*
X421017Y235846D02*X422517D01*
X420267Y237346D02*X423267Y240346D01*
X425069Y236596D02*X425819Y235846D01*
X425069Y241096D02*Y236596D01*
Y241096D02*X425819Y241846D01*
X427319D01*
X428069Y241096D01*
Y236596D01*
X427319Y235846D02*X428069Y236596D01*
X425819Y235846D02*X427319D01*
X425069Y237346D02*X428069Y240346D01*
X429870Y236596D02*X430620Y235846D01*
X429870Y241096D02*Y236596D01*
Y241096D02*X430620Y241846D01*
X432120D01*
X432870Y241096D01*
Y236596D01*
X432120Y235846D02*X432870Y236596D01*
X430620Y235846D02*X432120D01*
X429870Y237346D02*X432870Y240346D01*
X438122Y238096D02*Y235846D01*
Y238096D02*X438872Y238846D01*
X439622D01*
X440372Y238096D01*
Y235846D01*
Y238096D02*X441122Y238846D01*
X441872D01*
X442622Y238096D01*
Y235846D01*
X437372Y238846D02*X438122Y238096D01*
X444423Y240346D02*Y239596D01*
Y238096D02*Y235846D01*
X445925Y241846D02*Y236596D01*
X446675Y235846D01*
X448926D02*X451176D01*
X451926Y236596D01*
X451176Y237346D02*X451926Y236596D01*
X448926Y237346D02*X451176D01*
X448176Y238096D02*X448926Y237346D01*
X448176Y238096D02*X448926Y238846D01*
X451176D01*
X451926Y238096D01*
X448176Y236596D02*X448926Y235846D01*
X456428Y241846D02*Y235846D01*
Y238096D02*X457178Y238846D01*
X458678D01*
X459428Y238096D01*
Y235846D01*
X461229Y240346D02*Y239596D01*
Y238096D02*Y235846D01*
X464981Y238846D02*X465731Y238096D01*
X463481Y238846D02*X464981D01*
X462731Y238096D02*X463481Y238846D01*
X462731Y238096D02*Y236596D01*
X463481Y235846D01*
X464981D01*
X465731Y236596D01*
X462731Y234346D02*X463481Y233596D01*
X464981D01*
X465731Y234346D01*
Y238846D02*Y234346D01*
X467532Y241846D02*Y235846D01*
Y238096D02*X468282Y238846D01*
X469782D01*
X470532Y238096D01*
Y235846D01*
X0Y-9500D02*X3000D01*
X3750Y-8750D01*
Y-7250D02*Y-8750D01*
X3000Y-6500D02*X3750Y-7250D01*
X750Y-6500D02*X3000D01*
X750Y-3500D02*Y-9500D01*
X0Y-3500D02*X3000D01*
X3750Y-4250D01*
Y-5750D01*
X3000Y-6500D02*X3750Y-5750D01*
X5551Y-7250D02*Y-8750D01*
Y-7250D02*X6301Y-6500D01*
X7801D01*
X8551Y-7250D01*
Y-8750D01*
X7801Y-9500D02*X8551Y-8750D01*
X6301Y-9500D02*X7801D01*
X5551Y-8750D02*X6301Y-9500D01*
X12603Y-6500D02*X13353Y-7250D01*
X11103Y-6500D02*X12603D01*
X10353Y-7250D02*X11103Y-6500D01*
X10353Y-7250D02*Y-8750D01*
X11103Y-9500D01*
X13353Y-6500D02*Y-8750D01*
X14103Y-9500D01*
X11103D02*X12603D01*
X13353Y-8750D01*
X16654Y-7250D02*Y-9500D01*
Y-7250D02*X17404Y-6500D01*
X18904D01*
X15904D02*X16654Y-7250D01*
X23706Y-3500D02*Y-9500D01*
X22956D02*X23706Y-8750D01*
X21456Y-9500D02*X22956D01*
X20706Y-8750D02*X21456Y-9500D01*
X20706Y-7250D02*Y-8750D01*
Y-7250D02*X21456Y-6500D01*
X22956D01*
X23706Y-7250D01*
X28207D02*Y-8750D01*
Y-7250D02*X28957Y-6500D01*
X30457D01*
X31207Y-7250D01*
Y-8750D01*
X30457Y-9500D02*X31207Y-8750D01*
X28957Y-9500D02*X30457D01*
X28207Y-8750D02*X28957Y-9500D01*
X33009Y-6500D02*Y-8750D01*
X33759Y-9500D01*
X35259D01*
X36009Y-8750D01*
Y-6500D02*Y-8750D01*
X38560Y-3500D02*Y-8750D01*
X39310Y-9500D01*
X37810Y-5750D02*X39310D01*
X40812Y-3500D02*Y-8750D01*
X41562Y-9500D01*
X43063Y-5000D02*Y-5750D01*
Y-7250D02*Y-9500D01*
X45315Y-7250D02*Y-9500D01*
Y-7250D02*X46065Y-6500D01*
X46815D01*
X47565Y-7250D01*
Y-9500D01*
X44565Y-6500D02*X45315Y-7250D01*
X50116Y-9500D02*X52366D01*
X49366Y-8750D02*X50116Y-9500D01*
X49366Y-7250D02*Y-8750D01*
Y-7250D02*X50116Y-6500D01*
X51616D01*
X52366Y-7250D01*
X49366Y-8000D02*X52366D01*
Y-7250D02*Y-8000D01*
X56868Y-5000D02*Y-5750D01*
Y-7250D02*Y-9500D01*
X59119D02*X61369D01*
X62119Y-8750D01*
X61369Y-8000D02*X62119Y-8750D01*
X59119Y-8000D02*X61369D01*
X58369Y-7250D02*X59119Y-8000D01*
X58369Y-7250D02*X59119Y-6500D01*
X61369D01*
X62119Y-7250D01*
X58369Y-8750D02*X59119Y-9500D01*
X67371Y-3500D02*Y-8750D01*
X68121Y-9500D01*
X66621Y-5750D02*X68121D01*
X69622Y-3500D02*Y-9500D01*
Y-7250D02*X70372Y-6500D01*
X71872D01*
X72622Y-7250D01*
Y-9500D01*
X75174D02*X77424D01*
X74424Y-8750D02*X75174Y-9500D01*
X74424Y-7250D02*Y-8750D01*
Y-7250D02*X75174Y-6500D01*
X76674D01*
X77424Y-7250D01*
X74424Y-8000D02*X77424D01*
Y-7250D02*Y-8000D01*
X82675Y-6500D02*X84925D01*
X81925Y-7250D02*X82675Y-6500D01*
X81925Y-7250D02*Y-8750D01*
X82675Y-9500D01*
X84925D01*
X87477D02*X89727D01*
X86727Y-8750D02*X87477Y-9500D01*
X86727Y-7250D02*Y-8750D01*
Y-7250D02*X87477Y-6500D01*
X88977D01*
X89727Y-7250D01*
X86727Y-8000D02*X89727D01*
Y-7250D02*Y-8000D01*
X92278Y-7250D02*Y-9500D01*
Y-7250D02*X93028Y-6500D01*
X93778D01*
X94528Y-7250D01*
Y-9500D01*
X91528Y-6500D02*X92278Y-7250D01*
X97080Y-3500D02*Y-8750D01*
X97830Y-9500D01*
X96330Y-5750D02*X97830D01*
X100081Y-9500D02*X102331D01*
X99331Y-8750D02*X100081Y-9500D01*
X99331Y-7250D02*Y-8750D01*
Y-7250D02*X100081Y-6500D01*
X101581D01*
X102331Y-7250D01*
X99331Y-8000D02*X102331D01*
Y-7250D02*Y-8000D01*
X104883Y-7250D02*Y-9500D01*
Y-7250D02*X105633Y-6500D01*
X107133D01*
X104133D02*X104883Y-7250D01*
X108934Y-3500D02*Y-8750D01*
X109684Y-9500D01*
X111186Y-5000D02*Y-5750D01*
Y-7250D02*Y-9500D01*
X113437Y-7250D02*Y-9500D01*
Y-7250D02*X114187Y-6500D01*
X114937D01*
X115687Y-7250D01*
Y-9500D01*
X112687Y-6500D02*X113437Y-7250D01*
X118239Y-9500D02*X120489D01*
X117489Y-8750D02*X118239Y-9500D01*
X117489Y-7250D02*Y-8750D01*
Y-7250D02*X118239Y-6500D01*
X119739D01*
X120489Y-7250D01*
X117489Y-8000D02*X120489D01*
Y-7250D02*Y-8000D01*
X124990Y-7250D02*Y-8750D01*
Y-7250D02*X125740Y-6500D01*
X127240D01*
X127990Y-7250D01*
Y-8750D01*
X127240Y-9500D02*X127990Y-8750D01*
X125740Y-9500D02*X127240D01*
X124990Y-8750D02*X125740Y-9500D01*
X130542Y-4250D02*Y-9500D01*
Y-4250D02*X131292Y-3500D01*
X132042D01*
X129792Y-6500D02*X131292D01*
X136993Y-3500D02*Y-8750D01*
X137743Y-9500D01*
X136243Y-5750D02*X137743D01*
X139245Y-3500D02*Y-9500D01*
Y-7250D02*X139995Y-6500D01*
X141495D01*
X142245Y-7250D01*
Y-9500D01*
X144046Y-5000D02*Y-5750D01*
Y-7250D02*Y-9500D01*
X146298D02*X148548D01*
X149298Y-8750D01*
X148548Y-8000D02*X149298Y-8750D01*
X146298Y-8000D02*X148548D01*
X145548Y-7250D02*X146298Y-8000D01*
X145548Y-7250D02*X146298Y-6500D01*
X148548D01*
X149298Y-7250D01*
X145548Y-8750D02*X146298Y-9500D01*
X153799Y-8750D02*X154549Y-9500D01*
X153799Y-7250D02*Y-8750D01*
Y-7250D02*X154549Y-6500D01*
X156049D01*
X156799Y-7250D01*
Y-8750D01*
X156049Y-9500D02*X156799Y-8750D01*
X154549Y-9500D02*X156049D01*
X153799Y-5750D02*X154549Y-6500D01*
X153799Y-4250D02*Y-5750D01*
Y-4250D02*X154549Y-3500D01*
X156049D01*
X156799Y-4250D01*
Y-5750D01*
X156049Y-6500D02*X156799Y-5750D01*
X158601Y-9500D02*X159351D01*
X161152Y-8750D02*X161902Y-9500D01*
X161152Y-4250D02*Y-8750D01*
Y-4250D02*X161902Y-3500D01*
X163402D01*
X164152Y-4250D01*
Y-8750D01*
X163402Y-9500D02*X164152Y-8750D01*
X161902Y-9500D02*X163402D01*
X161152Y-8000D02*X164152Y-5000D01*
X165954Y-8750D02*X166704Y-9500D01*
X165954Y-4250D02*Y-8750D01*
Y-4250D02*X166704Y-3500D01*
X168204D01*
X168954Y-4250D01*
Y-8750D01*
X168204Y-9500D02*X168954Y-8750D01*
X166704Y-9500D02*X168204D01*
X165954Y-8000D02*X168954Y-5000D01*
X170755Y-8750D02*X171505Y-9500D01*
X170755Y-4250D02*Y-8750D01*
Y-4250D02*X171505Y-3500D01*
X173005D01*
X173755Y-4250D01*
Y-8750D01*
X173005Y-9500D02*X173755Y-8750D01*
X171505Y-9500D02*X173005D01*
X170755Y-8000D02*X173755Y-5000D01*
X175557Y-8750D02*X176307Y-9500D01*
X175557Y-4250D02*Y-8750D01*
Y-4250D02*X176307Y-3500D01*
X177807D01*
X178557Y-4250D01*
Y-8750D01*
X177807Y-9500D02*X178557Y-8750D01*
X176307Y-9500D02*X177807D01*
X175557Y-8000D02*X178557Y-5000D01*
X180358Y-8750D02*X181108Y-9500D01*
X180358Y-4250D02*Y-8750D01*
Y-4250D02*X181108Y-3500D01*
X182608D01*
X183358Y-4250D01*
Y-8750D01*
X182608Y-9500D02*X183358Y-8750D01*
X181108Y-9500D02*X182608D01*
X180358Y-8000D02*X183358Y-5000D01*
X185160Y-8750D02*X185910Y-9500D01*
X185160Y-4250D02*Y-8750D01*
Y-4250D02*X185910Y-3500D01*
X187410D01*
X188160Y-4250D01*
Y-8750D01*
X187410Y-9500D02*X188160Y-8750D01*
X185910Y-9500D02*X187410D01*
X185160Y-8000D02*X188160Y-5000D01*
X193411Y-7250D02*Y-9500D01*
Y-7250D02*X194161Y-6500D01*
X194911D01*
X195661Y-7250D01*
Y-9500D01*
Y-7250D02*X196411Y-6500D01*
X197161D01*
X197911Y-7250D01*
Y-9500D01*
X192661Y-6500D02*X193411Y-7250D01*
X199713Y-5000D02*Y-5750D01*
Y-7250D02*Y-9500D01*
X201214Y-3500D02*Y-8750D01*
X201964Y-9500D01*
X206916Y-7250D02*Y-9500D01*
Y-7250D02*X207666Y-6500D01*
X209166D01*
X206166D02*X206916Y-7250D01*
X211717Y-9500D02*X213967D01*
X210967Y-8750D02*X211717Y-9500D01*
X210967Y-7250D02*Y-8750D01*
Y-7250D02*X211717Y-6500D01*
X213217D01*
X213967Y-7250D01*
X210967Y-8000D02*X213967D01*
Y-7250D02*Y-8000D01*
X216519Y-6500D02*X218769D01*
X215769Y-7250D02*X216519Y-6500D01*
X215769Y-7250D02*Y-8750D01*
X216519Y-9500D01*
X218769D01*
X221320Y-3500D02*Y-8750D01*
X222070Y-9500D01*
X220570Y-5750D02*X222070D01*
X225822Y-6500D02*X226572Y-7250D01*
X224322Y-6500D02*X225822D01*
X223572Y-7250D02*X224322Y-6500D01*
X223572Y-7250D02*Y-8750D01*
X224322Y-9500D01*
X226572Y-6500D02*Y-8750D01*
X227322Y-9500D01*
X224322D02*X225822D01*
X226572Y-8750D01*
X229873Y-7250D02*Y-9500D01*
Y-7250D02*X230623Y-6500D01*
X231373D01*
X232123Y-7250D01*
Y-9500D01*
X229123Y-6500D02*X229873Y-7250D01*
X236175Y-6500D02*X236925Y-7250D01*
X234675Y-6500D02*X236175D01*
X233925Y-7250D02*X234675Y-6500D01*
X233925Y-7250D02*Y-8750D01*
X234675Y-9500D01*
X236175D01*
X236925Y-8750D01*
X233925Y-11000D02*X234675Y-11750D01*
X236175D01*
X236925Y-11000D01*
Y-6500D02*Y-11000D01*
X238726Y-3500D02*Y-8750D01*
X239476Y-9500D01*
X241728D02*X243978D01*
X240978Y-8750D02*X241728Y-9500D01*
X240978Y-7250D02*Y-8750D01*
Y-7250D02*X241728Y-6500D01*
X243228D01*
X243978Y-7250D01*
X240978Y-8000D02*X243978D01*
Y-7250D02*Y-8000D01*
X248479Y-6500D02*X251479D01*
X255981Y-8750D02*X256731Y-9500D01*
X255981Y-4250D02*Y-8750D01*
Y-4250D02*X256731Y-3500D01*
X258231D01*
X258981Y-4250D01*
Y-8750D01*
X258231Y-9500D02*X258981Y-8750D01*
X256731Y-9500D02*X258231D01*
X255981Y-8000D02*X258981Y-5000D01*
X260782Y-11000D02*X262282Y-9500D01*
X264084Y-8750D02*X264834Y-9500D01*
X264084Y-4250D02*Y-8750D01*
Y-4250D02*X264834Y-3500D01*
X266334D01*
X267084Y-4250D01*
Y-8750D01*
X266334Y-9500D02*X267084Y-8750D01*
X264834Y-9500D02*X266334D01*
X264084Y-8000D02*X267084Y-5000D01*
X272335Y-3500D02*Y-8750D01*
X273085Y-9500D01*
X271585Y-5750D02*X273085D01*
X274587Y-7250D02*Y-8750D01*
Y-7250D02*X275337Y-6500D01*
X276837D01*
X277587Y-7250D01*
Y-8750D01*
X276837Y-9500D02*X277587Y-8750D01*
X275337Y-9500D02*X276837D01*
X274587Y-8750D02*X275337Y-9500D01*
X282088Y-8750D02*X282838Y-9500D01*
X282088Y-7250D02*Y-8750D01*
Y-7250D02*X282838Y-6500D01*
X284338D01*
X285088Y-7250D01*
Y-8750D01*
X284338Y-9500D02*X285088Y-8750D01*
X282838Y-9500D02*X284338D01*
X282088Y-5750D02*X282838Y-6500D01*
X282088Y-4250D02*Y-5750D01*
Y-4250D02*X282838Y-3500D01*
X284338D01*
X285088Y-4250D01*
Y-5750D01*
X284338Y-6500D02*X285088Y-5750D01*
X289140Y-3500D02*X289890Y-4250D01*
X287640Y-3500D02*X289140D01*
X286890Y-4250D02*X287640Y-3500D01*
X286890Y-4250D02*Y-8750D01*
X287640Y-9500D01*
X289140Y-6500D02*X289890Y-7250D01*
X286890Y-6500D02*X289140D01*
X287640Y-9500D02*X289140D01*
X289890Y-8750D01*
Y-7250D02*Y-8750D01*
X293941Y-3500D02*X294691Y-4250D01*
X292441Y-3500D02*X293941D01*
X291691Y-4250D02*X292441Y-3500D01*
X291691Y-4250D02*Y-8750D01*
X292441Y-9500D01*
X293941Y-6500D02*X294691Y-7250D01*
X291691Y-6500D02*X293941D01*
X292441Y-9500D02*X293941D01*
X294691Y-8750D01*
Y-7250D02*Y-8750D01*
X296493Y-9500D02*X297243D01*
X299794D02*X301294D01*
X300544Y-3500D02*Y-9500D01*
X299044Y-5000D02*X300544Y-3500D01*
X303096Y-6500D02*X306096Y-3500D01*
X303096Y-6500D02*X306846D01*
X306096Y-3500D02*Y-9500D01*
X308647Y-8750D02*X309397Y-9500D01*
X308647Y-4250D02*Y-8750D01*
Y-4250D02*X309397Y-3500D01*
X310897D01*
X311647Y-4250D01*
Y-8750D01*
X310897Y-9500D02*X311647Y-8750D01*
X309397Y-9500D02*X310897D01*
X308647Y-8000D02*X311647Y-5000D01*
X313449Y-8750D02*X314199Y-9500D01*
X313449Y-4250D02*Y-8750D01*
Y-4250D02*X314199Y-3500D01*
X315699D01*
X316449Y-4250D01*
Y-8750D01*
X315699Y-9500D02*X316449Y-8750D01*
X314199Y-9500D02*X315699D01*
X313449Y-8000D02*X316449Y-5000D01*
X318250Y-8750D02*X319000Y-9500D01*
X318250Y-4250D02*Y-8750D01*
Y-4250D02*X319000Y-3500D01*
X320500D01*
X321250Y-4250D01*
Y-8750D01*
X320500Y-9500D02*X321250Y-8750D01*
X319000Y-9500D02*X320500D01*
X318250Y-8000D02*X321250Y-5000D01*
X323052Y-8750D02*X323802Y-9500D01*
X323052Y-4250D02*Y-8750D01*
Y-4250D02*X323802Y-3500D01*
X325302D01*
X326052Y-4250D01*
Y-8750D01*
X325302Y-9500D02*X326052Y-8750D01*
X323802Y-9500D02*X325302D01*
X323052Y-8000D02*X326052Y-5000D01*
X327853Y-11000D02*X329353Y-9500D01*
X331155Y-4250D02*X331905Y-3500D01*
X334155D01*
X334905Y-4250D01*
Y-5750D01*
X331155Y-9500D02*X334905Y-5750D01*
X331155Y-9500D02*X334905D01*
X336706Y-4250D02*X337456Y-3500D01*
X339706D01*
X340456Y-4250D01*
Y-5750D01*
X336706Y-9500D02*X340456Y-5750D01*
X336706Y-9500D02*X340456D01*
X342258Y-8750D02*X343008Y-9500D01*
X342258Y-7250D02*Y-8750D01*
Y-7250D02*X343008Y-6500D01*
X344508D01*
X345258Y-7250D01*
Y-8750D01*
X344508Y-9500D02*X345258Y-8750D01*
X343008Y-9500D02*X344508D01*
X342258Y-5750D02*X343008Y-6500D01*
X342258Y-4250D02*Y-5750D01*
Y-4250D02*X343008Y-3500D01*
X344508D01*
X345258Y-4250D01*
Y-5750D01*
X344508Y-6500D02*X345258Y-5750D01*
X347059Y-4250D02*X347809Y-3500D01*
X349309D01*
X350059Y-4250D01*
Y-8750D01*
X349309Y-9500D02*X350059Y-8750D01*
X347809Y-9500D02*X349309D01*
X347059Y-8750D02*X347809Y-9500D01*
Y-6500D02*X350059D01*
X351861Y-9500D02*X352611D01*
X354412Y-6500D02*X357412Y-3500D01*
X354412Y-6500D02*X358162D01*
X357412Y-3500D02*Y-9500D01*
X362214Y-3500D02*X362964Y-4250D01*
X360714Y-3500D02*X362214D01*
X359964Y-4250D02*X360714Y-3500D01*
X359964Y-4250D02*Y-8750D01*
X360714Y-9500D01*
X362214Y-6500D02*X362964Y-7250D01*
X359964Y-6500D02*X362214D01*
X360714Y-9500D02*X362214D01*
X362964Y-8750D01*
Y-7250D02*Y-8750D01*
X364765D02*X365515Y-9500D01*
X364765Y-4250D02*Y-8750D01*
Y-4250D02*X365515Y-3500D01*
X367015D01*
X367765Y-4250D01*
Y-8750D01*
X367015Y-9500D02*X367765Y-8750D01*
X365515Y-9500D02*X367015D01*
X364765Y-8000D02*X367765Y-5000D01*
X369567Y-8750D02*X370317Y-9500D01*
X369567Y-4250D02*Y-8750D01*
Y-4250D02*X370317Y-3500D01*
X371817D01*
X372567Y-4250D01*
Y-8750D01*
X371817Y-9500D02*X372567Y-8750D01*
X370317Y-9500D02*X371817D01*
X369567Y-8000D02*X372567Y-5000D01*
X374368Y-8750D02*X375118Y-9500D01*
X374368Y-4250D02*Y-8750D01*
Y-4250D02*X375118Y-3500D01*
X376618D01*
X377368Y-4250D01*
Y-8750D01*
X376618Y-9500D02*X377368Y-8750D01*
X375118Y-9500D02*X376618D01*
X374368Y-8000D02*X377368Y-5000D01*
X379170Y-8750D02*X379920Y-9500D01*
X379170Y-4250D02*Y-8750D01*
Y-4250D02*X379920Y-3500D01*
X381420D01*
X382170Y-4250D01*
Y-8750D01*
X381420Y-9500D02*X382170Y-8750D01*
X379920Y-9500D02*X381420D01*
X379170Y-8000D02*X382170Y-5000D01*
X387421Y-7250D02*Y-9500D01*
Y-7250D02*X388171Y-6500D01*
X388921D01*
X389671Y-7250D01*
Y-9500D01*
Y-7250D02*X390421Y-6500D01*
X391171D01*
X391921Y-7250D01*
Y-9500D01*
X386671Y-6500D02*X387421Y-7250D01*
X393723Y-5000D02*Y-5750D01*
Y-7250D02*Y-9500D01*
X395224Y-3500D02*Y-8750D01*
X395974Y-9500D01*
X398226D02*X400476D01*
X401226Y-8750D01*
X400476Y-8000D02*X401226Y-8750D01*
X398226Y-8000D02*X400476D01*
X397476Y-7250D02*X398226Y-8000D01*
X397476Y-7250D02*X398226Y-6500D01*
X400476D01*
X401226Y-7250D01*
X397476Y-8750D02*X398226Y-9500D01*
X200750Y256846D02*Y250846D01*
X203000Y256846D02*X203750Y256096D01*
Y251596D01*
X203000Y250846D02*X203750Y251596D01*
X200000Y250846D02*X203000D01*
X200000Y256846D02*X203000D01*
X207801Y253846D02*X208551Y253096D01*
X206301Y253846D02*X207801D01*
X205551Y253096D02*X206301Y253846D01*
X205551Y253096D02*Y251596D01*
X206301Y250846D01*
X208551Y253846D02*Y251596D01*
X209301Y250846D01*
X206301D02*X207801D01*
X208551Y251596D01*
X211853Y256846D02*Y251596D01*
X212603Y250846D01*
X211103Y254596D02*X212603D01*
X214854Y250846D02*X217104D01*
X214104Y251596D02*X214854Y250846D01*
X214104Y253096D02*Y251596D01*
Y253096D02*X214854Y253846D01*
X216354D01*
X217104Y253096D01*
X214104Y252346D02*X217104D01*
Y253096D02*Y252346D01*
X218906Y254596D02*X219656D01*
X218906Y253096D02*X219656D01*
X227157Y256846D02*X227907Y256096D01*
X224907Y256846D02*X227157D01*
X224157Y256096D02*X224907Y256846D01*
X224157Y256096D02*Y254596D01*
X224907Y253846D01*
X227157D01*
X227907Y253096D01*
Y251596D01*
X227157Y250846D02*X227907Y251596D01*
X224907Y250846D02*X227157D01*
X224157Y251596D02*X224907Y250846D01*
X231959Y253846D02*X232709Y253096D01*
X230459Y253846D02*X231959D01*
X229709Y253096D02*X230459Y253846D01*
X229709Y253096D02*Y251596D01*
X230459Y250846D01*
X232709Y253846D02*Y251596D01*
X233459Y250846D01*
X230459D02*X231959D01*
X232709Y251596D01*
X236010Y256846D02*Y251596D01*
X236760Y250846D01*
X235260Y254596D02*X236760D01*
X240962Y256096D02*X241712Y256846D01*
X243962D01*
X244712Y256096D01*
Y254596D01*
X240962Y250846D02*X244712Y254596D01*
X240962Y250846D02*X244712D01*
X246513Y256846D02*X249513D01*
X246513D02*Y253846D01*
X247263Y254596D01*
X248763D01*
X249513Y253846D01*
Y251596D01*
X248763Y250846D02*X249513Y251596D01*
X247263Y250846D02*X248763D01*
X246513Y251596D02*X247263Y250846D01*
X254015Y256846D02*X256265D01*
Y251596D01*
X255515Y250846D02*X256265Y251596D01*
X254765Y250846D02*X255515D01*
X254015Y251596D02*X254765Y250846D01*
X258066Y253846D02*Y251596D01*
X258816Y250846D01*
X260316D01*
X261066Y251596D01*
Y253846D02*Y251596D01*
X263618Y253096D02*Y250846D01*
Y253096D02*X264368Y253846D01*
X265118D01*
X265868Y253096D01*
Y250846D01*
X262868Y253846D02*X263618Y253096D01*
X270369Y256096D02*X271119Y256846D01*
X273369D01*
X274119Y256096D01*
Y254596D01*
X270369Y250846D02*X274119Y254596D01*
X270369Y250846D02*X274119D01*
X275921Y251596D02*X276671Y250846D01*
X275921Y256096D02*Y251596D01*
Y256096D02*X276671Y256846D01*
X278171D01*
X278921Y256096D01*
Y251596D01*
X278171Y250846D02*X278921Y251596D01*
X276671Y250846D02*X278171D01*
X275921Y252346D02*X278921Y255346D01*
X281472Y250846D02*X282972D01*
X282222Y256846D02*Y250846D01*
X280722Y255346D02*X282222Y256846D01*
X285524Y250846D02*X287024D01*
X286274Y256846D02*Y250846D01*
X284774Y255346D02*X286274Y256846D01*
X291525Y251596D02*X292275Y250846D01*
X291525Y256096D02*Y251596D01*
Y256096D02*X292275Y256846D01*
X293775D01*
X294525Y256096D01*
Y251596D01*
X293775Y250846D02*X294525Y251596D01*
X292275Y250846D02*X293775D01*
X291525Y252346D02*X294525Y255346D01*
X296327Y250846D02*X299327Y253846D01*
Y256096D02*Y253846D01*
X298577Y256846D02*X299327Y256096D01*
X297077Y256846D02*X298577D01*
X296327Y256096D02*X297077Y256846D01*
X296327Y256096D02*Y254596D01*
X297077Y253846D01*
X299327D01*
X301128Y254596D02*X301878D01*
X301128Y253096D02*X301878D01*
X303680Y253846D02*X306680Y256846D01*
X303680Y253846D02*X307430D01*
X306680Y256846D02*Y250846D01*
X309231Y256096D02*X309981Y256846D01*
X311481D01*
X312231Y256096D01*
Y251596D01*
X311481Y250846D02*X312231Y251596D01*
X309981Y250846D02*X311481D01*
X309231Y251596D02*X309981Y250846D01*
Y253846D02*X312231D01*
X314033Y254596D02*X314783D01*
X314033Y253096D02*X314783D01*
X316584Y253846D02*X319584Y256846D01*
X316584Y253846D02*X320334D01*
X319584Y256846D02*Y250846D01*
X322886D02*X324386D01*
X323636Y256846D02*Y250846D01*
X322136Y255346D02*X323636Y256846D01*
X329637D02*Y250846D01*
X328887Y256846D02*X331887D01*
X332637Y256096D01*
Y254596D01*
X331887Y253846D02*X332637Y254596D01*
X329637Y253846D02*X331887D01*
X334439Y256846D02*Y250846D01*
Y256846D02*X336689Y254596D01*
X338939Y256846D01*
Y250846D01*
X346440Y256846D02*X347190Y256096D01*
X344190Y256846D02*X346440D01*
X343440Y256096D02*X344190Y256846D01*
X343440Y256096D02*Y251596D01*
X344190Y250846D01*
X346440D01*
X347190Y251596D01*
Y253096D02*Y251596D01*
X346440Y253846D02*X347190Y253096D01*
X344940Y253846D02*X346440D01*
X348992Y256846D02*Y250846D01*
Y256846D02*X351242Y254596D01*
X353492Y256846D01*
Y250846D01*
X355293Y256846D02*X358293D01*
X356793D02*Y250846D01*
X362795Y256846D02*Y251596D01*
X363545Y250846D01*
X365045D01*
X365795Y251596D01*
Y256846D02*Y251596D01*
X367596Y256846D02*X370596D01*
X369096D02*Y250846D01*
X373148D02*X375398D01*
X372398Y251596D02*X373148Y250846D01*
X372398Y256096D02*Y251596D01*
Y256096D02*X373148Y256846D01*
X375398D01*
X200000Y271096D02*Y265846D01*
Y271096D02*X200750Y271846D01*
X203000D01*
X203750Y271096D01*
Y265846D01*
X200000Y268846D02*X203750D01*
X205551D02*Y266596D01*
X206301Y265846D01*
X207801D01*
X208551Y266596D01*
Y268846D02*Y266596D01*
X211103Y271846D02*Y266596D01*
X211853Y265846D01*
X210353Y269596D02*X211853D01*
X213354Y271846D02*Y265846D01*
Y268096D02*X214104Y268846D01*
X215604D01*
X216354Y268096D01*
Y265846D01*
X218156Y268096D02*Y266596D01*
Y268096D02*X218906Y268846D01*
X220406D01*
X221156Y268096D01*
Y266596D01*
X220406Y265846D02*X221156Y266596D01*
X218906Y265846D02*X220406D01*
X218156Y266596D02*X218906Y265846D01*
X223707Y268096D02*Y265846D01*
Y268096D02*X224457Y268846D01*
X225957D01*
X222957D02*X223707Y268096D01*
X227759Y269596D02*X228509D01*
X227759Y268096D02*X228509D01*
X233010Y271846D02*X236010D01*
X236760Y271096D01*
Y269596D01*
X236010Y268846D02*X236760Y269596D01*
X233760Y268846D02*X236010D01*
X233760Y271846D02*Y265846D01*
Y268846D02*X236760Y265846D01*
X238562Y268846D02*Y266596D01*
X239312Y265846D01*
X240812D01*
X241562Y266596D01*
Y268846D02*Y266596D01*
X244113Y265846D02*X246363D01*
X247113Y266596D01*
X246363Y267346D02*X247113Y266596D01*
X244113Y267346D02*X246363D01*
X243363Y268096D02*X244113Y267346D01*
X243363Y268096D02*X244113Y268846D01*
X246363D01*
X247113Y268096D01*
X243363Y266596D02*X244113Y265846D01*
X249665D02*X251915D01*
X252665Y266596D01*
X251915Y267346D02*X252665Y266596D01*
X249665Y267346D02*X251915D01*
X248915Y268096D02*X249665Y267346D01*
X248915Y268096D02*X249665Y268846D01*
X251915D01*
X252665Y268096D01*
X248915Y266596D02*X249665Y265846D01*
X257916Y271846D02*Y265846D01*
X260166Y271846D02*X260916Y271096D01*
Y266596D01*
X260166Y265846D02*X260916Y266596D01*
X257166Y265846D02*X260166D01*
X257166Y271846D02*X260166D01*
X262718Y270346D02*Y269596D01*
Y268096D02*Y265846D01*
X264219Y271846D02*Y266596D01*
X264969Y265846D01*
X266471Y271846D02*Y266596D01*
X267221Y265846D01*
X200000Y286846D02*X203000D01*
X201500D02*Y280846D01*
X204801Y285346D02*Y284596D01*
Y283096D02*Y280846D01*
X207053Y286846D02*Y281596D01*
X207803Y280846D01*
X206303Y284596D02*X207803D01*
X209304Y286846D02*Y281596D01*
X210054Y280846D01*
X212306D02*X214556D01*
X211556Y281596D02*X212306Y280846D01*
X211556Y283096D02*Y281596D01*
Y283096D02*X212306Y283846D01*
X213806D01*
X214556Y283096D01*
X211556Y282346D02*X214556D01*
Y283096D02*Y282346D01*
X216357Y284596D02*X217107D01*
X216357Y283096D02*X217107D01*
X221609Y281596D02*X222359Y280846D01*
X221609Y286096D02*X222359Y286846D01*
X221609Y286096D02*Y281596D01*
X224160Y283846D02*Y281596D01*
X224910Y280846D01*
X226410D01*
X227160Y281596D01*
Y283846D02*Y281596D01*
X229712Y283096D02*Y280846D01*
Y283096D02*X230462Y283846D01*
X231212D01*
X231962Y283096D01*
Y280846D01*
X228962Y283846D02*X229712Y283096D01*
X233763Y286846D02*Y280846D01*
Y283096D02*X236013Y280846D01*
X233763Y283096D02*X235263Y284596D01*
X238565Y283096D02*Y280846D01*
Y283096D02*X239315Y283846D01*
X240065D01*
X240815Y283096D01*
Y280846D01*
X237815Y283846D02*X238565Y283096D01*
X242616D02*Y281596D01*
Y283096D02*X243366Y283846D01*
X244866D01*
X245616Y283096D01*
Y281596D01*
X244866Y280846D02*X245616Y281596D01*
X243366Y280846D02*X244866D01*
X242616Y281596D02*X243366Y280846D01*
X247418Y283846D02*Y281596D01*
X248168Y280846D01*
X248918D01*
X249668Y281596D01*
Y283846D02*Y281596D01*
X250418Y280846D01*
X251168D01*
X251918Y281596D01*
Y283846D02*Y281596D01*
X254469Y283096D02*Y280846D01*
Y283096D02*X255219Y283846D01*
X255969D01*
X256719Y283096D01*
Y280846D01*
X253719Y283846D02*X254469Y283096D01*
X258521Y286846D02*X259271Y286096D01*
Y281596D01*
X258521Y280846D02*X259271Y281596D01*
X263772Y283846D02*X266772D01*
X271274Y286846D02*Y280846D01*
Y286846D02*X274274D01*
X271274Y283846D02*X273524D01*
X278325D02*X279075Y283096D01*
X276825Y283846D02*X278325D01*
X276075Y283096D02*X276825Y283846D01*
X276075Y283096D02*Y281596D01*
X276825Y280846D01*
X279075Y283846D02*Y281596D01*
X279825Y280846D01*
X276825D02*X278325D01*
X279075Y281596D01*
X281627Y286846D02*Y280846D01*
Y281596D02*X282377Y280846D01*
X283877D01*
X284627Y281596D01*
Y283096D02*Y281596D01*
X283877Y283846D02*X284627Y283096D01*
X282377Y283846D02*X283877D01*
X281627Y283096D02*X282377Y283846D01*
X287178Y283096D02*Y280846D01*
Y283096D02*X287928Y283846D01*
X289428D01*
X286428D02*X287178Y283096D01*
X291230Y285346D02*Y284596D01*
Y283096D02*Y280846D01*
X293481Y283846D02*X295731D01*
X292731Y283096D02*X293481Y283846D01*
X292731Y283096D02*Y281596D01*
X293481Y280846D01*
X295731D01*
X299783Y283846D02*X300533Y283096D01*
X298283Y283846D02*X299783D01*
X297533Y283096D02*X298283Y283846D01*
X297533Y283096D02*Y281596D01*
X298283Y280846D01*
X300533Y283846D02*Y281596D01*
X301283Y280846D01*
X298283D02*X299783D01*
X300533Y281596D01*
X303834Y286846D02*Y281596D01*
X304584Y280846D01*
X303084Y284596D02*X304584D01*
X306086Y285346D02*Y284596D01*
Y283096D02*Y280846D01*
X307587Y283096D02*Y281596D01*
Y283096D02*X308337Y283846D01*
X309837D01*
X310587Y283096D01*
Y281596D01*
X309837Y280846D02*X310587Y281596D01*
X308337Y280846D02*X309837D01*
X307587Y281596D02*X308337Y280846D01*
X313139Y283096D02*Y280846D01*
Y283096D02*X313889Y283846D01*
X314639D01*
X315389Y283096D01*
Y280846D01*
X312389Y283846D02*X313139Y283096D01*
X320640Y286846D02*Y280846D01*
X322890Y286846D02*X323640Y286096D01*
Y281596D01*
X322890Y280846D02*X323640Y281596D01*
X319890Y280846D02*X322890D01*
X319890Y286846D02*X322890D01*
X326192Y283096D02*Y280846D01*
Y283096D02*X326942Y283846D01*
X328442D01*
X325442D02*X326192Y283096D01*
X332493Y283846D02*X333243Y283096D01*
X330993Y283846D02*X332493D01*
X330243Y283096D02*X330993Y283846D01*
X330243Y283096D02*Y281596D01*
X330993Y280846D01*
X333243Y283846D02*Y281596D01*
X333993Y280846D01*
X330993D02*X332493D01*
X333243Y281596D01*
X335795Y283846D02*Y281596D01*
X336545Y280846D01*
X337295D01*
X338045Y281596D01*
Y283846D02*Y281596D01*
X338795Y280846D01*
X339545D01*
X340295Y281596D01*
Y283846D02*Y281596D01*
X342096Y285346D02*Y284596D01*
Y283096D02*Y280846D01*
X344348Y283096D02*Y280846D01*
Y283096D02*X345098Y283846D01*
X345848D01*
X346598Y283096D01*
Y280846D01*
X343598Y283846D02*X344348Y283096D01*
X350649Y283846D02*X351399Y283096D01*
X349149Y283846D02*X350649D01*
X348399Y283096D02*X349149Y283846D01*
X348399Y283096D02*Y281596D01*
X349149Y280846D01*
X350649D01*
X351399Y281596D01*
X348399Y279346D02*X349149Y278596D01*
X350649D01*
X351399Y279346D01*
Y283846D02*Y279346D01*
M02*
