M48
INCH
T42C0.020
T41C0.068
T40C0.106
T39C0.038
%
T42
X002362Y013974
X002559Y020669
X002559Y020079
X002559Y019488
X002559Y018898
X002559Y017716
X002362Y005510
X003839Y007874
X003248Y010335
X006181Y018898
X006181Y019488
X006181Y020079
X006181Y020669
T39
X001181Y007567
X001181Y006567
X001181Y005567
X001181Y004567
X001181Y003567
X001181Y002567
X001181Y001567
X001181Y000567
X001181Y011567
X001181Y010567
X001181Y009567
X001181Y008567
X001181Y014567
X001181Y013567
X001181Y012567
X007181Y014567
X007181Y013567
X007181Y012567
X007181Y011567
X007181Y010567
X007181Y009567
X007181Y008567
X007181Y007567
X007181Y006567
X007181Y005567
X007181Y004567
X007181Y003567
X007181Y002567
X007181Y001567
X007181Y000567
T41
X002606Y016240
X000638Y016240
X008039Y021949
X002606Y021949
X000638Y021949
X008039Y016240
T40
X005693Y016240
X005693Y021949
M30
