G04 start of page 8 for group -4079 idx -4079 *
G04 Title: (unknown), topsilk *
G04 Creator: pcb 1.99z *
G04 CreationDate: Sat 25 Jun 2011 09:43:41 PM GMT UTC *
G04 For: russ *
G04 Format: Gerber/RS-274X *
G04 PCB-Dimensions: 86614 228346 *
G04 PCB-Coordinate-Origin: lower left *
%MOIN*%
%FSLAX25Y25*%
%LNTOPSILK*%
%ADD62C,0.0070*%
%ADD61C,0.0200*%
%ADD60C,0.0118*%
%ADD59C,0.0118*%
%ADD58C,0.0100*%
%ADD57C,0.0080*%
G54D57*X27169Y128716D02*X27955D01*
X27169Y123206D02*X27955D01*
G54D58*X52602Y143701D02*G75*G03X52602Y143701I3500J0D01*G01*
G54D59*X64567Y220472D02*X74803D01*
X49212D02*Y210235D01*
Y171653D02*Y161417D01*
X64567D02*X74803D01*
G54D60*X12204Y220471D02*X20078D01*
X12204Y161416D02*X20078D01*
X32952Y220471D02*Y210629D01*
X31889Y220471D02*X32952D01*
X31889Y161416D02*X32952D01*
Y171259D02*Y161416D01*
G54D57*X58665Y91710D02*X59451D01*
X58665Y97220D02*X59451D01*
X58665Y123206D02*X59451D01*
X58665Y128716D02*X59451D01*
X58665Y107458D02*X59451D01*
X58665Y112968D02*X59451D01*
G54D58*X36147Y116613D02*X50047D01*
X36147D02*Y103813D01*
X50047D01*
Y116613D02*Y103813D01*
X66811Y150669D02*Y669D01*
X76811D01*
Y150669D01*
X66811D01*
Y140669D02*X76811D01*
Y150669D01*
X36147Y96928D02*X50047D01*
X36147D02*Y84128D01*
X50047D01*
Y96928D02*Y84128D01*
G54D57*X58665Y75962D02*X59451D01*
X58665Y81472D02*X59451D01*
X58665Y65724D02*X59451D01*
X58665Y60214D02*X59451D01*
X27169Y81472D02*X27955D01*
X27169Y75962D02*X27955D01*
G54D61*X19262Y66469D02*Y59469D01*
G54D58*X21762Y58469D01*
X34862D01*
Y67469D02*Y58469D01*
X21762Y67469D02*X34862D01*
X21762D02*X19262Y66469D01*
X6811Y150669D02*Y669D01*
X16811D01*
Y150669D01*
X6811D01*
Y140669D02*X16811D01*
Y150669D01*
G54D57*X27169Y97220D02*X27955D01*
X27169Y91710D02*X27955D01*
X27169Y112968D02*X27955D01*
X27169Y107458D02*X27955D01*
G54D62*X23138Y135828D02*X25138D01*
X25638Y135328D01*
Y134328D01*
X25138Y133828D02*X25638Y134328D01*
X23638Y133828D02*X25138D01*
X23638Y135828D02*Y131828D01*
Y133828D02*X25638Y131828D01*
X27339D02*X28339D01*
X27839Y135828D02*Y131828D01*
X26839Y134828D02*X27839Y135828D01*
X29540Y132328D02*X30040Y131828D01*
X29540Y135328D02*Y132328D01*
Y135328D02*X30040Y135828D01*
X31040D01*
X31540Y135328D01*
Y132328D01*
X31040Y131828D02*X31540Y132328D01*
X30040Y131828D02*X31040D01*
X29540Y132828D02*X31540Y134828D01*
X1367Y157093D02*Y153093D01*
X867Y157093D02*X2867D01*
X3367Y156593D01*
Y155593D01*
X2867Y155093D02*X3367Y155593D01*
X1367Y155093D02*X2867D01*
X4568Y156593D02*X5068Y157093D01*
X6068D01*
X6568Y156593D01*
Y153593D01*
X6068Y153093D02*X6568Y153593D01*
X5068Y153093D02*X6068D01*
X4568Y153593D02*X5068Y153093D01*
Y155093D02*X6568D01*
X76213Y156655D02*Y152655D01*
X75713Y156655D02*X77713D01*
X78213Y156155D01*
Y155155D01*
X77713Y154655D02*X78213Y155155D01*
X76213Y154655D02*X77713D01*
X79414D02*X81414Y156655D01*
X79414Y154655D02*X81914D01*
X81414Y156655D02*Y152655D01*
X41417Y145701D02*X43417D01*
X42417D02*Y141701D01*
X45118Y145701D02*Y141701D01*
X44618Y145701D02*X46618D01*
X47118Y145201D01*
Y144201D01*
X46618Y143701D02*X47118Y144201D01*
X45118Y143701D02*X46618D01*
X48319Y142201D02*X48819Y141701D01*
X48319Y145201D02*Y142201D01*
Y145201D02*X48819Y145701D01*
X49819D01*
X50319Y145201D01*
Y142201D01*
X49819Y141701D02*X50319Y142201D01*
X48819Y141701D02*X49819D01*
X48319Y142701D02*X50319Y144701D01*
X67230Y226716D02*Y222716D01*
X66730Y226716D02*X68730D01*
X69230Y226216D01*
Y225216D01*
X68730Y224716D02*X69230Y225216D01*
X67230Y224716D02*X68730D01*
X70931Y222716D02*X71931D01*
X71431Y226716D02*Y222716D01*
X70431Y225716D02*X71431Y226716D01*
X13690Y226637D02*Y222637D01*
X13190Y226637D02*X15190D01*
X15690Y226137D01*
Y225137D01*
X15190Y224637D02*X15690Y225137D01*
X13690Y224637D02*X15190D01*
X16891Y226137D02*X17391Y226637D01*
X18891D01*
X19391Y226137D01*
Y225137D01*
X16891Y222637D02*X19391Y225137D01*
X16891Y222637D02*X19391D01*
X55837Y104498D02*X57837D01*
X58337Y103998D01*
Y102998D01*
X57837Y102498D02*X58337Y102998D01*
X56337Y102498D02*X57837D01*
X56337Y104498D02*Y100498D01*
Y102498D02*X58337Y100498D01*
X59538Y102498D02*X61538Y104498D01*
X59538Y102498D02*X62038D01*
X61538Y104498D02*Y100498D01*
X56105Y136222D02*X58105D01*
X58605Y135722D01*
Y134722D01*
X58105Y134222D02*X58605Y134722D01*
X56605Y134222D02*X58105D01*
X56605Y136222D02*Y132222D01*
Y134222D02*X58605Y132222D01*
X59806Y135722D02*X60306Y136222D01*
X61306D01*
X61806Y135722D01*
Y132722D01*
X61306Y132222D02*X61806Y132722D01*
X60306Y132222D02*X61306D01*
X59806Y132722D02*X60306Y132222D01*
Y134222D02*X61806D01*
X56968Y116473D02*X58468D01*
X56468Y116973D02*X56968Y116473D01*
X56468Y119973D02*Y116973D01*
Y119973D02*X56968Y120473D01*
X58468D01*
X59669Y119973D02*X60169Y120473D01*
X61669D01*
X62169Y119973D01*
Y118973D01*
X59669Y116473D02*X62169Y118973D01*
X59669Y116473D02*X62169D01*
X36179Y121838D02*Y118838D01*
Y121838D02*X36679Y122338D01*
X37679D01*
X38179Y121838D01*
Y118838D01*
X37679Y118338D02*X38179Y118838D01*
X36679Y118338D02*X37679D01*
X36179Y118838D02*X36679Y118338D01*
X37179Y119338D02*X38179Y118338D01*
X39880D02*X40880D01*
X40380Y122338D02*Y118338D01*
X39380Y121338D02*X40380Y122338D01*
X36179Y102152D02*Y99152D01*
Y102152D02*X36679Y102652D01*
X37679D01*
X38179Y102152D01*
Y99152D01*
X37679Y98652D02*X38179Y99152D01*
X36679Y98652D02*X37679D01*
X36179Y99152D02*X36679Y98652D01*
X37179Y99652D02*X38179Y98652D01*
X39380Y102152D02*X39880Y102652D01*
X41380D01*
X41880Y102152D01*
Y101152D01*
X39380Y98652D02*X41880Y101152D01*
X39380Y98652D02*X41880D01*
X55907Y88347D02*X57907D01*
X58407Y87847D01*
Y86847D01*
X57907Y86347D02*X58407Y86847D01*
X56407Y86347D02*X57907D01*
X56407Y88347D02*Y84347D01*
Y86347D02*X58407Y84347D01*
X60108D02*X61108D01*
X60608Y88347D02*Y84347D01*
X59608Y87347D02*X60608Y88347D01*
X56058Y72837D02*X58058D01*
X58558Y72337D01*
Y71337D01*
X58058Y70837D02*X58558Y71337D01*
X56558Y70837D02*X58058D01*
X56558Y72837D02*Y68837D01*
Y70837D02*X58558Y68837D01*
X59759Y72837D02*X61759D01*
X59759D02*Y70837D01*
X60259Y71337D01*
X61259D01*
X61759Y70837D01*
Y69337D01*
X61259Y68837D02*X61759Y69337D01*
X60259Y68837D02*X61259D01*
X59759Y69337D02*X60259Y68837D01*
X23230Y88741D02*X25230D01*
X25730Y88241D01*
Y87241D01*
X25230Y86741D02*X25730Y87241D01*
X23730Y86741D02*X25230D01*
X23730Y88741D02*Y84741D01*
Y86741D02*X25730Y84741D01*
X26931Y85241D02*X27431Y84741D01*
X26931Y86241D02*Y85241D01*
Y86241D02*X27431Y86741D01*
X28431D01*
X28931Y86241D01*
Y85241D01*
X28431Y84741D02*X28931Y85241D01*
X27431Y84741D02*X28431D01*
X26931Y87241D02*X27431Y86741D01*
X26931Y88241D02*Y87241D01*
Y88241D02*X27431Y88741D01*
X28431D01*
X28931Y88241D01*
Y87241D01*
X28431Y86741D02*X28931Y87241D01*
X23725Y72890D02*Y68890D01*
X25225Y72890D02*X25725Y72390D01*
Y69390D01*
X25225Y68890D02*X25725Y69390D01*
X23225Y68890D02*X25225D01*
X23225Y72890D02*X25225D01*
X27426Y68890D02*X28426D01*
X27926Y72890D02*Y68890D01*
X26926Y71890D02*X27926Y72890D01*
X24291Y100332D02*X25791D01*
X23791Y100832D02*X24291Y100332D01*
X23791Y103832D02*Y100832D01*
Y103832D02*X24291Y104332D01*
X25791D01*
X26992Y102332D02*X28992Y104332D01*
X26992Y102332D02*X29492D01*
X28992Y104332D02*Y100332D01*
X23231Y120238D02*X25231D01*
X25731Y119738D01*
Y118738D01*
X25231Y118238D02*X25731Y118738D01*
X23731Y118238D02*X25231D01*
X23731Y120238D02*Y116238D01*
Y118238D02*X25731Y116238D01*
X27432D02*X28432D01*
X27932Y120238D02*Y116238D01*
X26932Y119238D02*X27932Y120238D01*
X30133Y116238D02*X31133D01*
X30633Y120238D02*Y116238D01*
X29633Y119238D02*X30633Y120238D01*
M02*
